<svg width="64" height="64" viewBox="0 0 64 64" fill="none" xmlns="http://www.w3.org/2000/svg">
<path d="M32 59.7197C48.4904 59.7197 61.8585 59.4185 61.8585 59.047C61.8585 58.6755 48.4904 58.3744 32 58.3744C15.5096 58.3744 2.14142 58.6755 2.14142 59.047C2.14142 59.4185 15.5096 59.7197 32 59.7197Z" fill="#E1E3E8"/>
<path d="M3.07898 43.3863L0.5354 47.0139L17.6932 59.0445L20.2368 55.4169L3.07898 43.3863Z" fill="#2B91CC"/>
<path d="M3.07902 43.3862L2.3847 44.3764L19.5425 56.407L20.2368 55.4167L3.07902 43.3862Z" fill="#208DC4"/>
<path d="M12.3711 40.9767L9.20599 44.0767L23.8681 59.047L27.0332 55.9471L12.3711 40.9767Z" fill="#2B91CC"/>
<path d="M12.3712 40.9765L11.5071 41.8227L26.1693 56.7931L27.0333 55.9468L12.3712 40.9765Z" fill="#208DC4"/>
<path d="M60.9288 43.3888L43.7706 55.4188L46.314 59.0465L63.4723 47.0165L60.9288 43.3888Z" fill="#2B91CC"/>
<path d="M60.9287 43.3889L43.7705 55.4188L44.4648 56.4091L61.623 44.3791L60.9287 43.3889Z" fill="#208DC4"/>
<path d="M51.6259 40.9795L36.9637 55.9498L40.1289 59.0498L54.791 44.0794L51.6259 40.9795Z" fill="#2B91CC"/>
<path d="M51.6256 40.9795L36.9635 55.9499L37.8275 56.7961L52.4896 41.8258L51.6256 40.9795Z" fill="#208DC4"/>
<path d="M34.2152 38.0919H29.7847V59.047H34.2152V38.0919Z" fill="#2B91CC"/>
<path d="M34.2152 38.0919H33.0059V59.047H34.2152V38.0919Z" fill="#208DC4"/>
<path d="M30.7569 36.9632L31.8232 36.9839L31.6883 35.4261L30.6219 35.4056L30.7569 36.9632Z" fill="#F7C19B"/>
<path d="M32.016 36.8041L32.2821 37.6263C32.3042 37.6952 32.307 37.7645 32.2897 37.8285C32.2464 37.99 32.0839 38.0943 31.8797 38.092L29.8426 38.0672C29.6683 38.0651 29.49 38.0305 29.3197 37.9657C29.1328 37.8944 29.0236 37.7176 29.0754 37.5704C29.0966 37.5104 29.1426 37.4622 29.2062 37.4332L30.5927 36.6121C30.6257 36.5924 30.6671 36.5831 30.7113 36.5852L31.7805 36.6385C31.8872 36.6439 31.987 36.714 32.016 36.8041Z" fill="#333333"/>
<path d="M33.2551 31.3317L32.5327 30.5331L33.6958 29.7056L34.4182 30.5043L33.2551 31.3317Z" fill="#F7C19B"/>
<path d="M32.5816 30.3375L31.8569 30.6466C31.7963 30.6724 31.7468 30.7123 31.7131 30.7623C31.628 30.8886 31.6534 31.0631 31.7773 31.2019L33.0134 32.5882C33.119 32.7068 33.2497 32.8088 33.3961 32.8871C33.5569 32.9728 33.744 32.9423 33.8142 32.8186C33.8428 32.7682 33.8483 32.7076 33.8302 32.6464L33.5652 31.2013C33.5591 31.1667 33.5405 31.1326 33.5126 31.1036L32.8359 30.4002C32.7689 30.3305 32.6607 30.3038 32.5816 30.3375Z" fill="#333333"/>
<path d="M30.4284 21.9481L29.6072 28.08C29.5545 28.5561 29.552 29.0364 29.5998 29.5129L30.4286 36.0512H32.1026L31.817 31.4841C31.7589 29.8408 32.2342 28.435 32.752 26.8742L33.4756 24.8625L36.4779 26.7857L33.124 29.7811L34.1683 31.0718L38.4062 27.7271C39.0178 27.2817 39.1294 26.4136 38.65 25.828L35.143 21.5417L30.4284 21.9481Z" fill="#333333"/>
<path d="M39.8415 17.0496L39.5676 16.7787L39.8311 16.455C39.8688 16.4085 39.8675 16.3415 39.8279 16.2965C39.7803 16.2426 39.6964 16.2413 39.647 16.2935L39.3321 16.6268C39.0884 16.6076 38.918 16.745 38.812 16.8764C38.6831 17.0364 38.5201 17.1652 38.3305 17.2439L38.2846 17.2629L38.0544 17.8069L37.9271 17.9912L38.406 18.1045L39.0106 17.7003C39.0106 17.7003 39.3929 17.7444 39.7782 17.6663C39.9798 17.6256 40.1536 17.4989 40.2552 17.3201L40.6193 16.6792C40.643 16.6376 40.6259 16.5847 40.5824 16.5649C40.5515 16.5508 40.515 16.5572 40.4909 16.5813L40.1067 16.966C40.1067 16.966 40.0224 15.8564 39.7438 16.294C39.7436 16.2944 39.8855 16.7025 39.8415 17.0496Z" fill="#F7C19B"/>
<path d="M25.1949 17.4884L25.4688 17.2175L25.2053 16.8939C25.1676 16.8474 25.1689 16.7804 25.2085 16.7354C25.2563 16.6814 25.34 16.6799 25.3894 16.7324L25.7043 17.0656C25.948 17.0464 26.1184 17.1838 26.2244 17.3152C26.3533 17.4752 26.5163 17.6041 26.7059 17.6828L26.7518 17.7018L26.982 18.2458L27.1093 18.4301L26.6304 18.5434L26.0258 18.1389C26.0258 18.1389 25.6435 18.183 25.2582 18.105C25.0566 18.0642 24.8828 17.9375 24.7812 17.7587L24.4171 17.1179C24.3934 17.0763 24.4105 17.0234 24.454 17.0035C24.4849 16.9894 24.5214 16.9958 24.5455 17.02L24.9297 17.4046C24.9297 17.4046 25.014 16.295 25.2926 16.7326C25.2928 16.7332 25.1509 17.1411 25.1949 17.4884Z" fill="#F7C19B"/>
<path d="M39.0134 17.8999L36.4246 19.479C36.2035 19.5746 35.9518 19.5669 35.7374 19.4603L35.4737 19.1866L35.8848 22.448C33.8835 23.1624 30.5963 23.412 30.0222 23.1876L30.0563 19.1863L29.2888 19.7918C28.9523 20.0173 28.5212 20.0446 28.1596 19.8632L25.8383 18.243L26.4233 17.3574L28.4418 18.3258C29.0579 16.5412 29.4509 15.197 30.1824 14.5229C30.4453 14.3085 30.7774 14.1986 31.117 14.1986H31.8603C32.3595 14.7484 32.5673 14.8066 33.1896 14.2227L34.1803 14.2513C34.1837 14.2515 34.1869 14.2517 34.1903 14.2517C34.6605 14.2778 35.088 14.5355 35.3447 14.9301C35.8336 15.6817 36.3708 16.7503 36.6093 17.8159L38.5899 16.9032L39.0134 17.8999Z" fill="#FBB03B"/>
<path d="M32.527 14.7906C32.1562 14.7906 31.8556 14.49 31.8556 14.1193V13.5979H33.1983V14.1193C33.1983 14.49 32.8977 14.7906 32.527 14.7906Z" fill="#F7C19B"/>
<path d="M33.7528 12.9978C33.5318 14.1412 32.5398 14.1483 32.5398 14.1483C32.5398 14.1483 31.5477 14.141 31.3267 12.9978C31.3267 12.9978 30.8231 12.6517 31.2214 12.362L31.3197 11.4694C31.3197 11.4694 31.6269 10.9698 31.6482 10.9698C31.6698 10.9698 32.5398 11.1407 32.5398 11.1407C32.5398 11.1407 33.4099 10.9698 33.4313 10.9698C33.4528 10.9698 33.7598 11.4694 33.7598 11.4694L33.8582 12.362C34.2564 12.6517 33.7528 12.9978 33.7528 12.9978Z" fill="#F7C19B"/>
<path d="M33.8938 11.5968C33.8202 11.8722 33.9072 12.0838 33.8581 12.362L33.8012 12.3676C33.8225 11.8249 33.5262 11.5125 33.5262 11.5125C33.1893 11.6469 32.7908 11.2597 32.6407 11.4359C32.236 11.911 31.8421 11.4852 31.7762 11.3566C31.7833 11.7779 31.3903 11.7707 31.3903 11.7707L31.2758 12.3625H31.2211L31.0678 11.7242C30.7676 10.6364 31.6192 10.6985 31.6192 10.6985C31.6192 10.6985 32.4388 9.60619 33.3323 10.5858C33.3325 10.5856 34.1668 10.5762 33.8938 11.5968Z" fill="#333333"/>
<path d="M32.5269 4.28033C32.7264 5.63265 32.7279 7.01271 32.5269 8.36503C32.326 7.01271 32.3275 5.63265 32.5269 4.28033Z" fill="#E1E3E8"/>
<path d="M25.8462 7.03C26.9436 7.84515 27.9204 8.81987 28.7345 9.91832C27.6361 9.10424 26.6613 8.12717 25.8462 7.03Z" fill="#E1E3E8"/>
<path d="M23.0665 13.6983C24.4188 13.4989 25.7988 13.4974 27.1512 13.6983C25.7988 13.8993 24.4188 13.8978 23.0665 13.6983Z" fill="#E1E3E8"/>
<path d="M41.9452 13.7408C40.5928 13.9403 39.2128 13.9418 37.8605 13.7408C39.2126 13.5399 40.5926 13.5414 41.9452 13.7408Z" fill="#E1E3E8"/>
<path d="M39.1953 7.06006C38.3802 8.15723 37.4055 9.1343 36.307 9.94838C37.1211 8.84992 38.0982 7.87521 39.1953 7.06006Z" fill="#E1E3E8"/>
</svg>
