<svg width="74" height="70" viewBox="0 0 74 70" fill="none" xmlns="http://www.w3.org/2000/svg">
<path d="M58.6416 20.7473C62.4437 20.7473 65.526 17.6258 65.526 13.7753C65.526 9.92472 62.4437 6.80324 58.6416 6.80324C54.8394 6.80324 51.7571 9.92472 51.7571 13.7753C51.7571 17.6258 54.8394 20.7473 58.6416 20.7473Z" fill="#FFEA8F"/>
<path d="M58.5211 17.2834C58.4313 17.2834 58.3427 17.2795 58.2554 17.2717C56.791 17.1409 56.2621 16.708 55.7021 16.2496C55.6663 16.2204 55.6304 16.1909 55.594 16.1614C55.5055 16.0897 55.4911 15.9589 55.5619 15.8692C55.6328 15.7796 55.762 15.7651 55.8505 15.8368C55.8874 15.8667 55.9239 15.8965 55.9602 15.9263C56.4922 16.3617 56.9518 16.7378 58.2915 16.8576C59.6829 16.9817 60.9603 15.938 60.973 15.9275C61.0607 15.8548 61.19 15.8678 61.2618 15.9565C61.3336 16.0452 61.321 16.176 61.2335 16.2488C61.2191 16.2608 60.8756 16.5446 60.3401 16.8129C59.7215 17.1228 59.0983 17.2834 58.5211 17.2834Z" fill="#2E2E47"/>
<path d="M56.6754 12.5061C56.6754 13.1396 56.3604 12.934 55.9717 12.934C55.583 12.934 55.2679 13.1395 55.2679 12.5061C55.2679 11.8726 55.583 11.3591 55.9717 11.3591C56.3604 11.3591 56.6754 11.8726 56.6754 12.5061Z" fill="#2E2E47"/>
<path d="M56.9958 13.3696C56.9642 13.3696 56.9321 13.3622 56.9021 13.3465C56.8998 13.3454 56.582 13.1864 56.0123 13.1427C55.4517 13.0997 55.014 13.299 55.0097 13.301C54.9068 13.3486 54.7849 13.3031 54.7376 13.1991C54.6902 13.095 54.7347 12.9719 54.8373 12.9236C54.8588 12.9135 55.3716 12.6766 56.0433 12.7282C56.7032 12.7788 57.0744 12.9687 57.0898 12.9768C57.1906 13.0293 57.2303 13.1546 57.1785 13.2567C57.1421 13.3284 57.0702 13.3696 56.9958 13.3696Z" fill="#2E2E47"/>
<path d="M61.5237 12.5061C61.5237 13.1396 61.2086 12.934 60.82 12.934C60.4313 12.934 60.1162 13.1395 60.1162 12.5061C60.1162 11.8726 60.4313 11.3591 60.82 11.3591C61.2086 11.3591 61.5237 11.8726 61.5237 12.5061Z" fill="#2E2E47"/>
<path d="M61.844 13.3696C61.8124 13.3696 61.7803 13.3622 61.7503 13.3465C61.748 13.3454 61.4303 13.1864 60.8605 13.1427C60.2999 13.0998 59.8623 13.299 59.8579 13.301C59.755 13.3486 59.6332 13.3031 59.5858 13.1991C59.5385 13.095 59.5829 12.9719 59.6855 12.9236C59.707 12.9135 60.2198 12.6766 60.8915 12.7282C61.5514 12.7788 61.9226 12.9688 61.9381 12.9768C62.0389 13.0293 62.0786 13.1546 62.0267 13.2567C61.9903 13.3284 61.9185 13.3696 61.844 13.3696Z" fill="#2E2E47"/>
<path d="M20.9148 18.402C23.6034 15.6792 23.6034 11.2648 20.9148 8.54212C18.2263 5.8194 13.8673 5.8194 11.1788 8.54212C8.49027 11.2648 8.49028 15.6792 11.1788 18.402C13.8673 21.1247 18.2263 21.1247 20.9148 18.402Z" fill="#FA634B"/>
<path d="M18.6111 16.7636C18.5662 16.7636 18.5209 16.7487 18.483 16.718C18.4461 16.6881 18.4096 16.6583 18.3733 16.6286C17.8412 16.1931 17.3817 15.817 16.042 15.6973C14.6507 15.5731 13.3732 16.6168 13.3605 16.6274C13.2728 16.7 13.1435 16.6871 13.0717 16.5984C12.9998 16.5096 13.0125 16.3788 13.1 16.306C13.1144 16.2941 13.4579 16.0103 13.9933 15.742C14.7082 15.3838 15.4291 15.2251 16.0781 15.2831C17.5424 15.414 18.0714 15.8469 18.6314 16.3052C18.6671 16.3345 18.7031 16.3639 18.7395 16.3934C18.828 16.4651 18.8423 16.5959 18.7715 16.6856C18.731 16.7369 18.6713 16.7636 18.6111 16.7636Z" fill="#2E2E47"/>
<path d="M13.0011 13.0222C12.5048 13.0222 12.2067 12.7553 12.041 12.5221C11.8562 12.262 11.7999 11.9909 11.7976 11.9795C11.7749 11.8671 11.8465 11.7572 11.9576 11.7342C12.0683 11.7112 12.1766 11.7834 12.1997 11.8954C12.2007 11.9001 12.2451 12.1025 12.3815 12.2894C12.5527 12.524 12.7821 12.6267 13.0826 12.6032C13.8592 12.5427 14.2728 11.6932 14.2769 11.6846C14.3261 11.5814 14.4486 11.5377 14.5506 11.5873C14.6527 11.6369 14.6959 11.7606 14.6472 11.864C14.6266 11.9079 14.1299 12.9386 13.1141 13.0177C13.0753 13.0207 13.0377 13.0222 13.0011 13.0222Z" fill="#2E2E47"/>
<path d="M18.5712 12.9306C18.1568 12.9306 17.7859 12.7629 17.4961 12.4437C17.2744 12.1994 17.1775 11.949 17.1735 11.9384C17.1327 11.8313 17.1854 11.711 17.2911 11.6696C17.3967 11.6284 17.5153 11.6815 17.5563 11.7882C17.5691 11.8209 17.8585 12.5365 18.6052 12.5143C19.1116 12.4993 19.3639 12.2358 19.4734 12.0691C19.5242 11.9917 19.6198 11.9583 19.7072 11.9866C19.8364 12.0283 19.8921 12.1832 19.818 12.2983C19.779 12.3589 19.7286 12.4261 19.6647 12.4935C19.4843 12.6838 19.1562 12.9139 18.6173 12.9299C18.6019 12.9304 18.5865 12.9306 18.5712 12.9306Z" fill="#2E2E47"/>
<path d="M37.6201 64.9438C45.9069 64.9438 52.6248 63.5945 52.6248 61.93C52.6248 60.2655 45.9069 58.9161 37.6201 58.9161C29.3332 58.9161 22.6154 60.2655 22.6154 61.93C22.6154 63.5945 29.3332 64.9438 37.6201 64.9438Z" fill="#FFD3B5"/>
<path d="M39.8781 16.3386C39.8781 16.3386 39.8624 18.1755 38.172 18.1657C36.4815 18.1558 39.4703 15.3306 39.8781 16.3386Z" fill="#FFC97D"/>
<path d="M38.418 18.9302C38.2816 18.3838 38.5355 17.5548 38.5355 17.5548C38.5355 17.5548 37.2413 18.0365 37.08 18.9566C37.0797 18.9582 37.0791 18.9611 37.0786 18.9636C37.2892 18.985 37.946 19.0384 38.418 18.9302Z" fill="#FFA982"/>
<path d="M38.2718 18.1712L37.319 18.4219C37.2119 18.5669 37.1297 18.7299 37.09 18.9101C37.2113 18.9163 37.3915 18.9126 37.6201 18.87C38.0387 18.7921 38.2503 18.2312 38.2718 18.1712Z" fill="#2E2E47"/>
<path d="M36.2916 20.3533C36.2916 20.3533 35.7117 19.0758 34.6702 19.5582C33.6287 20.0406 30.0156 23.186 30.0156 23.186C30.0156 23.186 29.1769 17.3628 27.8659 17.3075C26.5549 17.2522 25.2872 17.7949 25.3579 19.2238C25.4286 20.6528 25.2519 22.2963 25.3961 24.141C25.5086 25.5799 25.4452 26.8484 26.5362 27.7479C27.6271 28.6475 31.4057 26.8415 32.166 26.3155C32.9262 25.7894 36.2916 20.3533 36.2916 20.3533Z" fill="#EAE6E4"/>
<path d="M36.4636 19.1875C36.5808 19.1875 36.6923 19.1314 36.7884 19.0214C37.0524 18.7194 37.1369 18.0922 36.9528 17.8013C36.9403 17.7815 36.9143 17.7757 36.8946 17.7884C36.8751 17.8011 36.8694 17.8275 36.8819 17.8473C37.0461 18.1068 36.9642 18.6916 36.7253 18.9648C36.6031 19.1046 36.4649 19.1383 36.3145 19.0651C36.1745 18.9968 36.0866 18.8787 36.0533 18.7141C35.9785 18.3437 36.1923 17.857 36.328 17.7C36.5122 17.4866 36.7832 17.5661 36.7946 17.5696C36.8167 17.5763 36.8403 17.5637 36.8471 17.5412C36.8538 17.5187 36.8413 17.4949 36.8191 17.488C36.8056 17.4838 36.4853 17.3883 36.2646 17.6439C36.1194 17.812 35.8905 18.3336 35.9709 18.7311C36.0097 18.9232 36.113 19.0615 36.278 19.1419C36.3406 19.1724 36.4029 19.1875 36.4636 19.1875Z" fill="#FFC97D"/>
<path d="M32.3365 25.4519C31.994 25.2535 31.7222 25.5542 31.5831 25.699C31.4439 25.8438 31.6382 25.9854 31.4464 26.0343C31.2546 26.0833 31.0956 26.2318 31.0956 26.2318C31.0161 26.2955 31.1328 26.3659 31.1737 26.5865C31.2126 26.7966 31.069 26.782 31.0803 26.9061C31.2127 26.8431 31.338 26.7813 31.454 26.7219C31.3955 26.6566 31.3708 26.587 31.5226 26.5524C31.5226 26.5524 31.5561 26.5262 31.621 26.3125C31.6859 26.0988 31.9032 26.1314 31.9749 26.032C32.0466 25.9326 31.9884 25.7734 32.0936 25.8323C32.1988 25.8911 32.2775 26.1274 32.2107 26.165C32.1439 26.2026 31.955 26.1613 31.905 26.3371C31.889 26.3933 31.883 26.4445 31.8799 26.4924C31.9982 26.4245 32.0952 26.3644 32.1659 26.3155C32.2628 26.2484 32.4021 26.1014 32.5712 25.8963C32.602 25.7636 32.5764 25.591 32.3365 25.4519Z" fill="#2E2E47"/>
<path d="M30.1157 27.2683C30.2067 26.8989 30.0454 26.8352 29.8825 26.8193C29.7195 26.8034 29.7403 27.1667 29.7403 27.1667C29.7408 27.1931 29.7306 27.3445 29.6913 27.4898C29.8288 27.4398 29.965 27.3877 30.0989 27.3345C30.1046 27.3128 30.1102 27.2908 30.1157 27.2683Z" fill="#2E2E47"/>
<path d="M29.1562 27.3558C29.1804 27.2889 29.3187 27.3397 29.3541 27.1556C29.3541 27.1556 29.3894 26.9714 29.5167 26.9391C29.644 26.9068 29.6651 26.6521 29.4505 26.6407C29.2359 26.6293 29.2372 26.849 29.175 26.9596C29.1129 27.0702 28.9619 27.0177 28.8397 27.1808C28.7175 27.3438 28.6709 27.6451 28.7775 27.7408C28.79 27.752 28.8034 27.762 28.8172 27.771C28.9137 27.7445 29.0108 27.716 29.1081 27.686C29.1287 27.5732 29.1372 27.4081 29.1562 27.3558Z" fill="#2E2E47"/>
<path d="M30.3787 26.1975C30.4228 26.3344 30.6205 26.3217 30.643 26.1795C30.6432 26.178 30.6434 26.1765 30.6437 26.1749C30.6659 26.0221 30.7835 26.1035 30.8139 26.0791C30.8442 26.0546 31.0106 25.8133 30.6869 25.715C30.3632 25.6168 30.307 25.8994 30.3597 26.1281C30.3655 26.1534 30.3719 26.1764 30.3787 26.1975Z" fill="#2E2E47"/>
<path d="M26.6076 18.0326C26.8799 18.1967 27.1663 17.8952 27.4917 17.7046C27.7332 17.5631 27.9106 17.5023 28.0922 17.3754C28.0184 17.3346 27.943 17.3107 27.8659 17.3075C27.6077 17.2966 27.3513 17.3093 27.1064 17.347C27.0501 17.3653 26.991 17.377 26.9302 17.3788C26.7073 17.4256 26.4969 17.4952 26.3065 17.589C26.3062 17.7511 26.4214 17.9204 26.6076 18.0326Z" fill="#2E2E47"/>
<path d="M27.4382 18.3732C27.2834 18.3568 27.245 18.57 27.3179 18.7383C27.3909 18.9065 27.362 18.9425 27.4379 19.0277C27.5139 19.1129 27.6806 19.2454 27.7119 19.149C27.7433 19.0526 27.6431 18.8525 27.6431 18.8525C27.6431 18.8525 27.7431 18.6984 27.7315 18.6064C27.72 18.5145 27.5931 18.3896 27.4382 18.3732Z" fill="#2E2E47"/>
<path d="M28.0475 19.0513C28.0194 19.0743 28.0107 19.1145 28.0283 19.1464C28.1156 19.3049 28.3558 19.2376 28.4445 19.0023C28.5434 18.7399 28.2654 18.6406 28.0888 18.5136C27.9122 18.3867 27.8578 18.5354 27.8817 18.6302C27.9056 18.725 28.0996 18.7634 28.1384 18.8696C28.1643 18.9405 28.0958 19.0118 28.0475 19.0513Z" fill="#2E2E47"/>
<path d="M25.5687 20.208C25.8893 20.3671 25.9258 20.3539 26.0241 20.1214C26.1224 19.8888 25.9689 19.6357 26.1192 19.4846C26.2695 19.3336 26.4193 19.2345 26.3635 19.0666C26.3078 18.8986 26.0138 18.8279 25.9179 18.7195C25.8219 18.6112 25.7539 18.6864 25.6356 18.657C25.5859 18.6446 25.5119 18.6119 25.4272 18.5876C25.3717 18.7766 25.3462 18.9879 25.3579 19.2238C25.3599 19.2647 25.361 19.3063 25.3627 19.3475C25.3842 19.3321 25.3965 19.3067 25.3936 19.2649C25.3871 19.1734 25.5312 19.0775 25.681 19.0448C25.8307 19.0122 25.8722 19.1143 25.8233 19.1714C25.7744 19.2284 25.5353 19.234 25.5683 19.4054C25.6013 19.5769 25.6626 19.6753 25.542 19.7211C25.4981 19.7377 25.4369 19.763 25.3739 19.768C25.3754 19.8911 25.3753 20.0161 25.3747 20.1422C25.4187 20.1467 25.4781 20.1631 25.5687 20.208Z" fill="#2E2E47"/>
<path d="M29.4119 23.5026C29.6262 23.2056 29.1691 22.7496 29.0338 22.7433C28.8985 22.7371 28.8139 22.7229 28.6071 22.6259C28.4003 22.5289 28.4241 22.6005 28.2747 22.7212C28.1253 22.8419 28.0479 22.6816 27.8011 22.6581C27.5544 22.6346 27.2794 22.9063 27.3816 23.1704C27.4837 23.4346 27.7406 23.3261 27.7406 23.3261C27.7823 23.3132 27.8391 23.2546 27.9826 23.147C28.126 23.0394 28.1219 23.1583 28.2909 23.228C28.46 23.2978 28.5797 23.036 28.706 23.1238C28.8322 23.2116 28.7126 23.3908 28.606 23.5348C28.4993 23.6787 28.2851 23.8931 28.0165 23.9038C27.7478 23.9145 27.6983 23.7482 27.5636 23.9808C27.429 24.2134 27.5949 24.4756 27.8902 24.5919C28.1856 24.7081 28.4189 24.3628 28.7087 24.1204C28.9985 23.8779 29.1976 23.7996 29.4119 23.5026Z" fill="#2E2E47"/>
<path d="M29.6183 21.4522C29.6533 21.5238 29.6947 21.573 29.7357 21.6052C29.7052 21.4544 29.6723 21.2974 29.6372 21.1367C29.5892 21.223 29.5503 21.3126 29.6183 21.4522Z" fill="#2E2E47"/>
<path d="M27.7502 20.7143C27.6767 20.785 27.7993 20.8444 27.8598 21.0603C27.9204 21.2762 27.7577 21.2636 27.7998 21.4063C27.842 21.549 28.0989 21.4496 28.2446 21.5286C28.3904 21.6076 28.5763 21.6432 28.8316 21.5528C29.0869 21.4624 29.0079 21.1733 29.0368 20.8956C29.0657 20.6179 29.0841 20.5193 29.1447 20.3916C29.2052 20.2639 29.2748 19.9893 28.9159 19.8233C28.557 19.6572 28.3134 19.9817 28.1878 20.1387C28.0622 20.2957 28.2685 20.4188 28.0818 20.4852C27.8952 20.5517 27.7502 20.7143 27.7502 20.7143ZM28.2042 20.9942C28.2042 20.9942 28.2352 20.965 28.2807 20.7462C28.3261 20.5274 28.5454 20.5399 28.6079 20.4343C28.6704 20.3287 28.5981 20.1755 28.7082 20.2245C28.8183 20.2734 28.9178 20.5014 28.8547 20.545C28.7915 20.5886 28.5998 20.5649 28.5657 20.7446C28.5317 20.9243 28.5907 21.0462 28.5288 21.1834C28.4669 21.3205 28.3075 21.29 28.2149 21.2212C28.1223 21.1523 28.011 21.0574 28.2042 20.9942Z" fill="#2E2E47"/>
<path d="M26.559 21.6234C26.3957 21.6349 26.4754 21.9898 26.4754 21.9898C26.4837 22.0344 26.5218 22.448 26.3867 22.5904C26.2517 22.7329 26.1448 22.6448 26.1245 22.7919C26.1042 22.939 26.4558 23.0119 26.6129 22.8392C26.77 22.6664 26.8329 22.4068 26.8623 22.0272C26.8917 21.6476 26.7223 21.6118 26.559 21.6234Z" fill="#2E2E47"/>
<path d="M25.6196 22.7171C25.7404 22.7936 25.9077 22.7839 25.9295 22.6888C25.9513 22.5937 25.9172 22.3441 25.9302 22.274C25.9432 22.204 26.0879 22.231 26.0928 22.0435C26.0928 22.0435 26.0975 21.856 26.2179 21.8028C26.3382 21.7496 26.3174 21.4948 26.1039 21.5195C25.8904 21.5442 25.9275 21.7606 25.8842 21.8801C25.8409 21.9996 25.6834 21.9731 25.5895 22.1544C25.4956 22.3357 25.4988 22.6406 25.6196 22.7171Z" fill="#2E2E47"/>
<path d="M26.4898 24.4018C26.4378 24.4438 26.1636 24.459 26.0977 24.3029C26.0318 24.1468 26.0696 24.0811 25.9775 24.047C25.8855 24.0129 25.8754 24.1967 25.8662 24.3609C25.857 24.5251 26.0877 24.6524 26.225 24.6818C26.3623 24.7112 26.391 24.7788 26.4966 24.6852C26.6022 24.5916 26.7385 24.6301 26.825 24.4735C26.9115 24.3169 26.7892 23.8875 26.6513 23.7953C26.5135 23.7031 26.3258 23.6924 26.161 23.8661C26.0845 23.9467 26.0967 24.0084 26.1318 24.0512C26.1738 24.1027 26.2447 24.1192 26.307 24.0975C26.3937 24.0674 26.5148 24.0508 26.5609 24.1254C26.6204 24.2216 26.5418 24.3598 26.4898 24.4018Z" fill="#2E2E47"/>
<path d="M27.2097 20.2689C27.2356 20.2397 27.3603 19.9739 27.0251 19.9311C26.6898 19.8883 26.6805 20.1765 26.7697 20.3933C26.7796 20.4171 26.7896 20.4388 26.7998 20.4585C26.8656 20.5861 27.0585 20.5405 27.0575 20.3965C27.0575 20.395 27.0575 20.3935 27.0574 20.3919C27.0545 20.2375 27.1838 20.2981 27.2097 20.2689Z" fill="#2E2E47"/>
<path d="M29.6844 23.0485C29.7639 23.1493 29.7532 23.191 29.7479 23.2393C29.7425 23.2877 29.6559 23.5778 29.7248 23.6652C29.7936 23.7526 29.9973 23.8834 30.0325 23.7247C30.0325 23.7247 30.083 23.6509 30.0633 23.5017C30.0442 23.3576 30.1929 23.2724 30.1182 23.097C30.0522 23.1541 30.0155 23.186 30.0155 23.186C30.0155 23.186 29.9945 23.0398 29.9539 22.7939C29.9333 22.7813 29.9088 22.7769 29.8772 22.7827C29.7538 22.8054 29.605 22.9476 29.6844 23.0485Z" fill="#2E2E47"/>
<path d="M28.7018 24.8401C28.6754 24.7514 28.5299 24.6495 28.3745 24.6592C28.2191 24.6689 28.216 24.8856 28.3154 25.0394C28.4148 25.1931 28.3922 25.2334 28.481 25.3047C28.5698 25.376 28.7558 25.4788 28.771 25.3785C28.7862 25.2782 28.6547 25.0976 28.6547 25.0976C28.6547 25.0976 28.7282 24.9288 28.7018 24.8401Z" fill="#2E2E47"/>
<path d="M29.0825 25.323C29.1945 25.4647 29.4204 25.3581 29.4696 25.1112C29.5243 24.8358 29.2338 24.7844 29.0389 24.6887C28.844 24.5931 28.8147 24.7489 28.8537 24.8384C28.8927 24.9279 29.0903 24.9333 29.1459 25.0315C29.1831 25.0971 29.1271 25.179 29.086 25.226C29.062 25.2533 29.06 25.2944 29.0825 25.323Z" fill="#2E2E47"/>
<path d="M27.6555 26.7495C27.7146 26.5037 27.5218 26.2798 27.6454 26.1056C27.769 25.9314 27.9005 25.8087 27.8181 25.6524C27.7357 25.4961 27.4343 25.4756 27.322 25.3847C27.2097 25.2939 27.1548 25.3794 27.0334 25.3702C26.9121 25.361 26.6376 25.2609 26.4473 25.4228C26.2571 25.5848 26.3695 25.6343 26.3147 25.6786C26.2599 25.7229 25.992 25.6994 26.1013 26.0491C26.1013 26.0491 26.1217 26.4371 26.3772 26.5442C26.6328 26.6514 26.5183 26.7439 26.745 26.8662C26.9717 26.9884 26.8784 26.8079 27.2205 26.9111C27.5627 27.0144 27.5965 26.9953 27.6555 26.7495ZM27.3025 25.8462C27.2636 25.9106 27.0287 25.9561 27.0892 26.1197C27.1497 26.2833 27.2262 26.37 27.1147 26.4354C27.0032 26.5008 26.7731 26.6536 26.6423 26.2393C26.6423 26.2393 26.6892 26.1436 26.7718 26.1347C26.8544 26.1257 26.9153 26.0995 26.8939 26.0103C26.8726 25.9212 26.9991 25.8024 27.1415 25.7452C27.2838 25.688 27.3414 25.7817 27.3025 25.8462Z" fill="#2E2E47"/>
<path d="M34.6432 22.5787C34.4603 22.6346 34.4471 22.4567 34.2266 22.3421C34.0061 22.2276 33.6512 22.3766 33.6493 22.6602C33.6474 22.9439 33.9257 22.9397 33.9257 22.9397C33.9691 22.9434 34.0434 22.9104 34.216 22.8643C34.3886 22.8183 34.3412 22.9271 34.4726 23.0554C34.494 23.0763 34.5175 23.0879 34.5419 23.0943C34.6651 22.9067 34.7864 22.7206 34.9043 22.5387C34.8206 22.4792 34.787 22.5347 34.6432 22.5787Z" fill="#2E2E47"/>
<path d="M33.9702 23.5798C33.7167 23.4888 33.7317 23.3158 33.5215 23.4812C33.3112 23.6466 33.3692 23.9524 33.6008 24.1713C33.6509 24.2187 33.7063 24.2449 33.766 24.2557C33.9092 24.0458 34.0548 23.8295 34.2002 23.6112C34.124 23.6153 34.046 23.6071 33.9702 23.5798Z" fill="#2E2E47"/>
<path d="M36.0216 20.2835C35.7865 20.5441 35.8221 20.6411 35.7259 20.7648C35.6297 20.8886 35.4529 20.9206 35.4716 21.1618C35.4838 21.3201 35.5521 21.4067 35.6111 21.4361C35.6649 21.3514 35.7163 21.2703 35.7651 21.1932C35.7736 21.1598 35.7938 21.1214 35.8354 21.0818C36.1155 20.6376 36.2916 20.3533 36.2916 20.3533C36.2916 20.3533 36.2533 20.2693 36.1791 20.1525C36.127 20.1822 36.075 20.2243 36.0216 20.2835Z" fill="#2E2E47"/>
<path d="M34.2543 19.9411C34.248 20.1655 34.0965 20.104 34.0944 20.2529C34.0922 20.4018 34.3668 20.3853 34.4823 20.5049C34.5979 20.6246 34.7646 20.7151 35.035 20.7066C35.3053 20.6981 35.3157 20.3983 35.4257 20.1423C35.5357 19.8862 35.5825 19.7978 35.6781 19.6944C35.6905 19.681 35.7037 19.6654 35.7167 19.6477C35.6122 19.5736 35.4942 19.5129 35.363 19.4789C35.409 19.584 35.4125 19.7352 35.3561 19.7524C35.2829 19.7748 35.107 19.6938 35.0213 19.8548C34.9355 20.0159 34.9556 20.1501 34.8558 20.2621C34.7561 20.374 34.6132 20.2964 34.5453 20.2026C34.4774 20.1088 34.3994 19.9844 34.6024 19.9829C34.6024 19.9829 34.6406 19.9645 34.7489 19.7696C34.8571 19.5748 35.0626 19.6535 35.1535 19.5717C35.1898 19.5391 35.2078 19.4929 35.2222 19.4541C35.056 19.4376 34.8718 19.4648 34.6702 19.5582C34.5565 19.6109 34.412 19.6953 34.245 19.804C34.2514 19.8433 34.2558 19.8885 34.2543 19.9411Z" fill="#2E2E47"/>
<path d="M32.9019 21.0696C32.7243 21.1511 32.6574 21.0291 32.5846 21.1581C32.5119 21.2871 32.8116 21.4869 33.0208 21.3855C33.2299 21.2841 33.3835 21.0667 33.5499 20.7253C33.6671 20.4849 33.63 20.3659 33.5436 20.2988C33.4326 20.3813 33.3183 20.4679 33.2014 20.5577C33.1807 20.6389 33.0683 20.9932 32.9019 21.0696Z" fill="#2E2E47"/>
<path d="M31.5131 22.6053C31.6298 22.6842 31.6317 22.7577 31.7641 22.7105C31.8964 22.6633 32.0089 22.7502 32.1466 22.6373C32.2843 22.5245 32.328 22.0797 32.2338 21.9423C32.1395 21.8048 31.9691 21.7244 31.7526 21.8238C31.652 21.8699 31.6407 21.9317 31.6575 21.9847C31.6777 22.0483 31.7375 22.0902 31.8033 22.0936C31.8948 22.0982 32.0134 22.1283 32.0289 22.2149C32.0489 22.3266 31.9253 22.4253 31.8616 22.4448C31.7979 22.4643 31.5377 22.3754 31.5337 22.2056C31.5296 22.0359 31.5889 21.989 31.5159 21.9228C31.5138 21.9209 31.5118 21.9199 31.5097 21.9184C31.459 21.9606 31.4089 22.0023 31.3596 22.0435C31.3384 22.0839 31.3176 22.1289 31.2975 22.1725C31.2288 22.3215 31.3964 22.5264 31.5131 22.6053Z" fill="#2E2E47"/>
<path d="M31.6207 25.0496C31.9006 25.2741 31.939 25.269 32.0839 25.063C32.2287 24.8569 32.1318 24.5765 32.3104 24.4613C32.489 24.346 32.6561 24.2814 32.6368 24.1053C32.6176 23.9292 32.3452 23.7968 32.2742 23.6703C32.2032 23.5437 32.1209 23.6026 32.0116 23.5484C31.9022 23.4943 31.684 23.2981 31.448 23.3771C31.212 23.456 31.2982 23.5442 31.2311 23.5647C31.164 23.5853 30.9238 23.4628 30.8972 23.8286C30.8972 23.8286 30.774 24.1966 30.9721 24.3921C31.1701 24.5876 31.0299 24.6305 31.1956 24.8292C31.3613 25.0279 31.3408 24.8252 31.6207 25.0496ZM31.3299 24.2085C31.3299 24.2085 31.4085 24.1373 31.4885 24.16C31.5684 24.1827 31.6345 24.1812 31.6474 24.0904C31.6603 23.9996 31.8212 23.9369 31.9744 23.9372C32.1276 23.9375 32.1467 24.0463 32.087 24.0915C32.0273 24.1367 31.7924 24.0907 31.7887 24.2654C31.785 24.44 31.8242 24.5493 31.6967 24.5681C31.5692 24.5868 31.2996 24.6424 31.3299 24.2085Z" fill="#2E2E47"/>
<path d="M33.251 21.9505C33.251 21.9505 30.5224 25.7376 30.1829 27.3007C31.0822 26.9371 31.8633 26.5249 32.166 26.3155C32.2879 26.2311 32.4771 26.02 32.7084 25.7257L33.251 21.9505Z" fill="#2E2E47"/>
<path d="M35.2139 19.8515C36.7245 19.0866 37.5636 18.699 40.0145 19.8924C42.6456 21.1734 42.9263 28.2662 43.5158 30.1993C44.1053 32.1324 45.0316 35.6461 44.0772 36.7548C43.1228 37.8635 41.0737 33.5253 39.1929 33.1842C37.3122 32.8431 33.6068 32.7009 32.7928 33.1842C31.9787 33.6675 31.7542 36.1691 30.7436 36.1976C29.733 36.2259 30.9471 22.012 35.2139 19.8515Z" fill="#EAE6E4"/>
<path d="M31.2208 35.43C31.2208 35.43 31.9507 32.2176 32.6244 31.9333C33.2981 31.6491 39.7972 31.3063 40.7298 32.1963C41.8246 33.241 42.3731 34.969 43.3264 38.1265C43.789 39.6588 45.2308 58.3143 45.2308 58.3143L42.8728 58.6555C42.8728 58.6555 37.8455 39.2961 37.256 39.1256C36.6665 38.955 33.4384 58.6555 33.4384 58.6555H30.4769C30.4769 58.6555 30.4092 38.0653 31.2208 35.43Z" fill="#2E2E47"/>
<path d="M36.9613 31.3648C36.9613 31.3648 35.4665 32.3242 34.6034 32.9212C33.7402 33.5182 31.8243 33.7101 31.4033 33.902C30.9822 34.0939 31.2349 31.9192 32.5402 31.2582C33.8454 30.5972 36.9613 31.3648 36.9613 31.3648Z" fill="#EAE6E4"/>
<path d="M38.5455 17.756C38.5455 17.756 38.7161 17.8182 38.9042 17.7057C39.0535 17.6164 39.1398 17.2432 39.0446 17.0998C38.9494 16.9565 38.795 16.9261 38.7623 16.9091C38.7295 16.892 38.9765 16.2614 38.8576 15.8245C38.7388 15.3875 38.4297 14.9336 37.7915 14.8377C37.1534 14.7418 36.7625 15.0204 36.4975 15.2454C36.2324 15.4703 36.0952 16.0229 36.0166 16.2829C35.938 16.5428 35.8592 16.6081 35.7803 16.7398C35.5981 17.0437 35.5043 17.2665 35.523 17.661C35.5416 18.0556 35.8491 18.5095 36.4617 18.6365C37.0744 18.7635 38.1191 18.6857 38.5455 17.756Z" fill="#FFA982"/>
<path d="M36.6627 17.2479C36.6549 17.2479 36.6469 17.2476 36.6386 17.247C36.5039 17.2377 36.3378 17.1594 36.2953 17.0325C36.2721 16.963 36.2763 16.8515 36.4288 16.7156C36.5542 16.6039 36.7437 16.4351 36.7588 16.3797L36.7612 16.3729C36.7619 16.3713 36.8342 16.2049 36.7794 16.0953C36.756 16.0483 36.7121 16.0183 36.6452 16.0035C36.474 15.9543 36.2669 15.9152 36.2268 15.9345C36.2037 15.9457 36.176 15.9357 36.1649 15.9122C36.1539 15.8888 36.1637 15.8607 36.1869 15.8495C36.2784 15.8054 36.5781 15.8864 36.6678 15.9123C36.7597 15.9324 36.8262 15.9801 36.8626 16.0531C36.933 16.1948 36.8589 16.381 36.8472 16.4084C36.8254 16.4789 36.7183 16.583 36.4902 16.7863C36.3753 16.8887 36.3486 16.977 36.4109 17.0488C36.4983 17.1496 36.6854 17.1679 36.7113 17.145C36.7228 17.1217 36.7499 17.1136 36.7728 17.1251C36.7958 17.1368 36.8042 17.1663 36.7928 17.1895C36.774 17.2275 36.7282 17.2479 36.6627 17.2479Z" fill="#2E2E47"/>
<path d="M37.1649 16.6546C37.1649 16.6546 37.1782 16.4935 37.3027 16.5015C37.4271 16.5095 37.8508 16.776 37.8508 16.776C37.8508 16.776 37.6507 16.8471 37.606 16.8329C37.5613 16.8186 37.4475 16.6052 37.1649 16.6546Z" fill="#F2836D"/>
<path d="M37.7833 16.3303C37.773 16.3303 37.7626 16.3268 37.754 16.3197C37.7521 16.3182 37.5603 16.1622 37.2931 16.1048C37.268 16.0994 37.2519 16.0744 37.2572 16.049C37.2626 16.0236 37.2873 16.0072 37.3123 16.0127C37.6024 16.075 37.8043 16.2398 37.8127 16.2468C37.8326 16.2632 37.8355 16.2928 37.8193 16.313C37.8102 16.3244 37.7968 16.3303 37.7833 16.3303Z" fill="#2E2E47"/>
<path d="M37.3991 16.6637C37.336 16.6257 37.2622 16.6286 37.225 16.6685C37.1899 16.7063 37.1199 16.8128 37.1705 16.87C37.3718 17.0978 37.4673 16.7756 37.4654 16.7495C37.4631 16.7186 37.4462 16.692 37.3991 16.6637Z" fill="#2E2E47"/>
<path d="M36.1552 16.3337L36.0968 16.197C36.0968 16.197 36.2428 16.1644 36.4205 16.2203C36.5981 16.2763 36.6021 16.4194 36.5902 16.4571C36.5784 16.4948 36.5534 16.4815 36.5534 16.4815C36.5534 16.4815 36.4518 16.3749 36.3644 16.3456C36.277 16.3163 36.1552 16.3337 36.1552 16.3337Z" fill="#F2836D"/>
<path d="M37.6201 16.8936C37.608 16.8936 37.5959 16.8889 37.5869 16.8794C37.5861 16.8787 37.5106 16.801 37.3694 16.7126C37.2558 16.6414 37.1987 16.6849 37.1838 16.6999C37.1656 16.7183 37.1362 16.7183 37.1181 16.7C37.1 16.6816 37.0999 16.6518 37.1181 16.6334C37.1738 16.577 37.2819 16.5471 37.4183 16.6325C37.5701 16.7276 37.6501 16.8103 37.6535 16.8138C37.6713 16.8324 37.6709 16.8622 37.6525 16.8803C37.6435 16.8892 37.6318 16.8936 37.6201 16.8936Z" fill="#2E2E47"/>
<path d="M36.2834 16.3056C36.3405 16.3198 36.3791 16.3713 36.3756 16.4257C36.3724 16.477 36.3474 16.6024 36.2858 16.6107C36.0405 16.6439 36.1796 16.3425 36.1962 16.3245C36.2158 16.3033 36.2409 16.295 36.2834 16.3056Z" fill="#2E2E47"/>
<path d="M36.5461 16.5285C36.5455 16.5285 36.5448 16.5285 36.5442 16.5285C36.5213 16.5276 36.503 16.51 36.5 16.4877C36.4908 16.4676 36.435 16.4012 36.3325 16.3781C36.2191 16.3525 36.1653 16.3804 36.1648 16.3806C36.1423 16.3926 36.1143 16.3845 36.102 16.3623C36.0897 16.34 36.0967 16.312 36.1184 16.299C36.1266 16.2941 36.2025 16.2523 36.3527 16.2862C36.505 16.3206 36.5945 16.4334 36.5925 16.4834C36.5915 16.5087 36.5709 16.5285 36.5461 16.5285Z" fill="#2E2E47"/>
<path d="M37.2423 17.0735C37.2423 17.0735 37.6871 17.067 37.7706 17.2327C37.8541 17.3984 37.3596 17.4043 37.1371 17.3122C36.9147 17.22 37.1315 17.0695 37.2423 17.0735Z" fill="#F2836D"/>
<path d="M43.6005 30.4806C43.5717 30.3836 43.5434 30.2897 43.5158 30.1993C43.3202 29.5579 43.1585 28.3483 42.9338 26.9717L40.6105 24.9241C40.6105 24.9241 41.7024 29.1398 43.6005 30.4806Z" fill="#2E2E47"/>
<path d="M38.5107 19.1584C38.4689 19.0918 38.4389 19.0143 38.418 18.9302C37.946 19.0384 37.2892 18.985 37.0786 18.9635C37.0774 18.9698 37.0757 18.9778 37.0735 18.9891C36.9998 19.3646 36.5618 19.3336 35.9062 19.7442C36.0341 20.0828 36.3799 20.4997 37.3026 20.5584C38.4683 20.6325 39.1502 20.0898 39.4302 19.7964C39.0057 19.445 38.6435 19.3702 38.5107 19.1584Z" fill="#EAE6E4"/>
<path d="M35.9209 16.6786C35.9209 16.6786 36.2426 16.7116 36.2585 16.8763C36.2744 17.041 35.9171 17.003 35.7816 16.896C35.6461 16.7889 35.8422 16.6651 35.9209 16.6786Z" fill="#F2836D"/>
<path d="M36.546 15.2782C35.921 14.8565 37.0542 13.8285 37.7496 13.8977C38.3852 13.9609 38.4127 14.3195 38.4127 14.3195C38.4127 14.3195 38.8799 14.3899 39.5075 14.6873C40.135 14.9847 40.2162 15.7322 39.9496 16.3875C39.683 17.0429 39.2437 17.2359 39.022 17.2044C38.8002 17.173 38.6131 16.9572 38.6131 16.9572C38.6131 16.9572 38.4981 17.1171 38.5353 17.4494C38.5613 17.6816 38.5335 17.7665 38.5342 18.0757C38.5349 18.3848 38.4512 18.5293 38.4266 18.4946C38.4019 18.4599 38.4128 17.8901 38.2914 17.7986C38.17 17.7071 38.0782 17.2028 38.0981 17.0478C38.1179 16.8929 38.235 15.9765 38.235 15.9765C38.235 15.9765 36.9799 15.5709 36.546 15.2782Z" fill="#FFC97D"/>
<path d="M39.6168 15.3053C39.6168 15.3053 40.1675 15.3951 40.4341 15.0126C40.7007 14.6301 40.8443 14.4401 40.5758 14.1567C40.3073 13.8734 39.9492 13.5439 39.5872 13.5621C39.2251 13.5804 38.8774 14.4278 38.8024 14.6995C38.7274 14.9712 39.563 15.2994 39.6168 15.3053Z" fill="#FFC97D"/>
<path d="M39.3041 13.8733C39.3254 13.8783 39.347 13.8652 39.3525 13.8436C39.4512 13.4563 39.9627 13.4494 39.9679 13.4494C39.9903 13.4493 40.0083 13.4308 40.0082 13.4082C40.0081 13.3855 39.9897 13.3673 39.9675 13.3673C39.9617 13.3673 39.3881 13.3752 39.274 13.8231C39.2684 13.845 39.2814 13.8674 39.3031 13.873C39.3035 13.8731 39.3038 13.8732 39.3041 13.8733Z" fill="#FFC97D"/>
<path d="M36.6314 17.6421C36.6277 17.6421 36.6239 17.6416 36.6201 17.6407C36.6145 17.6393 36.4821 17.6046 36.3455 17.4849C36.2267 17.3809 36.1026 17.3497 36.1013 17.3494C36.0764 17.3433 36.061 17.318 36.067 17.2927C36.0729 17.2675 36.0976 17.2517 36.1227 17.2578C36.1287 17.2592 36.2694 17.2938 36.4063 17.4137C36.5253 17.518 36.6417 17.5491 36.6428 17.5494C36.6676 17.5559 36.6827 17.5814 36.6764 17.6066C36.671 17.6279 36.6522 17.6421 36.6314 17.6421Z" fill="#2E2E47"/>
<path d="M38.3404 19.2751C38.4576 19.2751 38.569 19.219 38.6651 19.109C38.9292 18.807 39.0137 18.1799 38.8295 17.889C38.817 17.8691 38.791 17.8633 38.7714 17.8761C38.7518 17.8888 38.7461 17.9151 38.7586 17.935C38.9229 18.1944 38.8409 18.7793 38.6021 19.0525C38.4798 19.1923 38.3416 19.226 38.1913 19.1527C38.0512 19.0844 37.9634 18.9663 37.9301 18.8017C37.8553 18.4313 38.0691 17.9447 38.2047 17.7877C38.3889 17.5743 38.6599 17.6537 38.6713 17.6573C38.6934 17.664 38.717 17.6513 38.7238 17.6288C38.7305 17.6063 38.7181 17.5826 38.6958 17.5757C38.6823 17.5715 38.362 17.476 38.1413 17.7315C37.9961 17.8996 37.7673 18.4212 37.8476 18.8188C37.8864 19.0109 37.9897 19.1491 38.1547 19.2295C38.2173 19.26 38.2796 19.2751 38.3404 19.2751Z" fill="#FFC97D"/>
<path d="M39.2324 20.131C39.2324 20.131 40.1754 19.099 41.0175 19.8851C41.8596 20.6711 44.3299 24.7971 44.3299 24.7971C44.3299 24.7971 46.9124 19.5254 48.1756 19.8851C49.4387 20.2447 50.4773 21.1592 49.9721 22.4953C49.4668 23.8314 49.1308 25.4493 48.4282 27.1575C47.8801 28.4899 47.5515 29.7156 46.2386 30.2277C44.9258 30.7398 42.2344 27.5917 41.6561 26.8661C39.4301 24.0731 39.2324 20.131 39.2324 20.131Z" fill="#EAE6E4"/>
<path d="M26.0981 16.9995C26.0981 16.9995 26.1714 18.3514 26.6408 18.3662C27.1103 18.3811 27.697 18.1285 27.6237 17.8017C27.5503 17.4749 27.301 16.9995 27.0809 16.8509C26.8609 16.7024 26.0981 16.9995 26.0981 16.9995Z" fill="#FFA982"/>
<path d="M26.2154 17.2372C26.2154 17.2372 24.8926 17.0025 24.7772 16.5584C24.7099 16.2994 25.0712 15.7664 25.0712 15.7664C25.0712 15.7664 23.8243 15.3356 24.1324 15.2316C24.4404 15.1276 25.4526 15.5288 25.4526 15.5288C25.4526 15.5288 26.0332 15.253 26.312 15.4014C26.9796 15.7569 27.2423 16.4944 27.3743 16.9252C27.5063 17.356 26.6998 17.4744 26.2154 17.2372Z" fill="#FFA982"/>
<path d="M25.3387 16.3765C25.2838 16.3765 25.2269 16.3666 25.199 16.3221C25.1634 16.2654 25.1928 16.1861 25.2519 16.0765C25.3417 15.9096 25.4062 15.5249 25.4068 15.521C25.4111 15.4954 25.4349 15.4781 25.4604 15.4823C25.4857 15.4866 25.5027 15.5109 25.4985 15.5365C25.4958 15.5529 25.4308 15.9408 25.3334 16.1216C25.2674 16.2442 25.2752 16.268 25.2774 16.2716C25.2775 16.2717 25.2903 16.2862 25.3699 16.2813C25.4724 16.2749 25.6957 15.9819 25.8216 15.7758L25.8394 15.7465L25.8723 15.7548C25.8774 15.7561 26.3772 15.882 26.565 15.882C26.5655 15.8819 26.5658 15.8821 26.5664 15.882C26.592 15.882 26.6128 15.9029 26.6128 15.9289C26.6129 15.9549 26.5922 15.976 26.5665 15.9761C26.566 15.9761 26.5655 15.9761 26.5651 15.9761C26.3929 15.9761 25.9996 15.883 25.8826 15.8543C25.7998 15.9859 25.5473 16.3646 25.3755 16.3751C25.3635 16.376 25.3512 16.3765 25.3387 16.3765Z" fill="#2E2E47"/>
<path d="M25.4574 16.7291C25.2999 16.7291 25.0971 16.6975 25.0165 16.6838C24.9912 16.6795 24.9741 16.6552 24.9784 16.6296C24.9826 16.604 25.0066 16.5867 25.0319 16.591C25.2589 16.6296 25.5274 16.6507 25.5837 16.6231C25.5831 16.56 25.5161 16.4773 25.4913 16.4521C25.475 16.4355 25.4732 16.4092 25.4872 16.3905C25.5012 16.3718 25.5266 16.3664 25.5468 16.3777C25.5496 16.3791 25.6266 16.4191 25.7449 16.3747C25.7541 16.3713 25.7697 16.3641 25.7715 16.3546C25.7761 16.3313 25.74 16.2784 25.7047 16.2456C25.6901 16.232 25.6856 16.2103 25.6937 16.1919C25.7018 16.1735 25.7207 16.1624 25.7404 16.1641C25.8162 16.171 25.932 16.1592 25.9424 16.119C25.9527 16.0797 25.8615 15.993 25.7733 15.9398C25.7513 15.9265 25.744 15.8976 25.7572 15.8753C25.7703 15.8529 25.7987 15.8456 25.8208 15.8589C25.862 15.8837 26.0658 16.0139 26.0323 16.143C26.0105 16.2269 25.9142 16.2523 25.835 16.2586C25.8554 16.2926 25.8704 16.333 25.8627 16.3727C25.8572 16.4013 25.8379 16.4402 25.7771 16.463C25.7243 16.4828 25.6769 16.4895 25.6369 16.4895C25.6364 16.4895 25.6358 16.4895 25.6353 16.4895C25.6608 16.5343 25.6813 16.5886 25.6757 16.6423C25.6742 16.6567 25.6677 16.6775 25.6453 16.6948C25.6123 16.7202 25.5413 16.7291 25.4574 16.7291Z" fill="#2E2E47"/>
<path d="M31.1078 58.2811C31.1078 58.2811 30.6961 59.3985 30.3832 59.7654C30.0704 60.1323 28.5388 61.0996 28.3083 61.3664C28.0777 61.6333 27.9624 62.3504 28.4071 62.4505C28.8517 62.5505 31.0749 62.1002 31.4207 61.9335C31.7666 61.7667 31.9806 61.233 32.03 61.233C32.0794 61.233 32.03 61.8167 32.03 61.8167L33.1005 61.7834C33.1005 61.7834 33.611 60.149 33.5451 59.682C33.4792 59.215 33.1993 58.4479 33.2322 58.2811C33.2651 58.1143 31.2066 58.0263 31.1078 58.2811Z" fill="#2E2E47"/>
<path d="M44.9507 58.2811C44.9507 58.2811 45.3624 59.3985 45.6753 59.7654C45.9882 60.1323 47.5974 60.5027 47.8279 60.7696C48.0585 61.0364 48.1738 61.7535 47.7291 61.8536C47.2845 61.9537 44.9837 61.9723 44.6378 61.8055C44.292 61.6388 44.0779 61.233 44.0285 61.233C43.9791 61.233 44.0285 61.8167 44.0285 61.8167L42.9581 61.7833C42.9581 61.7833 42.4476 60.1489 42.5134 59.682C42.5793 59.215 42.8593 58.4478 42.8263 58.2811C42.7934 58.1143 44.8519 58.0263 44.9507 58.2811Z" fill="#2E2E47"/>
<path d="M39.0265 16.5483C39.0207 16.5483 39.0148 16.5471 39.0091 16.5448C39.0047 16.5434 38.9957 16.5411 38.983 16.5377C38.5137 16.4139 38.2468 16.2288 38.1898 15.9874C38.1862 15.9724 38.1902 15.9566 38.2004 15.9451C38.2106 15.9336 38.2257 15.9279 38.2408 15.9298C38.243 15.9301 38.4895 15.9551 39.0919 15.7194C39.1158 15.7101 39.1428 15.722 39.152 15.7463C39.1612 15.7706 39.1493 15.7978 39.1254 15.8072C38.6741 15.9838 38.4149 16.0189 38.3002 16.0241C38.3606 16.1578 38.5378 16.3231 39.0064 16.4467C39.0322 16.4535 39.0392 16.4554 39.0457 16.4584C39.0691 16.4692 39.0794 16.497 39.0688 16.5207C39.061 16.538 39.0441 16.5483 39.0265 16.5483Z" fill="#2E2E47"/>
<path d="M40.0743 15.3114C40.0058 15.3114 39.9619 15.3033 39.957 15.3023C39.9342 15.2979 39.9193 15.2756 39.9236 15.2525C39.9279 15.2294 39.9502 15.2142 39.9728 15.2185C39.9759 15.2192 40.2891 15.2754 40.5783 15.0558C40.8612 14.8409 40.8433 14.6343 40.8424 14.6256C40.84 14.6023 40.8566 14.5812 40.8795 14.5786C40.9026 14.5757 40.9233 14.5924 40.9261 14.6157C40.9273 14.6262 40.9533 14.8775 40.6288 15.124C40.4198 15.2827 40.2033 15.3114 40.0743 15.3114Z" fill="#FFC97D"/>
<path d="M32.1406 28.338C32.0082 28.3092 31.9271 28.281 31.7389 28.1508C31.5508 28.0205 31.5626 28.0951 31.3955 28.1891C31.2885 28.2493 31.2293 28.2008 31.1378 28.1412C31.1096 28.2782 31.0823 28.4151 31.0557 28.5518C31.1949 28.4879 31.1797 28.5985 31.3288 28.6917C31.4842 28.7888 31.645 28.5506 31.7552 28.6584C31.8654 28.7661 31.7181 28.9228 31.5895 29.047C31.4608 29.1711 31.2146 29.3466 30.9479 29.3123C30.937 29.3109 30.9271 29.3089 30.917 29.3071C30.8761 29.5424 30.8379 29.7762 30.8021 30.0076C31.0473 30.0681 31.3059 29.8112 31.5952 29.6417C31.9207 29.451 32.1298 29.4071 32.3896 29.1501C32.6494 28.8931 32.273 28.3668 32.1406 28.338Z" fill="#2E2E47"/>
<path d="M33.1221 27.6894C32.9693 27.7828 33.0103 28.0255 33.1643 28.0495C33.3184 28.0735 33.8789 27.6471 33.8627 27.4052C33.8466 27.1633 33.8941 27.0775 33.9789 26.9928C34.0637 26.9082 33.9886 26.2935 33.6767 26.2697C33.3648 26.246 33.1476 26.2355 32.9726 26.5407C32.7976 26.846 32.8527 26.933 32.7846 27.0747C32.7166 27.2164 32.5506 27.2857 32.6194 27.5174C32.6883 27.749 32.8498 27.791 32.8875 27.7402C32.9253 27.6894 32.9407 27.5848 32.9407 27.5848C32.9407 27.5848 32.8324 27.4538 33.0384 27.2714C33.2444 27.089 33.1818 27.0282 33.2152 26.943C33.2486 26.8577 33.5091 26.8808 33.5407 26.9516C33.5723 27.0224 33.2651 27.2618 33.3269 27.4264C33.3888 27.5909 33.2749 27.5959 33.1221 27.6894Z" fill="#2E2E47"/>
<path d="M32.3366 25.4519C32.1245 25.329 31.9395 25.3976 31.7964 25.502C31.6927 25.8488 31.5951 26.2015 31.5035 26.5577C31.5098 26.5559 31.5157 26.5541 31.5227 26.5524C31.5227 26.5524 31.5562 26.5262 31.6211 26.3125C31.686 26.0988 31.9033 26.1314 31.975 26.032C32.0467 25.9326 31.9885 25.7734 32.0937 25.8323C32.199 25.8911 32.2776 26.1274 32.2108 26.165C32.144 26.2026 31.9552 26.1613 31.9051 26.3371C31.8551 26.5129 31.9029 26.6398 31.8289 26.7706C31.755 26.9015 31.599 26.8564 31.513 26.7794C31.4951 26.7633 31.4766 26.746 31.4601 26.7283C31.4338 26.833 31.4079 26.9378 31.3827 27.0429C31.4312 27.051 31.4777 27.0635 31.5149 27.0883C31.653 27.1804 31.8349 27.233 32.0973 27.1664C32.3596 27.0999 32.3069 26.8048 32.3607 26.5309C32.4144 26.257 32.4416 26.1605 32.5134 26.0389C32.5851 25.9174 32.679 25.6504 32.3366 25.4519Z" fill="#2E2E47"/>
<path d="M31.835 30.5435C31.8234 30.4516 31.6965 30.3267 31.5417 30.3103C31.3869 30.2939 31.3485 30.5071 31.4214 30.6754C31.4943 30.8436 31.4655 30.8796 31.5414 30.9648C31.6173 31.05 31.7841 31.1825 31.8154 31.0861C31.8467 30.9897 31.7465 30.7896 31.7465 30.7896C31.7465 30.7896 31.8465 30.6354 31.835 30.5435Z" fill="#2E2E47"/>
<path d="M32.151 30.9884C32.123 31.0114 32.1142 31.0516 32.1318 31.0835C32.2191 31.242 32.4594 31.1747 32.5481 30.9394C32.647 30.677 32.3689 30.5776 32.1923 30.4507C32.0157 30.3238 31.9613 30.4725 31.9852 30.5673C32.0091 30.6621 32.2031 30.7005 32.2419 30.8066C32.2679 30.8776 32.1993 30.9489 32.151 30.9884Z" fill="#2E2E47"/>
<path d="M37.9364 29.2854C38.2718 29.1444 38.1151 28.5142 38.0027 28.4377C37.8902 28.3612 37.8253 28.3046 37.6983 28.1129C37.5713 27.9212 37.5549 27.9949 37.3653 28.0195C37.1757 28.044 37.1918 27.8663 36.993 27.7165C36.7942 27.5666 36.4199 27.6542 36.3718 27.9336C36.3236 28.213 36.5987 28.2554 36.5987 28.2554C36.6409 28.2664 36.7196 28.2463 36.8973 28.2297C37.0751 28.2132 37.0106 28.3126 37.1193 28.4612C37.228 28.6097 37.4646 28.4489 37.5274 28.5904C37.5903 28.7319 37.3961 28.8221 37.2312 28.889C37.0662 28.9559 36.7732 29.0264 36.5381 28.8943C36.3031 28.7621 36.346 28.5939 36.1117 28.7219C35.8774 28.8498 35.8846 29.1611 36.0774 29.4158C36.2701 29.6705 36.6466 29.4981 37.0186 29.4434C37.3906 29.3887 37.601 29.4264 37.9364 29.2854Z" fill="#2E2E47"/>
<path d="M39.4384 28.0369C39.4355 28.2129 39.3279 28.1748 39.1518 28.2042C38.9756 28.2335 38.9248 28.4743 39.0591 28.5545C39.1933 28.6346 39.87 28.4493 39.9436 28.2186C40.0172 27.9879 40.0929 27.9261 40.2026 27.8793C40.3123 27.8326 40.4679 27.2335 40.1869 27.0943C39.906 26.9551 39.7081 26.8637 39.4338 27.0814C39.1594 27.2991 39.1787 27.4006 39.0636 27.5066C38.9486 27.6126 38.769 27.6146 38.748 27.8556C38.7271 28.0967 38.8618 28.1963 38.9154 28.1633C38.969 28.1303 39.0217 28.0389 39.0217 28.0389C39.0217 28.0389 38.9691 27.8766 39.2272 27.7846C39.4853 27.6926 39.4496 27.6127 39.5118 27.5461C39.574 27.4795 39.8075 27.5988 39.8109 27.6765C39.8142 27.7541 39.4413 27.8609 39.4384 28.0369Z" fill="#2E2E47"/>
<path d="M37.5379 26.7287C37.5115 26.8752 37.785 26.9048 37.8794 27.0422C37.9738 27.1795 38.1235 27.2967 38.3915 27.3335C38.6595 27.3703 38.7187 27.0765 38.869 26.8423C39.0193 26.6082 39.0798 26.5288 39.191 26.4428C39.3022 26.3569 39.4873 26.1442 39.242 25.8313C38.9967 25.5184 38.6341 25.6954 38.4518 25.7776C38.2695 25.8598 38.3981 26.0643 38.2021 26.0376C38.006 26.011 37.8039 26.0892 37.8039 26.0892C37.7068 26.1185 37.7893 26.2277 37.7465 26.4479C37.7037 26.6681 37.5644 26.5821 37.5379 26.7287ZM38.083 26.5474C38.083 26.5474 38.1237 26.5356 38.2623 26.3615C38.4008 26.1875 38.5906 26.2995 38.6937 26.2341C38.7967 26.1687 38.801 25.999 38.8771 26.0932C38.9532 26.1874 38.9397 26.4363 38.8639 26.4462C38.7881 26.456 38.6279 26.3467 38.517 26.4911C38.4061 26.6356 38.404 26.7714 38.2874 26.8651C38.1708 26.9588 38.0425 26.8584 37.9908 26.7545C37.9392 26.6506 37.8826 26.5149 38.083 26.5474Z" fill="#2E2E47"/>
<path d="M35.8847 27.2462C36.1076 27.1812 36.2945 26.9924 36.5143 26.6835C36.7341 26.3746 36.6077 26.2549 36.4622 26.1789C36.3168 26.1029 36.2029 26.448 36.2029 26.448C36.1871 26.4904 36.0076 26.8639 35.8191 26.9146C35.6306 26.9654 35.5845 26.8338 35.4917 26.9489C35.3989 27.064 35.6619 27.3112 35.8847 27.2462Z" fill="#2E2E47"/>
<path d="M35.8483 26.2926C35.8483 26.2926 35.9485 26.1349 36.0786 26.1527C36.2086 26.1706 36.3216 25.9419 36.1264 25.8507C35.9313 25.7595 35.8521 25.964 35.7538 26.0434C35.6555 26.1227 35.5345 26.0172 35.3613 26.1227C35.1881 26.2282 35.0345 26.4905 35.0984 26.6194C35.1624 26.7483 35.3104 26.828 35.3778 26.7582C35.4451 26.6883 35.5441 26.4571 35.5911 26.4042C35.6382 26.3511 35.748 26.4503 35.8483 26.2926Z" fill="#2E2E47"/>
<path d="M34.8386 28.7625C34.9769 28.7381 35.0736 28.8426 35.2278 28.7543C35.3821 28.6661 35.4977 28.2347 35.4272 28.0834C35.3567 27.9321 35.2018 27.8243 34.972 27.886C34.8652 27.9147 34.844 27.9738 34.852 28.0289C34.8615 28.0949 34.9136 28.1463 34.978 28.1606C35.0675 28.1804 35.1795 28.23 35.1807 28.318C35.1822 28.4315 35.0442 28.5082 34.9782 28.5167C34.9122 28.5253 34.6701 28.3941 34.6938 28.226C34.7175 28.0579 34.7836 28.0216 34.7224 27.944C34.6612 27.8665 34.5583 28.0183 34.4663 28.1538C34.3742 28.2893 34.5061 28.5194 34.6083 28.6167C34.7105 28.7141 34.7004 28.7869 34.8386 28.7625Z" fill="#2E2E47"/>
<path d="M37.1508 25.788C37.1417 25.9317 37.3299 25.9942 37.4028 25.8706C37.4036 25.8693 37.4044 25.868 37.4051 25.8666C37.4818 25.7331 37.5612 25.8529 37.5983 25.8416C37.6354 25.8303 37.8784 25.6687 37.6138 25.4558C37.3492 25.243 37.1935 25.4843 37.1586 25.7165C37.1548 25.742 37.1523 25.7658 37.1508 25.788Z" fill="#2E2E47"/>
<path d="M38.3527 29.8017C38.3527 29.8017 38.4337 29.7651 38.4934 29.6273C38.553 29.4895 38.7343 29.5007 38.7505 29.2904C38.7668 29.0802 38.8202 28.9605 38.7031 28.915C38.586 28.8694 38.3859 28.9127 38.4021 29.0407C38.4183 29.1687 38.3878 29.1987 38.3584 29.2372C38.329 29.2757 38.1062 29.478 38.1203 29.5889C38.1343 29.6999 38.2412 29.9188 38.3527 29.8017Z" fill="#2E2E47"/>
<path d="M36.4686 30.001C36.3065 30.0836 36.2696 30.0563 36.1895 30.1376C36.1095 30.2188 35.9876 30.3944 36.0842 30.421C36.1809 30.4476 36.373 30.3359 36.373 30.3359C36.373 30.3359 36.5303 30.4289 36.6203 30.4124C36.7103 30.3959 36.8268 30.261 36.8349 30.1036C36.843 29.9461 36.6307 29.9185 36.4686 30.001Z" fill="#2E2E47"/>
<path d="M36.7306 30.7688C36.8465 30.5835 36.697 30.5363 36.6047 30.5655C36.5125 30.5946 36.4848 30.7928 36.3822 30.8376C36.3136 30.8676 36.2397 30.802 36.1982 30.7553C36.1741 30.7281 36.134 30.7213 36.1034 30.7408C35.9517 30.8374 36.0307 31.0768 36.2674 31.1542C36.5313 31.2405 36.6147 30.9541 36.7306 30.7688Z" fill="#2E2E47"/>
<path d="M33.9323 30.7569C34.0634 30.9806 34.0762 30.7773 34.3157 31.0455C34.5551 31.3137 34.5938 31.3152 34.7703 31.1362C34.9468 30.9572 34.897 30.6644 35.0919 30.5806C35.2868 30.4968 35.4621 30.4611 35.4719 30.2842C35.4817 30.1073 35.2346 29.9312 35.1852 29.7945C35.1358 29.6578 35.0451 29.7021 34.9461 29.6304C34.8471 29.5586 34.6639 29.3287 34.4183 29.3671C34.1726 29.4054 34.2432 29.5068 34.1737 29.5158C34.1042 29.5249 33.8872 29.3639 33.8013 29.7202C33.8013 29.7202 33.6197 30.0625 33.7832 30.2885C33.9467 30.5144 33.8013 30.5333 33.9323 30.7569ZM34.1661 30.1672C34.1661 30.1672 34.2553 30.1102 34.3304 30.1459C34.4056 30.1817 34.471 30.1913 34.4985 30.1039C34.526 30.0165 34.695 29.9816 34.846 30.0075C34.9971 30.0335 34.9982 30.1439 34.9319 30.1785C34.8656 30.2131 34.6415 30.1285 34.6093 30.3001C34.5771 30.4717 34.598 30.5861 34.4692 30.5832C34.3404 30.5805 34.0654 30.5901 34.1661 30.1672Z" fill="#2E2E47"/>
<path d="M31.485 35.1075C31.527 35.216 31.595 35.2611 31.6606 35.2772C31.7608 35.064 31.8545 34.8318 31.9478 34.6009C31.9339 34.5986 31.9196 34.5966 31.9045 34.5952C31.6579 34.5717 31.3829 34.8434 31.485 35.1075Z" fill="#2E2E47"/>
<path d="M34.902 32.8762C34.9007 32.7722 34.9306 32.7093 34.977 32.6444C35.0468 32.5468 34.8724 31.953 34.5609 31.9818C34.2495 32.0106 34.0335 32.0366 33.9107 32.3669C33.7879 32.6972 33.8565 32.7739 33.8125 32.925C33.8111 32.9298 33.8093 32.9344 33.8077 32.9391C33.9317 32.9256 34.063 32.9144 34.2003 32.9052C34.2293 32.8234 34.2033 32.7817 34.2158 32.723C34.2348 32.6333 34.4955 32.6125 34.5382 32.677C34.5591 32.7087 34.5064 32.794 34.4575 32.8905C34.6009 32.8839 34.7494 32.8791 34.902 32.8762Z" fill="#2E2E47"/>
<path d="M33.2481 32.3287C33.3087 32.201 33.3783 31.9264 33.0194 31.7604C32.6605 31.5944 32.4169 31.9188 32.2913 32.0759C32.1657 32.2329 32.3719 32.356 32.1853 32.4224C31.9987 32.4888 31.8537 32.6514 31.8537 32.6514C31.7802 32.7222 31.9028 32.7816 31.9633 32.9974C32.0239 33.2133 31.8612 33.2007 31.9033 33.3435C31.9455 33.4862 32.2024 33.3868 32.3482 33.4658C32.3849 33.4857 32.4243 33.5028 32.4666 33.5159C32.5655 33.3711 32.6727 33.2555 32.7929 33.1842C32.8767 33.1344 32.9917 33.0914 33.1318 33.0544C33.1325 32.9824 33.1325 32.9072 33.1403 32.8327C33.1692 32.555 33.1876 32.4564 33.2481 32.3287ZM32.9582 32.4821C32.895 32.5257 32.7032 32.502 32.6692 32.6817C32.6352 32.8614 32.6942 32.9833 32.6323 33.1204C32.5704 33.2576 32.4111 33.227 32.3185 33.1582C32.2259 33.0894 32.1146 32.9945 32.3078 32.9313C32.3078 32.9313 32.3388 32.9021 32.3842 32.6833C32.4296 32.4645 32.649 32.477 32.7115 32.3714C32.7739 32.2658 32.7017 32.1126 32.8118 32.1616C32.9218 32.2105 33.0213 32.4385 32.9582 32.4821Z" fill="#2E2E47"/>
<path d="M30.6625 33.5604C30.4991 33.572 30.5789 33.9268 30.5789 33.9268C30.5871 33.9714 30.6252 34.385 30.4902 34.5275C30.4617 34.5575 30.4346 34.577 30.4092 34.5909C30.4101 34.6888 30.412 34.7831 30.4149 34.8734C30.5181 34.8858 30.64 34.8601 30.7163 34.7763C30.8734 34.6035 30.9363 34.3439 30.9658 33.9643C30.9952 33.5847 30.8258 33.5489 30.6625 33.5604Z" fill="#2E2E47"/>
<path d="M30.7548 35.7324C30.676 35.6797 30.5809 35.6538 30.4832 35.6736C30.5061 35.8122 30.5343 35.9255 30.5676 36.0109C30.6082 36.0148 30.6439 36.0293 30.6644 36.0625C30.6864 36.0981 30.6895 36.1395 30.682 36.1796C30.7015 36.1917 30.7221 36.1981 30.7436 36.1975C30.8157 36.1955 30.8837 36.1805 30.9483 36.1549C30.922 35.9818 30.8415 35.7904 30.7548 35.7324Z" fill="#2E2E47"/>
<path d="M31.3132 32.206C31.3391 32.1768 31.4638 31.911 31.1286 31.8682C30.7933 31.8254 30.784 32.1136 30.8733 32.3304C30.8831 32.3542 30.8932 32.3759 30.9033 32.3956C30.9691 32.5232 31.162 32.4776 31.161 32.3336C31.161 32.3321 31.161 32.3306 31.161 32.329C31.158 32.1746 31.2873 32.2352 31.3132 32.206Z" fill="#2E2E47"/>
<path d="M41.0136 32.8789C41.1142 32.8145 41.1698 32.1976 40.87 32.1073C40.5702 32.017 40.3602 31.96 40.1251 32.2206C39.89 32.4812 39.9256 32.5781 39.8294 32.7019C39.7332 32.8257 39.5564 32.8577 39.5751 33.0989C39.5864 33.2449 39.6455 33.33 39.7009 33.3654C39.7097 33.3699 39.7184 33.3741 39.7273 33.3788C39.7532 33.3884 39.7763 33.3867 39.7904 33.3744C39.8379 33.3329 39.8749 33.2339 39.8749 33.2339C39.8749 33.2339 39.7966 33.0827 40.0361 32.9487C40.2757 32.8148 40.2273 32.742 40.2779 32.6659C40.3284 32.5898 40.5781 32.6684 40.5941 32.7444C40.6101 32.8204 40.2598 32.9882 40.2856 33.1622C40.3114 33.3363 40.1991 33.3167 40.0302 33.3751C39.9721 33.3952 39.9332 33.4376 39.9124 33.4867C40.0156 33.5518 40.1188 33.6254 40.2218 33.7055C40.4621 33.6245 40.7887 33.4267 40.8135 33.2568C40.8485 33.0171 40.9131 32.9434 41.0136 32.8789Z" fill="#2E2E47"/>
<path d="M39.5292 32.0793C39.6392 31.8233 39.686 31.7348 39.7816 31.6314C39.8773 31.528 40.0251 31.2874 39.7321 31.0198C39.4391 30.7522 39.1104 30.9875 38.944 31.099C38.7776 31.2106 38.9378 31.3907 38.7402 31.3973C38.5425 31.4039 38.3559 31.5148 38.3559 31.5148C38.2649 31.5599 38.3641 31.6539 38.3578 31.8782C38.3515 32.1025 38.2001 32.041 38.1979 32.19C38.1957 32.3389 38.4703 32.3223 38.5859 32.442C38.7014 32.5617 38.8682 32.6522 39.1385 32.6437C39.4088 32.6352 39.4192 32.3354 39.5292 32.0793ZM39.1247 31.7919C39.039 31.953 39.059 32.0872 38.9593 32.1992C38.8596 32.3111 38.7167 32.2335 38.6488 32.1397C38.5809 32.0459 38.5029 31.9215 38.7059 31.92C38.7059 31.92 38.7441 31.9016 38.8524 31.7067C38.9607 31.5119 39.1661 31.5906 39.2571 31.5088C39.348 31.4271 39.3245 31.259 39.415 31.3392C39.5054 31.4194 39.5327 31.6671 39.4595 31.6895C39.3863 31.7119 39.2105 31.6309 39.1247 31.7919Z" fill="#2E2E47"/>
<path d="M37.181 32.3168C37.3473 31.9754 37.2031 31.8784 37.0473 31.8278C36.8914 31.7772 36.8354 32.1366 36.8354 32.1366C36.8267 32.1812 36.7106 32.5795 36.533 32.6611C36.3554 32.7427 36.2884 32.6207 36.2157 32.7496C36.1906 32.7942 36.2105 32.847 36.2552 32.8932C36.4202 32.8998 36.5856 32.9079 36.7504 32.9175C36.9115 32.8007 37.0418 32.6022 37.181 32.3168Z" fill="#2E2E47"/>
<path d="M36.4603 32.0427C36.4603 32.0427 36.5334 31.8704 36.6646 31.8662C36.7958 31.862 36.8699 31.6176 36.6625 31.5603C36.4552 31.503 36.4104 31.718 36.3264 31.8127C36.2424 31.9074 36.1059 31.8236 35.9523 31.9566C35.7987 32.0896 35.6899 32.374 35.774 32.4904C35.8582 32.6069 36.0171 32.6607 36.0722 32.5806C36.1272 32.5004 36.1871 32.2559 36.2248 32.1957C36.2626 32.1356 36.3871 32.215 36.4603 32.0427Z" fill="#2E2E47"/>
<path d="M37.9246 31.3663C37.9251 31.3649 37.9257 31.3635 37.9262 31.362C37.9801 31.2175 38.0779 31.3224 38.1126 31.305C38.1474 31.2876 38.3606 31.0876 38.065 30.9219C37.7693 30.7562 37.6551 31.0203 37.6585 31.2552C37.6589 31.281 37.6603 31.305 37.6625 31.327C37.6769 31.4703 37.8727 31.5004 37.9246 31.3663Z" fill="#2E2E47"/>
<path d="M43.5025 30.2064C43.5119 30.2162 43.5195 30.2252 43.5263 30.2338C43.5228 30.2223 43.5193 30.2106 43.5158 30.1993C43.4673 30.0401 43.4208 29.8453 43.375 29.6223C43.1659 29.762 43.295 29.9874 43.295 29.9874C43.3131 30.0275 43.3781 30.0768 43.5025 30.2064Z" fill="#2E2E47"/>
<path d="M43.8857 31.4924C43.7745 31.0726 43.6602 30.6772 43.5547 30.3275C43.5417 30.3747 43.4911 30.4222 43.4643 30.5267C43.4186 30.7057 43.6907 30.791 43.6216 30.9294C43.5524 31.0678 43.3611 30.9716 43.206 30.8837C43.051 30.7958 42.8127 30.6094 42.7664 30.3412C42.7202 30.0729 42.8763 30.0011 42.6308 29.8969C42.3853 29.7927 42.1507 29.9941 42.0762 30.306C42.0018 30.618 42.3708 30.8061 42.6466 31.0648C42.9225 31.3234 43.0257 31.5128 43.3448 31.6884C43.5341 31.7925 43.7465 31.6523 43.8857 31.4924Z" fill="#2E2E47"/>
<path d="M41.7994 28.9197C41.905 29.0132 41.8855 29.1551 42.0503 29.2211C42.215 29.2872 42.619 29.1072 42.6909 28.9565C42.7627 28.8059 42.7482 28.616 42.5563 28.4738C42.4672 28.4078 42.4085 28.4282 42.3712 28.4691C42.3265 28.5181 42.3198 28.5915 42.3493 28.6512C42.3902 28.7341 42.4226 28.8535 42.3558 28.9097C42.2695 28.9823 42.1239 28.9217 42.0758 28.8751C42.0278 28.8285 41.9764 28.5553 42.1204 28.4684C42.2644 28.3814 42.3338 28.4106 42.3549 28.3137C42.376 28.2168 42.1948 28.2311 42.0329 28.2438C41.8709 28.2565 41.7771 28.5049 41.7666 28.6466C41.756 28.7883 41.6938 28.8262 41.7994 28.9197Z" fill="#2E2E47"/>
<path d="M44.0625 32.1953C44.0392 32.0973 44.0155 32 43.9915 31.9035C43.9347 31.865 43.8707 31.8536 43.8254 31.9015C43.7373 31.9947 43.6951 31.9895 43.6471 31.9906C43.5991 31.9916 43.3037 31.9433 43.2273 32.0241C43.1509 32.1048 43.0499 32.3266 43.21 32.3408C43.21 32.3408 43.2889 32.3817 43.4323 32.3421C43.5757 32.3024 43.681 32.4522 43.8527 32.3329C43.9396 32.2725 44.0146 32.2341 44.0625 32.1953Z" fill="#2E2E47"/>
<path d="M41.6948 30.7924C41.5576 30.9126 41.5152 30.8953 41.4572 30.9939C41.3992 31.0925 41.3234 31.2929 41.4236 31.2948C41.5237 31.2966 41.683 31.1407 41.683 31.1407C41.683 31.1407 41.858 31.192 41.9413 31.1537C42.0246 31.1153 42.105 30.9557 42.0748 30.8011C42.0447 30.6464 41.832 30.6721 41.6948 30.7924Z" fill="#2E2E47"/>
<path d="M41.8131 31.625C41.7538 31.671 41.6663 31.6257 41.6148 31.5907C41.5848 31.5703 41.5443 31.5737 41.5194 31.6001C41.3956 31.7314 41.53 31.944 41.7782 31.9604C42.055 31.9787 42.0666 31.6803 42.1343 31.4719C42.2019 31.2636 42.0455 31.2548 41.9632 31.3059C41.8808 31.357 41.9018 31.5561 41.8131 31.625Z" fill="#2E2E47"/>
<path d="M39.9334 30.3578C40.1818 30.3843 40.3753 30.161 40.5622 30.2619C40.7491 30.3628 40.8867 30.4784 41.0287 30.3749C41.1707 30.2714 41.1507 29.9661 41.2246 29.8413C41.2986 29.7165 41.2075 29.6728 41.2004 29.5498C41.1933 29.4267 41.2547 29.1379 41.0709 28.9685C40.887 28.7991 40.8535 28.9185 40.8029 28.8694C40.7523 28.8203 40.7396 28.5482 40.4119 28.7045C40.4119 28.7045 40.0349 28.7766 39.9641 29.0474C39.8933 29.3182 39.7874 29.2155 39.698 29.4593C39.6086 29.7031 39.7728 29.5855 39.7173 29.9426C39.6618 30.2998 39.685 30.3312 39.9334 30.3578ZM40.2978 29.2729C40.2978 29.2729 40.3976 29.3072 40.4174 29.3889C40.4371 29.4706 40.4709 29.5282 40.5553 29.4949C40.6397 29.4616 40.7728 29.5728 40.8478 29.7081C40.9227 29.8433 40.8386 29.9136 40.7704 29.8832C40.7021 29.8527 40.6263 29.623 40.4743 29.7055C40.3222 29.788 40.2475 29.8763 40.1687 29.7731C40.0899 29.6698 39.9098 29.4593 40.2978 29.2729Z" fill="#2E2E47"/>
<path d="M44.4856 34.9484C44.3103 34.8944 44.1011 34.9987 43.9577 35.2032C43.7743 35.4649 44.048 35.7782 44.2094 36.1221C44.249 36.2064 44.2804 36.2829 44.3087 36.3546C44.4529 35.983 44.5018 35.496 44.4856 34.9484Z" fill="#2E2E47"/>
<path d="M43.9516 33.6612C44.0154 33.7877 43.9453 33.9122 44.0741 34.0354C44.1382 34.0967 44.2796 34.1237 44.4206 34.1214C44.4102 34.0353 44.3987 33.9485 44.3863 33.8611C44.3106 33.8396 44.2448 33.7685 44.2246 33.7237C44.2036 33.6769 44.2293 33.5071 44.3162 33.4173C44.3001 33.3247 44.2831 33.2318 44.2654 33.1388C44.1594 33.1899 44.0632 33.3083 44.0211 33.3953C43.9595 33.5229 43.8877 33.5347 43.9516 33.6612Z" fill="#2E2E47"/>
<path d="M42.5102 35.8509C42.6026 35.8903 42.8076 35.8053 42.8076 35.8053C42.8076 35.8053 42.9513 35.9187 43.0427 35.9144C43.1341 35.9101 43.2672 35.7921 43.2959 35.6372C43.3245 35.4822 43.1177 35.4263 42.9462 35.4863C42.7748 35.5464 42.7417 35.5144 42.6517 35.5842C42.5618 35.654 42.4179 35.8116 42.5102 35.8509Z" fill="#2E2E47"/>
<path d="M43.1052 36.2825C43.2444 36.1144 43.1023 36.0476 43.0071 36.0641C42.9119 36.0806 42.8584 36.2733 42.7509 36.3039C42.7369 36.3079 42.7233 36.3074 42.7101 36.3051C42.7846 36.3792 42.8576 36.4485 42.9291 36.5121C42.9917 36.4416 43.0468 36.353 43.1052 36.2825Z" fill="#2E2E47"/>
<path d="M41.4744 34.1684C41.6954 34.2864 41.9569 34.1518 42.0935 34.3157C42.2301 34.4796 42.3155 34.6387 42.4853 34.596C42.6551 34.5532 42.7484 34.2622 42.8628 34.1741C42.9772 34.0859 42.9086 34.0112 42.947 33.8942C42.9855 33.7773 43.1484 33.5322 43.0397 33.3058C42.9311 33.0794 42.8562 33.1776 42.8272 33.113C42.7982 33.0484 42.886 32.791 42.5245 32.813C42.5245 32.813 42.148 32.7383 41.983 32.9632C41.818 33.188 41.7573 33.0529 41.585 33.2457C41.4126 33.4385 41.6082 33.391 41.4258 33.7018C41.2435 34.0126 41.2535 34.0505 41.4744 34.1684ZM42.2103 33.2979C42.2103 33.2979 42.2905 33.3673 42.2789 33.4506C42.2673 33.5339 42.2776 33.6001 42.3682 33.6009C42.4588 33.6017 42.5416 33.7549 42.5616 33.9087C42.5817 34.0625 42.4778 34.0961 42.4256 34.0422C42.3734 33.9883 42.3872 33.7465 42.2157 33.7659C42.0443 33.7854 41.9426 33.8394 41.9072 33.7139C41.8719 33.5885 41.7817 33.3252 42.2103 33.2979Z" fill="#2E2E47"/>
<path d="M35.3402 22.8845C35.2168 22.8278 35.1435 22.7829 34.987 22.6151C34.8304 22.4473 34.8263 22.5227 34.6433 22.5786C34.4604 22.6346 34.4472 22.4566 34.2267 22.3421C34.0063 22.2276 33.6514 22.3766 33.6494 22.6602C33.6475 22.9439 33.9258 22.9396 33.9258 22.9396C33.9692 22.9434 34.0435 22.9104 34.2161 22.8643C34.3887 22.8183 34.3413 22.9271 34.4728 23.0554C34.6042 23.1837 34.8113 22.9855 34.8964 23.1145C34.9814 23.2435 34.8047 23.365 34.6529 23.4586C34.5011 23.5522 34.2237 23.6708 33.9703 23.5798C33.7169 23.4888 33.7318 23.3157 33.5216 23.4811C33.3114 23.6465 33.3693 23.9523 33.6009 24.1713C33.8326 24.3902 34.1758 24.1572 34.5337 24.041C34.8917 23.9247 35.1053 23.9268 35.4131 23.7316C35.7209 23.5364 35.4636 22.9411 35.3402 22.8845Z" fill="#2E2E47"/>
<path d="M36.7666 20.1702C36.4668 20.08 36.2568 20.0229 36.0217 20.2835C35.7866 20.5441 35.8222 20.6411 35.726 20.7648C35.6298 20.8886 35.453 20.9206 35.4717 21.1618C35.4904 21.403 35.6394 21.4788 35.687 21.4373C35.7345 21.3958 35.7715 21.2969 35.7715 21.2969C35.7715 21.2969 35.6932 21.1456 35.9327 21.0117C36.1723 20.8777 36.124 20.8049 36.1745 20.7288C36.225 20.6527 36.4747 20.7313 36.4907 20.8073C36.5067 20.8833 36.1564 21.0511 36.1822 21.2252C36.208 21.3992 36.0957 21.3797 35.9268 21.4381C35.7579 21.4965 35.747 21.7425 35.8925 21.7991C36.038 21.8557 36.6752 21.5597 36.7101 21.3198C36.7451 21.08 36.8096 21.0063 36.9102 20.9419C37.0108 20.8774 37.0664 20.2605 36.7666 20.1702Z" fill="#2E2E47"/>
<path d="M34.9665 19.9929C34.9368 20.0945 34.9255 20.1838 34.8558 20.2621C34.7781 20.3493 34.6743 20.3213 34.6001 20.2604C34.53 20.3186 34.4608 20.3802 34.3926 20.445C34.4267 20.4609 34.4581 20.4798 34.4823 20.5049C34.5979 20.6246 34.7646 20.7151 35.035 20.7066C35.3053 20.698 35.3157 20.3983 35.4257 20.1422C35.5357 19.8862 35.5825 19.7977 35.6781 19.6943C35.7039 19.6665 35.7334 19.6286 35.7571 19.583C35.5836 19.6649 35.4041 19.7552 35.2139 19.8515C35.1302 19.8939 35.0478 19.9414 34.9665 19.9929Z" fill="#2E2E47"/>
<path d="M36.9365 23.7669C36.9021 23.3721 36.9644 23.1336 36.7335 23.086C36.5025 23.0384 36.145 23.1815 36.2142 23.4137C36.2834 23.6458 36.2362 23.7109 36.1935 23.7915C36.1509 23.8721 35.8 24.3171 35.86 24.5183C35.92 24.7195 36.1853 25.0915 36.356 24.8394C36.356 24.8394 36.495 24.7463 36.5633 24.4721C36.6315 24.1979 36.9709 24.1616 36.9365 23.7669Z" fill="#2E2E47"/>
<path d="M34.2636 24.7068C34.2715 24.6145 34.1738 24.4652 34.0259 24.4158C33.8781 24.3664 33.7958 24.5666 33.8318 24.7466C33.8677 24.9267 33.832 24.9556 33.8883 25.0552C33.9446 25.1548 34.0797 25.3202 34.1306 25.2328C34.1814 25.1453 34.1255 24.9283 34.1255 24.9283C34.1255 24.9283 34.2556 24.7991 34.2636 24.7068Z" fill="#2E2E47"/>
<path d="M34.479 25.2095C34.4467 25.2259 34.4298 25.2633 34.4402 25.2983C34.4923 25.472 34.7411 25.4579 34.8772 25.2471C35.0289 25.0119 34.778 24.855 34.6321 24.693C34.4862 24.5309 34.4018 24.6646 34.4053 24.7623C34.4087 24.8601 34.5902 24.9394 34.6059 25.0514C34.6164 25.1264 34.5344 25.1813 34.479 25.2095Z" fill="#2E2E47"/>
<path d="M32.6369 24.1053C32.6235 23.9828 32.4877 23.8814 32.3822 23.7885C32.2034 24.2448 32.0375 24.7232 31.8839 25.2155C31.9569 25.2282 32.0044 25.1761 32.084 25.063C32.2288 24.8569 32.1319 24.5765 32.3105 24.4613C32.4891 24.346 32.6562 24.2814 32.6369 24.1053Z" fill="#2E2E47"/>
<path d="M39.2414 19.7513C39.3647 19.8192 39.4979 19.783 39.6143 19.7054C39.3155 19.5718 39.0418 19.4635 38.7889 19.3793C38.9194 19.5189 39.0355 19.638 39.2414 19.7513Z" fill="#2E2E47"/>
<path d="M39.1238 20.087C39.0475 20.1678 38.9466 20.3896 39.1066 20.4038C39.1066 20.4038 39.1855 20.4446 39.3289 20.405C39.4722 20.3654 39.5775 20.5152 39.7493 20.3958C39.9209 20.2765 40.0464 20.2433 40.0078 20.1225C39.9692 20.0016 39.8102 19.8712 39.7221 19.9644C39.6339 20.0576 39.5918 20.0525 39.5437 20.0535C39.4957 20.0545 39.2002 20.0062 39.1238 20.087Z" fill="#2E2E47"/>
<path d="M40.6918 24.2271C40.58 24.0872 40.427 23.8245 40.4823 23.558C40.5376 23.2916 40.709 23.2835 40.5192 23.0945C40.3293 22.9055 40.0377 23.0044 39.8543 23.2661C39.6709 23.5278 39.9446 23.8411 40.106 24.185C40.2674 24.5288 40.2938 24.7435 40.5259 25.0265C40.7579 25.3094 41.3062 24.9718 41.3452 24.8405C41.3842 24.7091 41.4184 24.6295 41.5619 24.4501C41.7052 24.2707 41.6309 24.2766 41.5518 24.1004C41.4727 23.9242 41.6451 23.8873 41.7278 23.6507C41.8106 23.4142 41.6175 23.0778 41.3396 23.1136C41.0618 23.1495 41.103 23.4282 41.103 23.4282C41.1051 23.4723 41.1473 23.5425 41.2153 23.7096C41.2834 23.8767 41.1705 23.8436 41.0625 23.9926C40.9544 24.1416 41.1759 24.3231 41.061 24.4257C40.946 24.5282 40.8036 24.3669 40.6918 24.2271Z" fill="#2E2E47"/>
<path d="M42.3389 25.5219C42.1053 25.5727 42.051 25.7324 42.098 25.7746C42.1449 25.8168 42.2467 25.8408 42.2467 25.8408C42.2467 25.8408 42.3843 25.742 42.5473 25.9646C42.6682 26.1298 42.7351 26.1404 42.7947 26.1514C42.7674 25.9973 42.7391 25.8422 42.7097 25.6865C42.6088 25.6005 42.5402 25.478 42.3389 25.5219Z" fill="#2E2E47"/>
<path d="M42.3714 26.2434C42.2045 26.2925 42.2087 26.1772 42.129 26.0154C42.0494 25.8537 41.8072 25.8755 41.7712 26.0291C41.7352 26.1826 42.1097 26.7828 42.3491 26.7859C42.5885 26.7891 42.6691 26.8441 42.7456 26.9364C42.7691 26.9648 42.8431 26.9819 42.9357 26.983C42.9083 26.8151 42.8799 26.6447 42.8505 26.4725C42.8416 26.4847 42.8319 26.4937 42.8215 26.4975C42.7492 26.5236 42.5383 26.1943 42.3714 26.2434Z" fill="#2E2E47"/>
<path d="M40.5443 21.5205C40.4848 21.5492 40.4517 21.6148 40.4572 21.6813C40.4649 21.7738 40.4511 21.8968 40.3685 21.9239C40.2618 21.9588 40.1488 21.8479 40.1212 21.7866C40.0937 21.7252 40.146 21.4522 40.3116 21.4256C40.4772 21.3989 40.5309 21.4521 40.5861 21.37C40.6412 21.2879 40.4676 21.2332 40.3126 21.1841C40.1576 21.135 39.9794 21.3305 39.9177 21.4581C39.856 21.5857 39.7844 21.5975 39.8482 21.724C39.912 21.8506 39.8419 21.975 39.9707 22.0982C40.0995 22.2215 40.5406 22.2061 40.6626 22.0932C40.7845 21.9803 40.8405 21.7986 40.7144 21.5944C40.6559 21.4997 40.5939 21.4966 40.5443 21.5205Z" fill="#2E2E47"/>
<path d="M41.3261 25.7911C41.3345 25.6643 41.2347 25.4835 41.1187 25.5369C41.0027 25.5904 40.9654 25.5697 40.9204 25.5526C40.8754 25.5356 40.6188 25.3797 40.5183 25.426C40.4178 25.4723 40.2428 25.6403 40.3862 25.7137C40.3862 25.7137 40.4445 25.7813 40.5922 25.7983C40.7398 25.8154 40.7827 25.9941 40.9859 25.9478C41.189 25.9014 41.3177 25.9178 41.3261 25.7911Z" fill="#2E2E47"/>
<path d="M38.8427 23.5492C38.6712 23.6093 38.6382 23.5773 38.5482 23.6471C38.4582 23.7169 38.3144 23.8745 38.4067 23.9138C38.499 23.9532 38.7041 23.8682 38.7041 23.8682C38.7041 23.8682 38.8478 23.9816 38.9391 23.9773C39.0305 23.973 39.1637 23.855 39.1923 23.7001C39.221 23.5451 39.0142 23.4892 38.8427 23.5492Z" fill="#2E2E47"/>
<path d="M38.4922 24.6652C38.7424 24.7862 38.8626 24.5135 39.0018 24.3454C39.1409 24.1774 38.9989 24.1105 38.9037 24.127C38.8084 24.1435 38.755 24.3362 38.6475 24.3668C38.5756 24.3873 38.5109 24.3124 38.4759 24.2605C38.4555 24.2303 38.4167 24.2182 38.3838 24.2334C38.2208 24.3088 38.2677 24.5567 38.4922 24.6652Z" fill="#2E2E47"/>
<path d="M37.3709 22.2313C37.5919 22.3493 37.8534 22.2147 37.99 22.3786C38.1266 22.5425 38.212 22.7016 38.3818 22.6588C38.5515 22.6161 38.6448 22.325 38.7592 22.2369C38.8736 22.1488 38.8051 22.074 38.8435 21.9571C38.882 21.8401 39.0448 21.595 38.9362 21.3686C38.8275 21.1422 38.7527 21.2405 38.7237 21.1759C38.6947 21.1113 38.7825 20.8538 38.4209 20.8758C38.4209 20.8758 38.0445 20.8012 37.8795 21.026C37.7145 21.2508 37.6538 21.1158 37.4814 21.3086C37.3091 21.5014 37.5047 21.4538 37.3223 21.7646C37.14 22.0755 37.15 22.1134 37.3709 22.2313ZM38.1068 21.3608C38.1068 21.3608 38.187 21.4302 38.1754 21.5135C38.1638 21.5968 38.1741 21.663 38.2647 21.6638C38.3552 21.6646 38.4381 21.8178 38.4581 21.9716C38.4782 22.1254 38.3743 22.159 38.3221 22.1051C38.2699 22.0512 38.2837 21.8094 38.1123 21.8289C37.9409 21.8484 37.8391 21.9023 37.8038 21.7768C37.7684 21.6514 37.6782 21.3881 38.1068 21.3608Z" fill="#2E2E47"/>
<path d="M48.29 26.4571C48.2565 26.5951 48.1889 26.622 48.2779 26.7319C48.3646 26.8391 48.3269 26.9716 48.4656 27.0641C48.5064 26.9632 48.5461 26.8626 48.5845 26.7625C48.5735 26.7528 48.5643 26.7431 48.5578 26.7343C48.518 26.6803 48.5119 26.4022 48.6681 26.3405C48.6989 26.3284 48.7259 26.3203 48.75 26.3143C48.772 26.2524 48.7938 26.1908 48.8151 26.1293C48.7579 26.1171 48.6865 26.1106 48.6184 26.1044C48.4566 26.0898 48.3234 26.3191 48.29 26.4571Z" fill="#2E2E47"/>
<path d="M47.4613 29.1114C47.3953 29.1903 47.302 29.3479 47.3562 29.392C47.4488 29.2732 47.5331 29.147 47.6115 29.0145C47.5455 29.0439 47.5114 29.0516 47.4613 29.1114Z" fill="#2E2E47"/>
<path d="M46.8386 27.8486C47.0064 27.9794 47.1233 28.1165 47.2802 28.0382C47.4372 27.9599 47.4672 27.6554 47.5605 27.5447C47.6538 27.4339 47.5712 27.3756 47.5842 27.2531C47.5972 27.1305 47.705 26.856 47.5513 26.6581C47.3976 26.4603 47.3451 26.5724 47.3032 26.5155C47.2613 26.4586 47.2931 26.1882 46.9444 26.2875C46.9444 26.2875 46.5609 26.2956 46.4468 26.5508C46.3328 26.806 46.2451 26.687 46.1172 26.9125C45.9892 27.138 46.1704 27.0495 46.0574 27.3924C45.9444 27.7354 45.9621 27.7703 46.2028 27.838C46.4434 27.9057 46.6707 27.7179 46.8386 27.8486ZM46.5303 27.3007C46.4694 27.1857 46.326 26.9479 46.7392 26.8289C46.7392 26.8289 46.8321 26.8795 46.8382 26.9634C46.8444 27.0473 46.8683 27.1097 46.957 27.091C47.0457 27.0723 47.1587 27.2042 47.2106 27.3502C47.2625 27.4962 47.168 27.5514 47.1057 27.5099C47.0433 27.4685 47.0061 27.2292 46.8427 27.2851C46.6793 27.3411 46.5912 27.4157 46.5303 27.3007Z" fill="#2E2E47"/>
<path d="M45.4181 30.1832C45.4731 30.0811 45.5512 29.9568 45.6388 30.1423C45.6388 30.1423 45.6715 30.1695 45.8916 30.186C45.9747 30.1922 46.0288 30.2277 46.0701 30.2721C46.1283 30.263 46.1848 30.2487 46.2386 30.2277C46.3568 30.1816 46.4668 30.1295 46.5699 30.0722C46.5349 30.0493 46.5019 30.0292 46.4738 30.0119C46.3034 29.9067 46.2104 30.1301 46.1205 29.9517C46.0307 29.7732 45.8522 29.6493 45.8522 29.6493C45.7733 29.585 45.7315 29.7159 45.5282 29.8054C45.325 29.895 45.3157 29.73 45.1816 29.7913C45.0962 29.8303 45.1185 29.9439 45.1311 30.0617C45.2285 30.1098 45.3242 30.1506 45.4177 30.1841C45.4178 30.1838 45.418 30.1835 45.4181 30.1832Z" fill="#2E2E47"/>
<path d="M44.4343 28.5396C44.3918 28.5538 43.9921 28.6472 43.8347 28.5306C43.6773 28.414 43.7493 28.295 43.6026 28.2942C43.4559 28.2934 43.4314 28.6559 43.6213 28.7906C43.8113 28.9253 44.0738 28.9539 44.4492 28.9329C44.8245 28.9119 44.8371 28.7371 44.804 28.5747C44.771 28.4123 44.4343 28.5396 44.4343 28.5396Z" fill="#2E2E47"/>
<path d="M44.8451 28.104C44.7925 27.893 44.5857 27.9591 44.463 27.9316C44.3403 27.904 44.3453 27.7424 44.1554 27.6723C43.9655 27.6022 43.6675 27.646 43.6087 27.7774C43.5499 27.9088 43.5817 28.0755 43.6777 28.0847C43.7737 28.0939 44.0134 28.0265 44.0836 28.0302C44.1539 28.0339 44.1468 28.1827 44.3309 28.1627C44.3309 28.1627 44.5151 28.1424 44.5831 28.2561C44.6511 28.3698 44.8977 28.3151 44.8451 28.104Z" fill="#2E2E47"/>
<path d="M46.0711 28.9118C46.0726 28.9116 46.0741 28.9114 46.0756 28.9111C46.2263 28.8876 46.1842 29.0254 46.2162 29.0476C46.2482 29.0697 46.525 29.1595 46.5222 28.8173C46.5195 28.4751 46.2362 28.5041 46.036 28.6225C46.0139 28.6356 45.994 28.6486 45.9761 28.6614C45.86 28.7445 45.9303 28.932 46.0711 28.9118Z" fill="#2E2E47"/>
<path d="M45.8528 23.3694C46.0355 23.6873 46.6313 23.4461 46.6912 23.323C46.7511 23.2 46.7979 23.1273 46.9685 22.9743C47.1392 22.8213 47.065 22.8146 47.0156 22.6276C46.9664 22.4406 47.1424 22.4331 47.2626 22.2136C47.3828 21.9942 47.2473 21.6301 46.9674 21.619C46.6875 21.6078 46.6826 21.8896 46.6826 21.8896C46.6775 21.9335 46.7077 22.0097 46.7476 22.1859C46.7874 22.3622 46.6815 22.3106 46.5506 22.4395C46.4197 22.5684 46.6086 22.7844 46.4785 22.8663C46.3484 22.9482 46.2343 22.7654 46.1468 22.6087C46.0594 22.4521 45.9514 22.1674 46.0494 21.9138C46.1319 21.7007 46.2646 21.6809 46.2121 21.5506C45.9966 21.861 45.786 22.1896 45.5881 22.5142C45.6784 22.8533 45.6778 23.0648 45.8528 23.3694Z" fill="#2E2E47"/>
<path d="M48.2967 25.3365C48.3955 25.036 48.4587 24.8253 48.2091 24.5789C47.9595 24.3325 47.8627 24.3654 47.7436 24.264C47.6246 24.1626 47.5987 23.9826 47.3601 23.9937C47.1214 24.0048 47.0418 24.1531 47.0812 24.2026C47.1206 24.2521 47.2171 24.2928 47.2171 24.2928C47.2171 24.2928 47.3689 24.2183 47.4933 24.4652C47.6177 24.712 47.6912 24.6655 47.7647 24.7191C47.8381 24.7727 47.7524 25.0229 47.6769 25.0366C47.6014 25.0504 47.4472 24.6903 47.2745 24.7108C47.1019 24.7313 47.1249 24.6182 47.0727 24.4454C47.0205 24.2725 46.7781 24.2535 46.7176 24.3989C46.657 24.5444 46.9284 25.1989 47.164 25.2421C47.3995 25.2852 47.4701 25.353 47.5305 25.4569C47.5908 25.5607 48.1978 25.637 48.2967 25.3365Z" fill="#2E2E47"/>
<path d="M49.0666 23.2037C49.0666 23.0034 48.9631 22.811 48.9631 22.811C48.9215 22.7174 48.8256 22.8148 48.6044 22.8011C48.3832 22.7874 48.4488 22.6361 48.3019 22.6291C48.155 22.6221 48.1625 22.9005 48.0406 23.0136C47.9187 23.1267 47.824 23.2925 47.8236 23.5664C47.8232 23.8403 48.1188 23.8606 48.3679 23.9802C48.617 24.0999 48.7028 24.1501 48.8017 24.2503C48.9007 24.3504 49.1334 24.5079 49.407 24.22C49.4103 24.2165 49.4133 24.213 49.4165 24.2094C49.4551 24.0796 49.4936 23.9507 49.5319 23.8239C49.5064 23.6626 49.4125 23.5152 49.3544 23.4198C49.2496 23.2477 49.0666 23.4041 49.0666 23.2037ZM49.102 23.8886C49.02 23.9776 48.7745 23.9972 48.7548 23.9224C48.7351 23.8476 48.8208 23.6722 48.6646 23.5802C48.5085 23.4881 48.3753 23.5041 48.2681 23.3995C48.1609 23.2949 48.2421 23.1528 48.3369 23.0871C48.4317 23.0214 48.557 22.9466 48.5518 23.1521C48.5518 23.1521 48.5688 23.1914 48.7576 23.3073C48.9464 23.4232 48.862 23.6286 48.9397 23.7233C49.0175 23.818 49.1841 23.7997 49.102 23.8886Z" fill="#2E2E47"/>
<path d="M48.6967 21.4762C48.7517 21.3201 48.3988 21.2518 48.3988 21.2518C48.3551 21.2415 47.9657 21.111 47.891 20.9286C47.8163 20.7462 47.9389 20.6824 47.8139 20.6045C47.689 20.5267 47.4821 20.8236 47.5753 21.0387C47.6686 21.2537 47.8782 21.4162 48.2097 21.5957C48.5413 21.7752 48.6417 21.6324 48.6967 21.4762Z" fill="#2E2E47"/>
<path d="M48.735 20.7472C48.6443 20.6591 48.7314 20.5236 48.6051 20.3638C48.4788 20.204 48.2017 20.0847 48.084 20.1661C47.9664 20.2475 47.9081 20.4066 47.9854 20.4649C48.0627 20.5233 48.3021 20.5918 48.3602 20.6319C48.4184 20.6721 48.336 20.7955 48.5036 20.8752C48.5036 20.8752 48.6713 20.9548 48.6712 21.0877C48.6711 21.2206 48.9099 21.3035 48.9731 21.0955C49.0364 20.8876 48.8257 20.8353 48.735 20.7472Z" fill="#2E2E47"/>
<path d="M49.242 22.1136C49.2164 22.1132 49.1928 22.1138 49.1709 22.1153C49.0291 22.1252 48.993 22.3225 49.1236 22.3793C49.125 22.3799 49.1264 22.3805 49.1278 22.3811C49.2687 22.4403 49.162 22.5359 49.1781 22.5716C49.1941 22.6074 49.3845 22.8297 49.5577 22.5358C49.7308 22.2419 49.4739 22.1177 49.242 22.1136Z" fill="#2E2E47"/>
<path d="M46.3173 24.0897C46.3463 23.9661 46.2773 23.771 46.1542 23.8043C46.0311 23.8376 45.9977 23.811 45.9561 23.7866C45.9145 23.7622 45.6868 23.5656 45.5801 23.5944C45.4734 23.6232 45.2734 23.7597 45.4029 23.856C45.4029 23.856 45.4494 23.9325 45.5923 23.974C45.7351 24.0155 45.7483 24.1989 45.9562 24.1873C46.1641 24.1756 46.2883 24.2133 46.3173 24.0897Z" fill="#2E2E47"/>
<path d="M41.069 20.6543C41.0919 20.8105 41.6595 21.227 41.8829 21.14C41.9171 21.1267 41.9479 21.1162 41.9766 21.1077C41.8662 20.949 41.7591 20.7984 41.6569 20.6591C41.5566 20.7081 41.5125 20.6121 41.3963 20.5072C41.2631 20.3869 41.0462 20.4982 41.069 20.6543Z" fill="#2E2E47"/>
<path d="M41.2792 20.2953C41.3106 20.3068 41.3546 20.3076 41.3888 20.3058C41.3435 20.2486 41.2999 20.195 41.2582 20.1454C41.2283 20.2212 41.2451 20.2829 41.2792 20.2953Z" fill="#2E2E47"/>
<path d="M39.2324 20.131C39.2324 20.131 39.2377 20.2345 39.2557 20.4189C39.278 20.4164 39.3019 20.4124 39.3288 20.405C39.4722 20.3654 39.5775 20.5152 39.7492 20.3958C39.9209 20.2765 40.0464 20.2433 40.0078 20.1225C39.9692 20.0016 39.8101 19.8712 39.722 19.9644C39.6339 20.0576 39.5917 20.0525 39.5437 20.0535C39.518 20.0541 39.4216 20.0407 39.3258 20.0403C39.2659 20.0944 39.2324 20.131 39.2324 20.131Z" fill="#2E2E47"/>
<path d="M41.3396 23.1136C41.0617 23.1495 41.1029 23.4282 41.1029 23.4282C41.105 23.4723 41.1472 23.5425 41.2152 23.7096C41.2833 23.8767 41.1704 23.8436 41.0624 23.9926C40.9543 24.1416 41.1758 24.3231 41.0609 24.4257C40.9459 24.5282 40.8035 24.367 40.6917 24.2271C40.5799 24.0872 40.427 23.8245 40.4823 23.5581C40.5376 23.2916 40.7089 23.2836 40.5191 23.0946C40.3292 22.9056 40.0377 23.0044 39.8542 23.2661C39.8494 23.273 39.8451 23.2799 39.8409 23.2868C40.0111 23.8372 40.2281 24.4195 40.5043 24.9992C40.5114 25.0083 40.5182 25.0172 40.5258 25.0265C40.7578 25.3094 41.3061 24.9718 41.3451 24.8405C41.3842 24.7091 41.4184 24.6295 41.5618 24.4501C41.7052 24.2707 41.6308 24.2766 41.5517 24.1004C41.4726 23.9242 41.645 23.8873 41.7277 23.6507C41.8105 23.4142 41.6174 23.0778 41.3396 23.1136Z" fill="#2E2E47"/>
<path d="M42.3491 26.7859C42.5885 26.7891 42.6691 26.8441 42.7456 26.9364C42.8221 27.0288 43.4332 27.0025 43.4816 26.6896C43.53 26.3767 43.558 26.1583 43.2716 25.957C42.9852 25.7558 42.8951 25.8044 42.7612 25.7243C42.6272 25.6443 42.5724 25.4711 42.3388 25.5219C42.1052 25.5728 42.0509 25.7325 42.0979 25.7747C42.1448 25.8168 42.2466 25.8408 42.2466 25.8408C42.2466 25.8408 42.3842 25.742 42.5471 25.9647C42.7101 26.1873 42.775 26.1291 42.8562 26.1697C42.9374 26.2102 42.8937 26.4714 42.8215 26.4975C42.7492 26.5237 42.5384 26.1944 42.3714 26.2435C42.2045 26.2926 42.2087 26.1773 42.129 26.0155C42.0494 25.8537 41.8072 25.8755 41.7712 26.0291C41.7352 26.1827 42.1097 26.7828 42.3491 26.7859Z" fill="#2E2E47"/>
<path d="M45.8084 26.0603C46.0312 25.7306 45.7572 25.4321 45.6259 25.2799C45.4946 25.1277 45.3396 25.3125 45.3069 25.115C45.2741 24.9174 45.1407 24.745 45.1407 24.745C45.0844 24.6596 45.0057 24.7717 44.7853 24.7952C44.5649 24.8188 44.605 24.6586 44.4589 24.6762C44.3129 24.6939 44.3656 24.9673 44.2639 25.0992C44.1621 25.2311 44.0958 25.4105 44.1401 25.6807C44.1844 25.9509 44.4792 25.9215 44.7444 25.9978C45.0096 26.0741 45.1025 26.1093 45.2163 26.1915C45.3303 26.2737 45.5855 26.39 45.8084 26.0603ZM45.1166 25.8759C45.085 25.8054 45.1409 25.6182 44.9718 25.5535C44.8028 25.4888 44.6741 25.5269 44.5513 25.4417C44.4284 25.3565 44.4853 25.2027 44.5681 25.122C44.6509 25.0414 44.7623 24.9466 44.7907 25.1502C44.7907 25.1502 44.8139 25.1861 45.019 25.2688C45.2241 25.3515 45.1744 25.5682 45.2665 25.6486C45.3586 25.729 45.52 25.6831 45.4535 25.7845C45.3871 25.886 45.1483 25.9464 45.1166 25.8759Z" fill="#2E2E47"/>
<path d="M40.3115 21.4256C40.4771 21.399 40.5308 21.4522 40.5859 21.3701C40.6411 21.288 40.4675 21.2333 40.3125 21.1842C40.1575 21.1351 39.9793 21.3305 39.9176 21.4582C39.8559 21.5858 39.7842 21.5976 39.8481 21.7241C39.9119 21.8506 39.8418 21.9751 39.9706 22.0983C40.0994 22.2215 40.5405 22.2062 40.6624 22.0933C40.7844 21.9804 40.8404 21.7987 40.7143 21.5945C40.6558 21.4997 40.5938 21.4966 40.5442 21.5205C40.4847 21.5492 40.4515 21.6148 40.4571 21.6813C40.4647 21.7738 40.451 21.8968 40.3684 21.9239C40.2617 21.9588 40.1486 21.8479 40.1211 21.7866C40.0935 21.7253 40.1459 21.4523 40.3115 21.4256Z" fill="#2E2E47"/>
<path d="M42.758 23.1059C42.7029 23.1142 42.6522 23.1243 42.6057 23.1355C42.3038 23.2087 42.2964 23.6465 42.5979 23.7211C42.6011 23.7219 42.6043 23.7226 42.6076 23.7234C42.932 23.7994 42.7364 24.0442 42.7836 24.1153C42.8308 24.1864 43.32 24.5954 43.5881 23.8995C43.6188 23.8197 43.6377 23.747 43.6471 23.6805C43.5418 23.5109 43.4283 23.3289 43.3089 23.1394C43.1451 23.084 42.9449 23.0776 42.758 23.1059Z" fill="#2E2E47"/>
<path d="M41.326 25.7911C41.3344 25.6643 41.2345 25.4835 41.1185 25.5369C41.0025 25.5904 40.9653 25.5697 40.9203 25.5526C40.8978 25.5441 40.8224 25.5009 40.7401 25.4656C40.826 25.6256 40.9168 25.7846 41.0126 25.942C41.2001 25.9028 41.318 25.9121 41.326 25.7911Z" fill="#2E2E47"/>
<path d="M36.4982 38.9878C36.495 38.9878 36.4918 38.9875 36.4886 38.9868L33.864 38.4325C33.8389 38.4272 33.8228 38.4023 33.828 38.3769C33.8333 38.3515 33.858 38.3351 33.883 38.3405L36.5076 38.8948C36.5327 38.9 36.5488 38.925 36.5436 38.9504C36.539 38.9726 36.5197 38.9878 36.4982 38.9878Z" fill="white"/>
<path d="M37.4485 38.9878C37.4282 38.9878 37.4096 38.9742 37.4038 38.9535C37.3969 38.9285 37.4113 38.9025 37.4361 38.8955L41.1453 37.8436C41.17 37.8366 41.1957 37.8513 41.2026 37.8763C41.2095 37.9013 41.1951 37.9273 41.1704 37.9343L37.4611 38.9861C37.4569 38.9873 37.4527 38.9878 37.4485 38.9878Z" fill="white"/>
<path d="M37.8532 39.2011C37.8284 39.2011 37.8078 39.1812 37.8068 39.1559C37.8057 39.1299 37.8257 39.1081 37.8513 39.107C37.8756 39.106 40.2831 39.0065 40.6098 38.8962C40.6312 38.8889 40.6453 38.8827 40.6544 38.8778C40.5979 38.8448 40.4163 38.8003 40.2253 38.7742C40.1999 38.7707 40.1821 38.7471 40.1855 38.7213C40.1889 38.6955 40.2128 38.6775 40.2377 38.681C40.7482 38.7506 40.7567 38.8422 40.7595 38.8724C40.766 38.9426 40.6739 38.9737 40.6392 38.9854C40.3 39.1 37.9548 39.1969 37.8551 39.201C37.8545 39.2011 37.8538 39.2011 37.8532 39.2011Z" fill="white"/>
<path d="M32.7928 58.0203C32.792 58.0203 32.7912 58.0203 32.7904 58.0202C32.7648 58.0189 32.7451 57.9967 32.7464 57.9708C32.747 57.9597 32.8042 56.8481 32.9432 55.8064C32.9717 55.593 33.0038 55.3187 33.041 55.001C33.1895 53.731 33.414 51.8117 33.8284 50.0876C34.3572 47.8874 34.4611 47.2562 34.6834 44.892C34.9061 42.5247 35.9671 39.8175 35.9778 39.7904C35.9873 39.7662 36.0143 39.7545 36.0382 39.7642C36.062 39.7738 36.0736 39.8012 36.0641 39.8253C36.0534 39.8523 34.9972 42.5473 34.7759 44.9009C34.5554 47.2458 34.4433 47.9274 33.9187 50.1099C33.5056 51.8284 33.2815 53.7443 33.1332 55.0122C33.0961 55.3302 33.0639 55.6048 33.0353 55.819C32.8968 56.8567 32.8397 57.9646 32.8392 57.9757C32.8379 58.0007 32.8174 58.0203 32.7928 58.0203Z" fill="white"/>
<path d="M44.7229 57.3665C44.7001 57.3665 44.6802 57.3495 44.6769 57.326C44.6696 57.273 43.9409 52.0165 43.8803 50.8973L43.8663 50.6359C43.8056 49.4893 43.7223 47.919 43.481 46.8474C43.3458 46.2466 43.4351 45.8084 43.5297 45.3445C43.6206 44.8989 43.7146 44.438 43.6227 43.7818C43.5526 43.2812 43.4522 42.9422 43.3551 42.6144C43.1862 42.0441 43.0266 41.5053 43.0184 40.2061C43.0055 38.1777 41.4471 34.2256 41.4313 34.186C41.4218 34.1618 41.4333 34.1345 41.4571 34.1248C41.4809 34.1151 41.508 34.1268 41.5175 34.1509C41.5333 34.1907 43.0983 38.1592 43.1113 40.2055C43.1194 41.4912 43.2771 42.0237 43.4441 42.5874C43.5422 42.9186 43.6436 43.261 43.7147 43.7686C43.8088 44.4411 43.7132 44.91 43.6207 45.3636C43.5282 45.8172 43.4409 46.2456 43.5717 46.8265C43.8147 47.9059 43.8982 49.4809 43.9591 50.6309L43.9731 50.8922C44.0335 52.0074 44.7616 57.26 44.7689 57.3129C44.7725 57.3386 44.7548 57.3624 44.7294 57.366C44.7272 57.3663 44.725 57.3665 44.7229 57.3665Z" fill="white"/>
<path d="M48.0794 20.561C48.0794 20.561 48.8603 19.4568 48.96 19.3571C49.5543 18.7626 50.4055 18.8221 50.6037 18.6735C50.8018 18.5248 50.9412 18.5769 50.8899 18.7255C50.8385 18.8741 50.5377 19.0376 50.5377 19.0376C50.5377 19.0376 52.1741 18.9484 52.3942 19.0004C52.6143 19.0524 51.7778 19.2531 51.7778 19.2531C51.7778 19.2531 52.4602 19.1788 52.607 19.3274C52.7537 19.476 51.9466 19.5728 51.9466 19.5728C51.9466 19.5728 52.2621 19.5652 52.3502 19.6916C52.4382 19.8179 51.4696 19.8848 51.4696 19.8848C51.4696 19.8848 51.7044 19.9145 51.7484 20.0186C51.7925 20.1226 49.7378 20.2341 49.7378 20.2341C49.7378 20.2341 49.4883 21.3562 49.1288 21.4008C48.7692 21.4453 47.8079 20.8285 48.0794 20.561Z" fill="#FFA982"/>
</svg>
