<svg width="97" height="66" viewBox="0 0 97 66" fill="none" xmlns="http://www.w3.org/2000/svg">
<path d="M90.1772 60.4219C90.1772 60.4219 93.4202 47.3116 87.2913 43.8771C80.7703 40.2229 78.6337 46.0941 78.6337 46.0941C78.6337 46.0941 76.7132 34.4752 71.2255 31.6417C65.2562 28.5595 59.4704 31.9971 58.2047 36.728C58.2047 36.728 57.825 18.2456 44.4589 15.6365C35.4545 13.8788 22.3736 17.964 22.5562 36.728C22.5562 36.728 18.172 28.241 10.8156 30.7473C4.20842 32.9982 3.61143 43.5073 7.09431 52.6526C9.37265 58.635 11.3472 60.4219 11.3472 60.4219H90.1772Z" fill="#F2F0FF"/>
<path d="M86.648 16.1548H55.0813L66.494 14.3947C66.494 14.3947 66.5576 11.0002 70.3087 12.3832C70.3087 12.3832 70.6151 9.80585 73.5136 9.68014C76.4121 9.55444 76.2214 12.006 76.2214 12.006C76.2214 12.006 79.9089 9.61727 82.0705 11.9431C84.2322 14.269 80.7989 14.8976 80.7989 14.8976L86.648 16.1548ZM11.8319 9.16258H27.1774L21.0879 8.54856C21.0879 8.54856 21.8795 7.59683 19.9309 7.68947C19.9309 7.68947 20.1745 6.59333 18.3476 6.83039C18.3476 6.83039 18.2258 5.73558 15.9118 5.83305C13.5978 5.93051 14.633 7.24094 14.633 7.24094C14.633 7.24094 12.1972 6.3424 10.9184 7.24094C9.63964 8.13943 11.8319 9.16258 11.8319 9.16258Z" fill="#E4E0FF"/>
<path d="M90.8781 60.594H9.83256C9.74618 60.594 9.67615 60.5217 9.67615 60.4325C9.67615 60.3434 9.74618 60.2711 9.83256 60.2711H90.8781C90.9645 60.2711 91.0345 60.3434 91.0345 60.4325C91.0345 60.5217 90.9645 60.594 90.8781 60.594Z" fill="#C8C2ED"/>
<path d="M40.3363 28.1707L40.8369 25.6132L39.0243 26.3639V23.7828L40.8178 24.5565L40.1723 22.0082H42.4356L41.7796 24.5571L43.6164 23.7505V26.2389L41.8141 25.6043L42.2388 28.1707H40.3363Z" fill="#FFD4CD"/>
<path d="M40.8369 25.6132L39.0243 26.2611V26.3639L40.8369 25.6132ZM40.8178 24.5565L40.5392 24.4363L39.0243 23.7828V23.8899L40.8178 24.5565ZM41.7796 24.5571L42.4356 22.0082H42.1875L41.5092 24.6434L41.7796 24.5571ZM41.5521 25.521L41.9906 28.1707H42.2388L41.8141 25.6043L41.5521 25.521ZM43.3683 23.8595V26.1515L43.6164 26.2389V23.7505L43.3683 23.8595Z" fill="#F5B7AD"/>
<path d="M37.612 28.2398C37.1046 28.4763 36.889 29.0739 37.1317 29.5719C37.5177 30.3643 37.8479 31.1536 38.1229 31.9399C39.393 30.6544 40.4251 29.1201 40.9087 27.3774C39.8098 27.4403 38.7109 27.7276 37.612 28.2398Z" fill="#FFD4CD"/>
<path d="M45.1092 28.2315C43.709 27.582 42.3089 27.2975 40.9087 27.3775C40.4251 29.1202 39.393 30.6544 38.1229 31.94C38.6713 33.508 38.9992 35.0639 39.1063 36.6077H43.8297C43.8363 34.1553 44.4524 31.8159 45.5856 29.5722C45.837 29.0743 45.6205 28.4687 45.1092 28.2315Z" fill="#FFD4CD"/>
<path d="M45.1092 28.2315C45.0998 28.2272 45.0903 28.2232 45.081 28.2189C45.2961 28.5085 45.3455 28.9033 45.1719 29.2468C44.0387 31.4905 43.4227 33.8299 43.416 36.2824H39.0801C39.0898 36.3909 39.0987 36.4994 39.1063 36.6078H43.8296C43.8363 34.1554 44.4523 31.8159 45.5855 29.5723C45.837 29.0743 45.6204 28.4687 45.1092 28.2315Z" fill="#F5B7AD"/>
<path d="M44.3815 37.3337H38.5217C38.4288 37.3337 38.3398 37.2974 38.2741 37.2328C38.2084 37.1682 38.1715 37.0805 38.1715 36.9892V36.9522C38.1715 36.8608 38.2084 36.7732 38.2741 36.7086C38.3398 36.644 38.4288 36.6077 38.5217 36.6077H44.3815C44.4744 36.6077 44.5635 36.644 44.6291 36.7086C44.6948 36.7732 44.7317 36.8608 44.7317 36.9522V36.9892C44.7317 37.0805 44.6948 37.1682 44.6291 37.2328C44.5635 37.2974 44.4744 37.3337 44.3815 37.3337Z" fill="#FFD4CD"/>
<path d="M44.4216 37.1302H38.4817C38.3255 37.1302 38.1967 37.0167 38.175 36.869C38.1728 36.8835 38.1716 36.8981 38.1715 36.9128V37.0285C38.1715 37.1095 38.2042 37.1871 38.2624 37.2443C38.3205 37.3015 38.3994 37.3337 38.4817 37.3337H44.4216C44.4623 37.3337 44.5026 37.3258 44.5403 37.3104C44.5779 37.2951 44.6121 37.2726 44.6409 37.2443C44.6697 37.216 44.6925 37.1823 44.7081 37.1453C44.7237 37.1083 44.7317 37.0686 44.7317 37.0285V36.9128C44.7317 36.8979 44.7303 36.8833 44.7282 36.869C44.7065 37.0167 44.5777 37.1302 44.4216 37.1302Z" fill="#F5B7AD"/>
<path d="M45.7709 39.4631H37.0995C36.5322 39.4631 36.0723 39.0107 36.0723 38.4527V38.3442C36.0723 37.7861 36.5322 37.3337 37.0995 37.3337H45.7709C46.3383 37.3337 46.7982 37.7861 46.7982 38.3442V38.4527C46.7982 39.0107 46.3383 39.4631 45.7709 39.4631Z" fill="#FFD4CD"/>
<path d="M45.8883 39.1783H36.9821C36.4796 39.1783 36.0723 38.7776 36.0723 38.2833V38.5681C36.0723 39.0624 36.4796 39.463 36.9821 39.463H45.8883C46.3908 39.463 46.7982 39.0624 46.7982 38.5681V38.2833C46.7982 38.7776 46.3908 39.1783 45.8883 39.1783Z" fill="#F5B7AD"/>
<path d="M46.1257 56.7889H36.7938C38.915 51.1427 39.7678 45.4965 39.3523 39.8503H43.6164C43.2611 45.4965 44.0975 51.1427 46.1257 56.7889Z" fill="#FFD4CD"/>
<path d="M46.1257 56.7889H36.7938C38.915 51.1427 39.7678 45.4965 39.3523 39.8503H43.6164C43.2611 45.4965 44.0975 51.1427 46.1257 56.7889Z" fill="#FFD4CD"/>
<path d="M43.6164 39.8503H43.1845C42.8809 45.388 43.7229 50.9257 45.7121 56.4634H36.9138C36.874 56.5719 36.8346 56.6804 36.7938 56.7889H46.1257C44.0975 51.1427 43.2611 45.4965 43.6164 39.8503Z" fill="#F5B7AD"/>
<path d="M48.6022 58.2408H34.2845V58.1668C34.2845 57.4058 34.9117 56.7889 35.6854 56.7889H47.2014C47.975 56.7889 48.6022 57.4058 48.6022 58.1668V58.2408Z" fill="#FFD4CD"/>
<path d="M34.2859 57.956C34.2851 57.9737 34.2845 57.9914 34.2845 58.0093V58.2407H48.6022V58.0093C48.6022 57.9914 48.6016 57.9737 48.6009 57.956H34.2859Z" fill="#F5B7AD"/>
<path d="M50.0783 60.3218H32.8578V59.6155C32.8578 58.8562 33.4836 58.2407 34.2555 58.2407H48.6806C49.4526 58.2407 50.0783 58.8562 50.0783 59.6155V60.3218Z" fill="#FFD4CD"/>
<path d="M32.8578 59.915H50.0783V60.3218H32.8578V59.915Z" fill="#F5B7AD"/>
<path d="M45.1126 40.2374H37.7907C37.6916 40.2374 37.5966 40.1987 37.5265 40.1298C37.4565 40.0609 37.4171 39.9675 37.4171 39.87V39.8306C37.4171 39.7331 37.4565 39.6397 37.5265 39.5708C37.5966 39.5018 37.6916 39.4631 37.7907 39.4631H45.1126C45.2117 39.4631 45.3067 39.5018 45.3767 39.5708C45.4468 39.6397 45.4862 39.7331 45.4862 39.8306V39.87C45.4862 39.9675 45.4468 40.0609 45.3767 40.1298C45.3067 40.1987 45.2117 40.2374 45.1126 40.2374Z" fill="#FFD4CD"/>
<path d="M45.1553 40.034H37.748C37.6673 40.034 37.5894 40.0049 37.529 39.9524C37.4686 39.8998 37.4298 39.8273 37.4199 39.7485C37.4181 39.7618 37.4172 39.7751 37.4171 39.7885V39.912C37.4171 39.9983 37.452 40.0811 37.514 40.1421C37.5761 40.2031 37.6602 40.2374 37.748 40.2374H45.1553C45.2431 40.2374 45.3272 40.2031 45.3893 40.1421C45.4513 40.0811 45.4862 39.9983 45.4862 39.912V39.7885C45.4862 39.775 45.4851 39.7617 45.4834 39.7485C45.4735 39.8273 45.4347 39.8998 45.3743 39.9524C45.3139 40.0049 45.236 40.034 45.1553 40.034Z" fill="#F5B7AD"/>
<path d="M19.9411 28.5068C19.9411 28.5068 19.9843 28.7708 20.0872 29.1399C19.8077 29.1028 19.5343 29.0305 19.2735 28.925L19.2245 28.6499L19.9411 28.5068Z" fill="#ED7E94"/>
<path d="M19.5676 27.6237C19.8003 27.1201 20.5677 27.2232 20.9244 26.7888L21.5615 27.436L21.2677 27.6238C21.4007 27.9492 21.485 28.2752 21.4101 28.4794C21.4089 28.4827 21.4081 28.4865 21.4068 28.4898C21.299 28.759 20.7349 28.7954 20.2072 28.7664C19.7773 28.5103 19.3974 28.084 19.5676 27.6237Z" fill="#FF96A9"/>
<path d="M18.2963 27.4645C18.2963 27.4645 19.3385 25.8306 20.7065 26.5675L20.9243 26.7888C20.5676 27.2232 19.8003 27.1201 19.5675 27.6237C19.3974 28.0839 19.7773 28.5103 20.2072 28.7664C19.6989 28.7384 19.2245 28.6499 19.2245 28.6499L18.2963 27.4645Z" fill="#ED7E94"/>
<path d="M19.4851 27.2563C19.4851 27.2563 21.309 27.016 22.4653 24.8535C22.4653 24.8535 19.8434 24.9175 17.6449 27.0961C17.6449 27.0961 17.9543 28.1213 19.2246 28.6498L19.0617 27.6887C19.0617 27.6887 18.6383 27.4805 18.8337 27.1921C19.0291 26.9039 19.4851 27.2563 19.4851 27.2563ZM17.4709 40.1344C17.5263 39.9364 17.5843 39.7391 17.6449 39.5425C17.6449 39.5425 20.7554 38.3892 22.1477 39.7107C22.1477 39.7107 22.268 40.0951 22.4589 40.7744C20.8705 41.5945 18.8879 41.1843 17.4709 40.1344Z" fill="#322666"/>
<path d="M16.9979 59.2244C16.7198 57.5279 15.2977 47.8922 17.4709 40.1345C18.8879 41.1844 20.8706 41.5945 22.4589 40.7745C23.3043 43.7833 25.5368 52.5858 24.8592 59.4858C24.8592 59.4858 22.3353 55.6199 20.9115 50.2344C20.6226 48.151 20.6884 46.0048 20.6576 43.9157C19.3444 48.9995 18.6548 54.2276 16.9979 59.2244Z" fill="#3F327A"/>
<path d="M20.6577 43.9156C20.6885 46.0047 20.6226 48.151 20.9115 50.2343C20.678 49.3509 20.474 48.4266 20.3157 47.4718C20.3157 47.4718 19.7294 54.8415 17.0423 59.4858C17.0423 59.4858 17.0258 59.3951 16.9979 59.2244C18.6549 54.2276 19.3444 48.9994 20.6577 43.9156Z" fill="#322666"/>
<path d="M22.2699 31.1328C21.431 31.2197 20.5524 30.757 20.3188 29.9577L22.3432 30.0756C22.3432 30.0756 24.7127 33.4635 23.5402 36.0345L22.848 36.6745C23.0542 34.8195 22.7967 32.9266 22.2699 31.1328Z" fill="#F6DEF8"/>
<path d="M18.166 35.1214C18.3316 33.7365 18.5683 32.3517 18.8743 30.9668L19.4526 29.9314H19.8675L20.3188 29.9577C20.5524 30.7569 21.431 31.2196 22.2699 31.1328C22.6544 32.4418 22.8943 33.8035 22.9163 35.1648C21.3325 35.2496 19.7633 35.158 18.166 35.1214Z" fill="#FEF2FE"/>
<path d="M17.3713 36.2162C17.325 34.8335 17.3886 33.4347 17.7752 32.9348L18.8743 30.9667C18.5683 32.3516 18.3317 33.7365 18.166 35.1214C19.7634 35.1579 21.3325 35.2495 22.9163 35.1649C22.9208 35.4391 22.9162 35.7135 22.9026 35.9874C21.1061 36.5481 19.2339 36.3167 17.3713 36.2162Z" fill="#F6DEF8"/>
<path d="M18.6057 38.6295C18.0591 37.9263 18.0552 37.0808 17.8778 36.2461C19.5726 36.3522 21.269 36.4974 22.9026 35.9875C22.8914 36.217 22.8732 36.4461 22.848 36.6745L22.6598 36.8486C22.6598 36.8486 22.1234 38.5575 22.1478 39.7108C22.1478 39.7108 21.739 40.0988 21.0104 40.2964C20.0729 39.9919 19.2271 39.4799 18.6057 38.6295Z" fill="#FEF2FE"/>
<path d="M17.8777 36.246C18.0551 37.0808 18.059 37.9263 18.6056 38.6295C19.2271 39.4799 20.0728 39.9919 21.0103 40.2963C20.2239 40.5095 19.065 40.5008 17.6448 39.5425C17.6448 39.5425 17.4273 37.8912 17.3712 36.2161C17.54 36.2253 17.7089 36.2355 17.8777 36.246Z" fill="#F6DEF8"/>
<path d="M20.9031 32.0184C20.9096 31.9491 20.9129 31.9117 20.9129 31.9117C21.9649 34.0081 22.7678 39.6427 22.7678 39.6427L20.9298 42.3807C21.681 38.9902 21.5233 35.4236 20.9031 32.0184Z" fill="#E5649A"/>
<path d="M19.3967 40.0511C20.2767 38.4088 20.8246 32.8562 20.9031 32.0184C21.5234 35.4237 21.6811 38.9903 20.9298 42.3808L20.9129 42.4059L19.3967 40.0511Z" fill="#DB4A87"/>
<path d="M19.0057 30.0264C16.6213 31.66 15.4239 34.6229 15.3812 37.4762C17.6131 37.4076 19.8447 37.1175 22.041 36.6256C22.0463 36.7677 22.0388 36.91 22.0157 37.0511C18.6751 38.0176 14.8926 37.8606 14.8926 37.8606C15.4707 31.7575 17.9741 30.349 19.0057 30.0264Z" fill="#F6DEF8"/>
<path d="M19.0057 30.0264C19.2818 29.94 19.4525 29.9314 19.4525 29.9314L17.6449 35.7462C18.176 35.8618 20.0755 35.6614 21.7286 35.45C21.9059 35.8209 22.0261 36.2228 22.0411 36.6257C19.8447 37.1175 17.6131 37.4076 15.3812 37.4762C15.4239 34.6229 16.6213 31.6599 19.0057 30.0264Z" fill="#FEF2FE"/>
<path d="M22.041 36.6256C22.2071 36.5884 22.373 36.5503 22.5386 36.5108C22.5401 36.6402 22.5317 36.7695 22.5133 36.8976C22.3484 36.9518 22.1826 37.003 22.0158 37.0511C22.0388 36.91 22.0464 36.7677 22.041 36.6256Z" fill="#F6DEF8"/>
<path d="M21.7286 35.4499C21.9259 35.4247 22.1199 35.3993 22.3075 35.3743C22.4486 35.7323 22.5349 36.1243 22.5386 36.5108C22.373 36.5502 22.2072 36.5885 22.041 36.6256C22.026 36.2228 21.9059 35.8209 21.7286 35.4499Z" fill="#F5DDF5"/>
<path d="M22.3075 35.3742C23.0124 35.2802 23.7165 35.1799 24.4196 35.0734L23.8282 36.1786C23.4004 36.297 22.9705 36.4077 22.5386 36.5108C22.535 36.1243 22.4486 35.7322 22.3075 35.3742Z" fill="#FF96A9"/>
<path d="M22.5386 36.5108C22.9705 36.4077 23.4004 36.297 23.8281 36.1786L23.6867 36.4429C23.3107 36.614 22.9168 36.7646 22.5132 36.8975C22.5318 36.7702 22.5399 36.6408 22.5386 36.5108Z" fill="#ED7E94"/>
<path d="M20.5607 30.3479L20.6576 31.1488C20.6576 31.1488 20.1039 30.9405 19.4525 29.9314L19.2734 28.9249C19.5342 29.0304 19.8077 29.1027 20.0871 29.1399C20.1854 29.4924 20.3383 29.9409 20.5607 30.3479Z" fill="#FF96A9"/>
<path d="M21.4386 28.6499C22.0928 28.89 22.6588 29.3405 23.1474 29.9173C23.0788 30.3326 22.8698 30.7348 22.5858 31.0708C22.4096 30.5901 22.2699 30.2918 22.2699 30.2918C22.2699 30.2918 22.1233 30.5561 21.4386 30.6762C20.0463 30.9205 20.4133 28.2734 21.4386 28.6499Z" fill="#FF96A9"/>
<path d="M22.7372 31.5063C22.6891 31.3603 22.6386 31.2152 22.5858 31.0708C22.8697 30.7348 23.0787 30.3326 23.1474 29.9173C23.2641 30.0557 23.3751 30.1986 23.48 30.3457C23.3675 30.7925 23.1024 31.2309 22.7372 31.5063Z" fill="#F5DDF5"/>
<path d="M22.9398 36.5506C23.0493 36.3264 23.1689 35.9337 23.2549 35.2439C23.4166 33.9464 23.0644 32.4994 22.7372 31.5063C23.1024 31.2309 23.3675 30.7925 23.4801 30.3457C24.5289 31.8097 25.1744 33.8459 25.5465 35.4111C25.5509 36.0623 25.4771 36.709 25.299 37.3319C24.4731 37.1554 23.674 36.9264 22.9398 36.5506Z" fill="#FEF2FE"/>
<path d="M22.9398 36.5506C23.674 36.9264 24.4731 37.1555 25.2989 37.332C25.4771 36.709 25.5509 36.0623 25.5465 35.4112C25.8643 36.7474 25.9829 37.7405 25.9829 37.7405C24.3218 38.1009 22.6597 36.8486 22.6597 36.8486C22.6597 36.8486 22.7903 36.8568 22.9398 36.5506Z" fill="#F6DEF8"/>
<path d="M24.4496 58.8097L23.5401 60.2306H29.2806L24.4496 58.8097ZM17.4095 58.8097L18.6057 60.2306H12.7186L17.4095 58.8097Z" fill="#322666"/>
<path d="M20.719 31.2289L21.2076 31.6979L20.9633 32.3462L20.452 31.7665L20.719 31.2289Z" fill="#DB4A87"/>
<path d="M20.719 31.2289L20.0871 32.3462L19.0942 30.0876L20.0551 32.5656L20.719 31.2289ZM20.719 31.2289L21.7263 32.196L21.25 30.7423L21.5859 31.9317L20.719 31.2289Z" fill="#F6DEF8"/>
<path d="M22.2135 36.7683C22.2132 36.7808 22.2155 36.7932 22.2202 36.8048C22.2248 36.8165 22.2318 36.8271 22.2407 36.836C22.2496 36.8449 22.2602 36.852 22.2719 36.8569C22.2836 36.8617 22.2962 36.8642 22.3089 36.8642C22.3216 36.8642 22.3341 36.8617 22.3458 36.8569C22.3575 36.852 22.3682 36.8449 22.377 36.836C22.3859 36.8271 22.3929 36.8165 22.3975 36.8048C22.4022 36.7932 22.4045 36.7808 22.4042 36.7683C22.4036 36.7438 22.3933 36.7205 22.3755 36.7034C22.3577 36.6862 22.3338 36.6766 22.3089 36.6766C22.2839 36.6766 22.26 36.6862 22.2422 36.7034C22.2244 36.7205 22.2141 36.7438 22.2135 36.7683Z" fill="#FEF2FE"/>
<path d="M18.7111 34.1843H20.3902C20.4161 34.1843 20.4409 34.1742 20.4593 34.1562C20.4776 34.1381 20.4879 34.1137 20.4879 34.0882C20.4879 34.0627 20.4776 34.0382 20.4593 34.0202C20.4409 34.0022 20.4161 33.9921 20.3902 33.9921H18.7111C18.6852 33.9921 18.6604 34.0022 18.642 34.0202C18.6237 34.0382 18.6134 34.0627 18.6134 34.0882C18.6134 34.1137 18.6237 34.1381 18.642 34.1562C18.6604 34.1742 18.6852 34.1843 18.7111 34.1843Z" fill="#F6DEF8"/>
<path d="M17.3713 42.4779C17.3827 42.4779 17.3942 42.4754 17.4049 42.4699L19.1279 41.5928C19.1452 41.5841 19.1582 41.5689 19.164 41.5507C19.1699 41.5325 19.1682 41.5127 19.1593 41.4957C19.1504 41.4787 19.1349 41.466 19.1164 41.4602C19.0979 41.4544 19.0778 41.4561 19.0605 41.4649L17.3376 42.3419C17.323 42.3493 17.3113 42.3613 17.3045 42.376C17.2977 42.3907 17.2961 42.4073 17.3 42.423C17.3039 42.4387 17.313 42.4526 17.326 42.4626C17.3389 42.4726 17.3549 42.478 17.3713 42.4779Z" fill="#322666"/>
<path d="M70.8226 35.3739L70.8206 35.3723C70.8206 35.3723 71.6657 39.8056 70.8206 41.7056L71.6723 43.0664C72.279 40.5317 72.1971 37.631 70.8226 35.3739Z" fill="#E5649A"/>
<path d="M70.8226 35.3738C72.1971 37.631 72.279 40.5317 71.6724 43.0663L71.6842 43.0853L73.1701 41.8761C73.1701 41.8761 73.5315 37.4853 70.8226 35.3738Z" fill="#DB4A87"/>
<path d="M71.1766 34.0303C71.0455 33.8456 70.7983 33.6016 70.5426 33.3702C70.4754 33.5781 70.4121 33.7849 70.3383 33.9872C70.463 34.1691 70.5674 34.3573 70.6194 34.5327C70.8144 35.1904 71.5202 34.5145 71.1766 34.0303Z" fill="#4932AB"/>
<path d="M63.939 37.1299C64.015 37.5639 64.9215 38.1406 65.3887 38.1227C65.3887 38.1227 65.5226 38.2573 65.7459 38.4732C65.7779 38.3212 65.8266 38.1726 65.8871 38.0275C65.6967 37.8163 65.5206 37.593 65.36 37.3591C64.9386 37.6256 64.2842 37.5016 63.939 37.1299Z" fill="#ED7E94"/>
<path d="M66.078 37.2254C66.078 37.2254 66.3691 36.6719 66.078 36.4619C65.7869 36.252 66.4273 35.2675 66.3109 35.2539C66.1944 35.2403 65.8799 34.9723 65.6005 35.9271C65.3211 36.8819 63.9636 36.6146 63.9341 37.0537C63.9327 37.0792 63.9343 37.1048 63.939 37.1299C64.2842 37.5016 64.9387 37.6255 65.36 37.3591C65.5206 37.5931 65.6967 37.8164 65.8871 38.0276C65.9873 37.787 66.1201 37.5564 66.264 37.3369L66.078 37.2254Z" fill="#FF96A9"/>
<path d="M66.1661 57.0515H57.7825C59.6881 51.3486 61.3383 45.6457 60.965 39.9429H63.0277C62.7086 45.6457 64.344 51.3486 66.1661 57.0515Z" fill="#3F327A"/>
<path d="M63.0277 39.9428H62.5857C62.3402 45.5439 63.9495 51.145 65.7391 56.746H57.8842C57.8504 56.8478 57.8165 56.9496 57.7825 57.0514H66.1661C64.344 51.3486 62.7085 45.6457 63.0277 39.9428Z" fill="#322666"/>
<path d="M68.3835 58.3558H55.5208V58.2597C55.5208 57.5924 56.0707 57.0515 56.7491 57.0515H67.1552C67.8336 57.0515 68.3835 57.5924 68.3835 58.2597L68.3835 58.3558Z" fill="#3F327A"/>
<path d="M55.536 58.0122C55.5259 58.0732 55.5208 58.135 55.5208 58.1968V58.3558H68.3835V58.1968C68.3835 58.1339 68.3781 58.0723 68.3682 58.0122H55.536Z" fill="#322666"/>
<path d="M69.7096 60.2253H54.2389V59.7039C54.2389 58.9594 54.8525 58.3558 55.6095 58.3558H68.339C69.0959 58.3558 69.7096 58.9593 69.7096 59.7039V60.2253Z" fill="#3F327A"/>
<path d="M54.2389 59.8436H69.7096V60.2254H54.2389V59.8436Z" fill="#322666"/>
<path d="M61.9742 38.5773C63.8599 38.5773 65.3886 37.0737 65.3886 35.2188C65.3886 33.364 63.8599 31.8604 61.9742 31.8604C60.0885 31.8604 58.5598 33.364 58.5598 35.2188C58.5598 37.0737 60.0885 38.5773 61.9742 38.5773Z" fill="#3F327A"/>
<path d="M61.9743 31.8604C61.9096 31.8604 61.8449 31.8622 61.7803 31.8659C63.5757 31.9649 65.0006 33.4281 65.0006 35.2189C65.0006 37.0097 63.5757 38.4729 61.7803 38.5719C61.8445 38.5754 61.9092 38.5774 61.9743 38.5774C63.86 38.5774 65.3887 37.0738 65.3887 35.2189C65.3887 33.364 63.86 31.8604 61.9743 31.8604Z" fill="#322666"/>
<path d="M65.1094 39.2254H58.8909C58.8099 39.2254 58.7323 39.1938 58.6751 39.1375C58.6178 39.0812 58.5857 39.0049 58.5857 38.9253V38.8775C58.5857 38.7979 58.6178 38.7215 58.6751 38.6652C58.7323 38.609 58.8099 38.5773 58.8909 38.5773H65.1094C65.1904 38.5773 65.268 38.609 65.3252 38.6652C65.3824 38.7215 65.4146 38.7979 65.4146 38.8775V38.9253C65.4146 39.0049 65.3824 39.0812 65.3252 39.1375C65.268 39.1938 65.1904 39.2254 65.1094 39.2254Z" fill="#3F327A"/>
<path d="M65.1253 38.9963H58.8749C58.8116 38.9963 58.7499 38.9758 58.6996 38.9379C58.6492 38.9001 58.6129 38.847 58.5962 38.7869C58.5893 38.8113 58.5858 38.8365 58.5857 38.8619V38.9409C58.5857 39.0164 58.6162 39.0887 58.6704 39.1421C58.7247 39.1954 58.7982 39.2254 58.8749 39.2254H65.1253C65.202 39.2254 65.2756 39.1954 65.3298 39.1421C65.3841 39.0887 65.4145 39.0164 65.4145 38.9409V38.8619C65.4145 38.8359 65.4107 38.8108 65.4041 38.7869C65.3874 38.847 65.351 38.9001 65.3007 38.9379C65.2503 38.9758 65.1887 38.9963 65.1253 38.9963Z" fill="#322666"/>
<path d="M63.946 39.9428H60.0025C59.9581 39.9428 59.9142 39.9342 59.8732 39.9175C59.8322 39.9008 59.795 39.8763 59.7636 39.8455C59.7322 39.8146 59.7074 39.778 59.6904 39.7377C59.6734 39.6974 59.6647 39.6542 59.6647 39.6105V39.5577C59.6647 39.4695 59.7003 39.385 59.7636 39.3227C59.827 39.2604 59.9129 39.2254 60.0025 39.2254H63.946C64.0356 39.2254 64.1215 39.2604 64.1848 39.3227C64.2482 39.385 64.2838 39.4695 64.2838 39.5577V39.6105C64.2838 39.6542 64.275 39.6974 64.2581 39.7377C64.2411 39.778 64.2162 39.8146 64.1848 39.8455C64.1535 39.8763 64.1162 39.9008 64.0752 39.9175C64.0343 39.9342 63.9903 39.9428 63.946 39.9428Z" fill="#3F327A"/>
<path d="M63.9636 39.7138H59.9849C59.9125 39.7137 59.8423 39.6896 59.7857 39.6452C59.7291 39.6009 59.6894 39.539 59.6731 39.4696C59.6676 39.4928 59.6648 39.5166 59.6647 39.5404V39.6278C59.6647 39.6692 59.673 39.7102 59.689 39.7484C59.7051 39.7866 59.7287 39.8213 59.7585 39.8505C59.7882 39.8798 59.8235 39.903 59.8623 39.9188C59.9012 39.9347 59.9428 39.9428 59.9849 39.9428H63.9636C64.0485 39.9428 64.1299 39.9096 64.19 39.8505C64.25 39.7915 64.2838 39.7114 64.2838 39.6278V39.5404C64.2838 39.516 64.2807 39.4924 64.2754 39.4696C64.2591 39.539 64.2195 39.6009 64.1628 39.6452C64.1062 39.6896 64.036 39.7137 63.9636 39.7138Z" fill="#322666"/>
<path d="M62.8747 31.4045C63.1827 30.9142 63.0284 30.2712 62.53 29.9683C62.0316 29.6653 61.3779 29.8172 61.0699 30.3074C60.7619 30.7977 60.9162 31.4407 61.4146 31.7436C61.913 32.0465 62.5668 31.8947 62.8747 31.4045Z" fill="#3F327A"/>
<path d="M62.6209 30.0337C62.7639 30.2159 62.8413 30.4396 62.841 30.6698C62.841 31.246 62.3661 31.7132 61.7802 31.7132C61.5367 31.7132 61.3126 31.6324 61.1335 31.4967C61.3275 31.7444 61.6318 31.9041 61.9742 31.9041C62.5601 31.9041 63.0351 31.4369 63.0351 30.8606C63.0351 30.5238 62.8727 30.2245 62.6209 30.0337Z" fill="#322666"/>
<path d="M59.6647 38.5774L57.0568 33.8342C57.0568 33.8342 59.5764 36.6747 62.0001 33.8342C62.0001 33.8342 63.7165 36.5878 66.457 33.8342L64.4827 38.5774H59.6647Z" fill="#3F327A"/>
<path d="M63.9871 35.0553C62.726 34.9979 62.0001 33.8342 62.0001 33.8342C61.9648 33.8755 61.9288 33.9163 61.8923 33.9565C62.133 34.2756 62.8702 35.1059 63.9871 35.0553ZM66.1385 34.1332L64.2886 38.5774H64.4826L66.457 33.8341C66.3543 33.9373 66.2481 34.0371 66.1385 34.1332ZM59.5427 35.0943C58.1267 35.0398 57.0568 33.8342 57.0568 33.8342L57.2617 34.2069C57.7285 34.5918 58.5637 35.1311 59.5427 35.0943Z" fill="#322666"/>
<path d="M62.0001 34.1014C62.0001 34.1014 63.6393 36.7298 66.2713 34.2803L66.457 33.8341C63.7165 36.5877 62.0001 33.8341 62.0001 33.8341C59.5764 36.6747 57.0568 33.8341 57.0568 33.8341L57.3677 34.3997C58.1138 35.0458 60.0867 36.3439 62.0001 34.1014Z" fill="#322666"/>
<path d="M64.8391 41.6892H59.2051C58.751 41.6892 58.3828 41.327 58.3828 40.8803V40.7517C58.3828 40.3049 58.751 39.9428 59.2051 39.9428H64.8391C65.2932 39.9428 65.6614 40.3049 65.6614 40.7517V40.8803C65.6614 41.327 65.2932 41.6892 64.8391 41.6892Z" fill="#3F327A"/>
<path d="M64.8819 41.3837H59.1623C58.7477 41.3837 58.4096 41.0651 58.3852 40.6632C58.3843 40.6786 58.3828 40.6939 58.3828 40.7095V40.9224C58.3828 41.3458 58.7318 41.6891 59.1623 41.6891H64.8819C65.3124 41.6891 65.6614 41.3458 65.6614 40.9224V40.7095C65.6614 40.6939 65.6599 40.6786 65.659 40.6632C65.6346 41.0651 65.2965 41.3837 64.8819 41.3837ZM58.3828 35.6029L59.8614 38.3517L59.3439 35.7811C59.3439 35.7811 58.9355 35.9651 58.3828 35.6029ZM65.2666 35.5417L64.0522 38.413L64.3933 35.7875C64.3933 35.7875 64.7503 35.9525 65.2666 35.5417ZM60.9134 35.6538L62.0843 38.4732L62.9397 35.6538C62.9397 35.6538 62.237 36.4683 60.9134 35.6538Z" fill="#322666"/>
<path d="M66.2639 37.3369C66.0333 37.6888 65.831 38.0693 65.7458 38.4732C65.8629 38.5863 65.9806 38.6986 66.0991 38.8103C66.1593 38.3578 66.3249 37.9173 66.5696 37.5201L66.2639 37.3369Z" fill="#FEF2FE"/>
<path d="M71.6025 37.7245C72.0656 36.2583 72.3504 34.6852 71.9598 33.6101C71.9598 33.6101 71.138 33.3066 70.6583 33.5386C70.1786 33.7705 69.4741 39.2604 69.4741 39.2604L66.5697 37.5201C66.4091 37.7808 66.2828 38.0603 66.1978 38.3495C67.1896 39.3124 68.4612 39.9582 69.8234 40.3369C70.4298 39.4711 71.046 38.6149 71.6025 37.7245Z" fill="#634AC9"/>
<path d="M69.8234 40.3369C68.4611 39.9582 67.1896 39.3124 66.1977 38.3494C66.1531 38.5004 66.1201 38.6544 66.0991 38.8102C67.1592 39.8097 69.1216 41.5509 69.9704 41.5938C69.9704 41.5938 70.9588 39.7624 71.6025 37.7245C71.0459 38.6149 70.4298 39.4711 69.8234 40.3369Z" fill="#4932AB"/>
<path d="M69.9347 32.8494C69.9565 33.0696 69.9796 33.2944 69.9666 33.517C70.0917 33.6583 70.2237 33.8201 70.3383 33.9872C70.4121 33.785 70.4755 33.5781 70.5427 33.3703C70.3237 33.1722 70.0985 32.9834 69.9347 32.8494Z" fill="#FF96A9"/>
<path d="M69.6907 32.6533C69.6907 32.6533 69.7884 32.7297 69.9347 32.8494C69.9565 33.0696 69.9795 33.2944 69.9666 33.517C69.7173 33.2353 69.4957 33.0347 69.4957 33.0347C69.0314 32.5871 69.6907 32.6533 69.6907 32.6533Z" fill="#ED7E94"/>
<path d="M69.31 32.8245C69.4786 32.9075 69.5992 33.1082 69.6314 33.3329C69.5504 33.6723 69.4307 33.9207 69.4307 33.9207L68.7713 33.5736L68.5392 33.8476L68.0614 33.2142C68.4891 32.8992 68.8995 32.6003 69.31 32.8245Z" fill="#FF96A9"/>
<path d="M69.31 32.8245C68.8996 32.6002 68.4891 32.8992 68.0614 33.2142L67.8984 32.9981C68.0935 31.7467 69.4307 31.6096 69.6443 32.3221C69.7449 32.6575 69.7034 33.0312 69.6314 33.333C69.5992 33.1081 69.4787 32.9075 69.31 32.8245Z" fill="#ED7E94"/>
<path d="M69.05 32.4135C69.05 32.4135 67.7777 33.5188 66.6075 33.6376C66.6075 33.6376 67.4805 31.4087 69.1521 30.7145C69.1521 30.7145 69.9734 31.6339 69.7041 32.6638L69.3935 32.4774C69.3935 32.4774 69.4121 32.0938 69.2171 32.1029C69.0221 32.1121 69.05 32.4135 69.05 32.4135Z" fill="#3F327A"/>
<path d="M76.0483 40.8988C78.1038 46.9042 82.0168 51.9202 85.7425 56.9962C82.5192 53.4132 77.6238 47.644 76.145 44.1149C75.2758 42.0405 75.4741 41.1765 76.0483 40.8988Z" fill="#4932AB"/>
<path d="M88.7006 60.1919C88.7006 60.1919 87.4582 58.9036 85.7424 56.9962C82.8125 53.0044 79.7673 49.0493 77.6002 44.6213C78.4811 44.2514 79.3178 43.797 80.0504 43.1992C82.5456 46.8099 88.1536 55.3775 88.7006 60.1919Z" fill="#634AC9"/>
<path d="M78.8642 41.5207C78.8642 41.5207 79.3263 42.1514 80.0504 43.1992C79.3177 43.797 78.4811 44.2514 77.6002 44.6213C77.0116 43.4187 76.4873 42.1815 76.0482 40.8988C76.9707 40.4525 78.8642 41.5207 78.8642 41.5207Z" fill="#4932AB"/>
<path d="M70.6582 33.5386C70.6473 33.6018 70.6354 33.6649 70.6225 33.7278C69.3385 39.955 66.6026 43.5738 65.1449 45.0213C65.3392 45.3988 65.4509 45.8205 65.4269 46.2265C67.9829 44.2165 72.0901 39.0631 72.3818 33.8933C71.8274 33.7127 71.2246 33.6472 70.6582 33.5386Z" fill="#634AC9"/>
<path d="M64.7632 45.3784C64.877 45.2792 65.0052 45.16 65.1449 45.0213C65.3393 45.3988 65.4509 45.8205 65.4269 46.2265C65.2737 46.347 65.1257 46.4568 64.9849 46.554C65.0278 46.1499 64.9694 45.7429 64.7632 45.3784Z" fill="#FEF2FE"/>
<path d="M62.9888 48.3595C63.2798 48.0916 63.6204 47.8541 63.6204 47.8541C63.6204 47.8541 63.1823 47.0932 63.4671 46.7705L63.3008 45.6962C63.3008 45.6962 63.998 45.6253 64.19 45.7593C64.2283 45.786 64.4383 45.6618 64.7632 45.3785C64.9693 45.743 65.0278 46.1499 64.9848 46.5541C64.8692 46.6343 64.7507 46.7104 64.6295 46.7824L64.1094 48.0612L63.0322 48.9016C63.0322 48.9015 62.6978 48.6274 62.9888 48.3595Z" fill="#FF96A9"/>
<path d="M73.9494 43.2583C75.3444 42.6312 76.9435 42.1367 78.7081 41.9592C78.7081 41.9592 79.1037 42.9038 78.6351 44.1319C77.3026 44.8446 75.7969 45.2828 74.3619 45.6861C74.3619 44.8384 74.2051 44.0293 73.9494 43.2583ZM70.5608 47.4761C70.1275 51.6398 69.5797 55.8597 67.9587 59.725C69.9848 56.4764 70.8206 48.6823 70.8206 48.6823C74.2009 47.9662 76.1889 46.9478 77.3428 45.9196C76.9156 46.1127 76.4813 46.2822 76.0722 46.4453C74.3256 47.1325 72.4626 47.3616 70.5608 47.4761Z" fill="#4932AB"/>
<path d="M78.6351 44.1319C77.3025 44.8446 75.7969 45.2828 74.3619 45.6861C74.3619 44.8384 74.2051 44.0292 73.9493 43.2584C70.1759 44.9547 67.8984 47.6227 67.8984 47.6227C66.8954 50.9842 67.6342 60.1919 67.6342 60.1919C67.7457 60.0497 67.8538 59.8934 67.9588 59.725C69.5796 55.8597 70.1275 51.6398 70.5608 47.4761C72.4626 47.3616 74.3256 47.1326 76.0722 46.4454C76.4813 46.2822 76.9156 46.1128 77.3428 45.9196C78.0307 45.3065 78.4222 44.6899 78.6351 44.1319Z" fill="#634AC9"/>
<path d="M70.8206 38.0861C71.6626 36.722 71.9597 33.6101 71.9597 33.6101C77.1395 36.2407 80.974 42.1784 80.974 42.1784C80.4124 42.7264 79.8451 43.1624 79.2927 43.5099C78.8696 42.7894 78.2266 42.2384 77.6308 41.5937C77.9776 42.3328 78.3682 43.1163 78.5251 43.9439C76.3671 45.0298 74.6095 44.8335 74.6095 44.8335C74.8076 40.9604 70.8206 38.0861 70.8206 38.0861Z" fill="#634AC9"/>
<path d="M79.2928 43.51C79.0441 43.6666 78.788 43.8115 78.5251 43.9439C78.3683 43.1164 77.9777 42.3329 77.6309 41.5938C78.2267 42.2384 78.8696 42.7895 79.2928 43.51Z" fill="#4932AB"/>
<path d="M68.1437 59.4105L64.0856 60.1919H68.4649L68.1437 59.4105ZM88.5872 59.4713L85.2126 60.1919H89.2413L88.5872 59.4713Z" fill="#634AC9"/>
<path d="M71.2468 38.4272C71.2468 38.4272 71.6476 37.481 71.8158 36.6183L71.5313 38.6774L71.2468 38.4272ZM75.1183 42.1841C74.6884 42.1841 74.301 42.0221 74.2766 42.0117C74.2624 42.0057 74.2513 41.9943 74.2456 41.9802C74.2399 41.9661 74.2401 41.9503 74.2463 41.9364C74.2524 41.9224 74.2639 41.9115 74.2783 41.9059C74.2926 41.9003 74.3087 41.9006 74.3228 41.9066C74.3314 41.9102 75.1806 42.2646 75.7163 41.9116C75.7227 41.9074 75.7298 41.9045 75.7373 41.903C75.7448 41.9015 75.7525 41.9015 75.76 41.903C75.7675 41.9045 75.7747 41.9074 75.781 41.9115C75.7874 41.9157 75.7928 41.921 75.7971 41.9273C75.8014 41.9335 75.8043 41.9405 75.8058 41.9479C75.8073 41.9553 75.8073 41.9629 75.8058 41.9703C75.8044 41.9776 75.8014 41.9847 75.7972 41.9909C75.7929 41.9972 75.7875 42.0025 75.7811 42.0067C75.5791 42.1399 75.3429 42.1841 75.1183 42.1841Z" fill="#4932AB"/>
</svg>
