<svg width="86" height="89" viewBox="0 0 86 89" fill="none" xmlns="http://www.w3.org/2000/svg">
<path d="M9.40642 57.8734C4.85673 57.8734 1.15558 54.0432 1.15558 49.3348C1.15558 44.6264 4.85673 40.7961 9.40642 40.7961C13.9558 40.7961 17.6573 44.6264 17.6573 49.3348C17.6573 54.0432 13.9558 57.8734 9.40642 57.8734ZM9.40642 41.3524C5.15315 41.3524 1.69279 44.9334 1.69279 49.3351C1.69279 53.737 5.15315 57.3178 9.40642 57.3178C13.6597 57.3178 17.12 53.737 17.12 49.3351C17.12 44.9331 13.6597 41.3524 9.40642 41.3524Z" fill="white"/>
<path d="M22.7831 56.8241C18.2334 56.8241 14.5323 52.9939 14.5323 48.2855C14.5323 43.5774 18.2337 39.7468 22.7831 39.7468C27.3325 39.7468 31.034 43.5771 31.034 48.2855C31.034 52.9939 27.3325 56.8241 22.7831 56.8241ZM22.7831 40.3027C18.5299 40.3027 15.0692 43.8838 15.0692 48.2855C15.0692 52.6874 18.5296 56.2682 22.7831 56.2682C27.0364 56.2682 30.4968 52.6874 30.4968 48.2855C30.4968 43.8838 27.0364 40.3027 22.7831 40.3027Z" fill="white"/>
<path d="M14.0435 53.5928C8.5295 53.5928 4.04346 48.9503 4.04346 43.2439C4.04346 37.5375 8.5295 32.895 14.0435 32.895C19.5579 32.895 24.0439 37.5375 24.0439 43.2439C24.0439 48.9503 19.5579 53.5928 14.0435 53.5928ZM14.0435 33.4506C8.82563 33.4506 4.58067 37.8437 4.58067 43.2436C4.58067 48.6438 8.82592 53.0366 14.0435 53.0366C19.2614 53.0366 23.5067 48.6435 23.5067 43.2436C23.5067 37.8437 19.2617 33.4506 14.0435 33.4506Z" fill="white"/>
<path d="M10.7168 57.0202C5.20272 57.0202 0.716675 52.3777 0.716675 46.671C0.716675 40.9646 5.20272 36.3221 10.7168 36.3221C16.2308 36.3221 20.7168 40.9646 20.7168 46.671C20.7171 52.3777 16.2311 57.0202 10.7168 57.0202ZM10.7168 36.878C5.49885 36.878 1.2536 41.2711 1.2536 46.6713C1.2536 52.0715 5.49885 56.4643 10.7168 56.4643C15.9347 56.4643 20.1796 52.0712 20.1796 46.6713C20.1799 41.2711 15.9347 36.878 10.7168 36.878Z" fill="white"/>
<path d="M26.1205 62.5732C21.5708 62.5732 17.8696 58.7427 17.8696 54.0346C17.8696 49.3265 21.5708 45.4959 26.1205 45.4959C30.6699 45.4959 34.3713 49.3262 34.3713 54.0346C34.3713 58.743 30.6699 62.5732 26.1205 62.5732ZM26.1205 46.0519C21.8672 46.0519 18.4068 49.6329 18.4068 54.0346C18.4068 58.4362 21.8672 62.0173 26.1205 62.0173C30.3737 62.0173 33.8341 58.4362 33.8341 54.0346C33.8341 49.6329 30.3737 46.0519 26.1205 46.0519Z" fill="white"/>
<path d="M27.4309 61.72C21.9168 61.72 17.4308 57.0775 17.4308 51.3711C17.4308 45.6647 21.9168 41.0222 27.4309 41.0222C32.9449 41.0222 37.4309 45.6647 37.4309 51.3711C37.4309 57.0775 32.9449 61.72 27.4309 61.72ZM27.4309 41.5778C22.213 41.5778 17.9677 45.9709 17.9677 51.3708C17.9677 56.7707 22.2127 61.1638 27.4309 61.1638C32.6488 61.1638 36.894 56.7707 36.894 51.3708C36.894 45.9709 32.6488 41.5778 27.4309 41.5778Z" fill="white"/>
<path d="M23.4258 55.2729C17.9118 55.2729 13.4257 50.6303 13.4257 44.9239C13.4257 39.2173 17.9118 34.575 23.4258 34.575C28.9398 34.575 33.4259 39.2176 33.4259 44.9239C33.4262 50.6306 28.9401 55.2729 23.4258 55.2729ZM23.4258 35.1307C18.2079 35.1307 13.9626 39.5237 13.9626 44.9239C13.9626 50.3242 18.2079 54.7169 23.4258 54.7169C28.6437 54.7169 32.8887 50.3239 32.8887 44.9239C32.8887 39.524 28.6437 35.1307 23.4258 35.1307Z" fill="white"/>
<path d="M14.653 60.4449C9.13894 60.4449 4.65289 55.8024 4.65289 50.096C4.65289 44.3893 9.13894 39.7471 14.653 39.7471C20.167 39.7471 24.6533 44.3896 24.6533 50.096C24.6531 55.8024 20.167 60.4449 14.653 60.4449ZM14.653 40.3028C9.43507 40.3028 5.19011 44.6958 5.19011 50.096C5.19011 55.4959 9.43507 59.8893 14.653 59.8893C19.8712 59.8893 24.1161 55.4962 24.1161 50.096C24.1161 44.6961 19.8709 40.3028 14.653 40.3028Z" fill="white"/>
<path d="M18.7941 49.8697C16.7863 49.8697 15.1529 48.1793 15.1529 46.1014C15.1529 44.0233 16.7863 42.3329 18.7941 42.3329C20.8019 42.3329 22.4357 44.0233 22.4357 46.1014C22.4357 48.1793 20.8019 49.8697 18.7941 49.8697ZM18.7941 42.8888C17.0824 42.8888 15.6901 44.33 15.6901 46.1014C15.6901 47.8728 17.0827 49.3137 18.7941 49.3137C20.5058 49.3137 21.8984 47.8728 21.8984 46.1014C21.8984 44.33 20.5058 42.8888 18.7941 42.8888Z" fill="white"/>
<path d="M19.3652 49.8697C13.8512 49.8697 9.36511 45.2271 9.36511 39.5207C9.36511 33.8141 13.8512 29.1718 19.3652 29.1718C24.8792 29.1718 29.3656 33.8144 29.3656 39.5207C29.3656 45.2271 24.8792 49.8697 19.3652 49.8697ZM19.3652 29.7275C14.1473 29.7275 9.90233 34.1205 9.90233 39.5207C9.90233 44.9207 14.1476 49.314 19.3652 49.314C24.5831 49.314 28.8281 44.921 28.8281 39.5207C28.8281 34.1205 24.5831 29.7275 19.3652 29.7275Z" fill="white"/>
<path d="M19.9769 54.4193C14.4629 54.4193 9.97687 49.7768 9.97687 44.0704C9.97687 38.364 14.4629 33.7215 19.9769 33.7215C25.491 33.7215 29.977 38.364 29.977 44.0704C29.977 49.7768 25.491 54.4193 19.9769 54.4193ZM19.9769 34.2772C14.759 34.2772 10.5141 38.6702 10.5141 44.0704C10.5141 49.4706 14.7593 53.8634 19.9769 53.8634C25.1949 53.8634 29.4401 49.4703 29.4401 44.0704C29.4401 38.6705 25.1949 34.2772 19.9769 34.2772Z" fill="white"/>
<path d="M16.0556 63.031C10.5416 63.031 6.05554 58.3885 6.05554 52.6821C6.05554 46.9757 10.5416 42.3329 16.0556 42.3329C21.5697 42.3329 26.0557 46.9754 26.0557 52.6821C26.0557 58.3885 21.5697 63.031 16.0556 63.031ZM16.0556 42.8888C10.8377 42.8888 6.59276 47.2819 6.59276 52.6821C6.59276 58.082 10.838 62.475 16.0556 62.475C21.2735 62.475 25.5188 58.082 25.5188 52.6821C25.5185 47.2819 21.2735 42.8888 16.0556 42.8888Z" fill="white"/>
<path d="M20.4485 62.5732C12.009 62.5732 5.14337 55.4681 5.14337 46.7342C5.14337 38.0003 12.009 30.8949 20.4485 30.8949C28.888 30.8949 35.7536 38.0003 35.7536 46.7342C35.7536 55.4681 28.8877 62.5732 20.4485 62.5732ZM20.4485 31.4511C12.3055 31.4511 5.68059 38.3071 5.68059 46.7345C5.68059 55.1616 12.3055 62.0176 20.4485 62.0176C28.5918 62.0176 35.2167 55.1616 35.2167 46.7345C35.2164 38.3071 28.5916 31.4511 20.4485 31.4511Z" fill="white"/>
<path d="M53.8208 63.341C53.0101 63.341 52.0337 63.2004 50.8951 62.9189L51.0347 62.3139C54.1078 63.0737 55.3037 62.6332 55.7664 62.1294C56.2369 61.6171 56.0459 60.9181 56.0439 60.911L56.0342 60.863C55.9969 60.5592 55.9536 60.2684 55.9043 59.9916L55.5612 60.4277C54.8947 61.275 53.8526 61.6684 52.8413 61.4557C51.279 61.127 50.4866 60.2041 50.6099 58.8569C50.7538 57.2834 51.936 56.4373 53.0434 56.2964C54.1817 56.1528 55.5623 56.6921 56.0832 58.2238C56.1265 58.3514 56.1681 58.4837 56.2076 58.6207L58.1013 56.2139C60.3313 53.3795 61.5594 49.8056 61.5594 46.1504L61.5201 36.5701L58.4557 37.4681C54.3807 38.4243 51.6889 37.2803 48.8388 36.0687C48.3593 35.8649 47.8633 35.654 47.3579 35.452C42.6414 33.5661 37.4008 33.941 32.9802 36.4808L22.3465 43.1175L22.0496 42.6512L32.6883 35.9364C37.2655 33.3071 42.6913 32.919 47.5746 34.8714C48.0861 35.0758 48.5849 35.2879 49.0673 35.4932C51.9466 36.7167 54.4326 37.7746 58.3074 36.8653L62.1178 35.7483L62.1602 46.1489C62.1602 49.948 60.8843 53.6614 58.5672 56.6064L56.3948 59.3678C56.4883 59.7985 56.5659 60.2649 56.6276 60.7636C56.67 60.9368 56.8523 61.85 56.2019 62.5578C55.7229 63.0796 54.9259 63.341 53.8208 63.341ZM53.4009 56.8956C53.3048 56.8956 53.2097 56.9016 53.1168 56.9137C52.3115 57.0158 51.3285 57.6014 51.2084 58.9153C51.1156 59.932 51.7052 60.5814 52.9614 60.8457C53.7526 61.0119 54.5707 60.7019 55.0956 60.0344L55.7421 59.2126C55.6741 58.9331 55.5987 58.6718 55.5165 58.43C55.1484 57.3489 54.2339 56.8956 53.4009 56.8956Z" fill="white"/>
<path d="M63.8929 35.8952C63.8929 35.8952 62.8351 35.6493 62.6459 35.6457C62.4567 35.6421 62.0304 36.1661 61.6666 36.1589C61.6666 36.1589 61.564 36.0717 61.472 36.0649C61.3799 36.0581 61.2312 36.1005 61.1449 35.9133C61.0586 35.7258 60.9666 35.9851 60.7103 35.6715C60.7103 35.6715 60.614 35.7599 60.4274 35.7564C60.2407 35.7528 60.1954 35.5789 60.2559 35.4469C60.3164 35.3152 60.7301 34.8311 60.8746 34.7536C60.8746 34.7536 60.4549 35.3102 60.0965 34.7388C60.0965 34.7388 60.0882 34.6608 60.3138 34.6551C60.5394 34.6495 60.966 34.5296 61.0448 34.4558C61.1237 34.3819 62.9494 34.5424 63.6641 34.4418L63.8929 35.8952Z" fill="#EAB794"/>
<path d="M68.0659 59.3232L66.9614 61.5764L65.5223 60.8208L66.6555 58.5092L68.0659 59.3232Z" fill="#F7C19B"/>
<path d="M67.3547 63.0259L63.1773 62.195C62.9658 62.1529 62.827 61.9413 62.8677 61.7224L62.9021 61.5373C62.9128 61.4806 62.9913 61.3703 63.0403 61.3433L65.7401 59.8896C65.8284 59.8409 65.9408 59.8748 65.9898 59.9649C66.2111 60.3743 66.6328 60.6927 67.3243 60.7929C67.4077 60.8048 67.4765 60.8662 67.4986 60.9502C67.6869 61.6648 67.7826 62.2769 67.6577 62.8212C67.6255 62.9628 67.4925 63.0535 67.3547 63.0259Z" fill="white"/>
<path d="M62.6573 58.5958L61.5525 60.849L60.1135 60.0934L61.2469 57.7818L62.6573 58.5958Z" fill="#F7C19B"/>
<path d="M61.9458 62.2988L57.7685 61.4678C57.557 61.4257 57.4185 61.2142 57.4589 60.9953L57.4933 60.8101C57.5039 60.7538 57.5825 60.6431 57.6315 60.6161L60.3313 59.1628C60.4196 59.1141 60.532 59.1479 60.581 59.2381C60.8023 59.6475 61.224 59.9658 61.9154 60.0661C61.9989 60.0783 62.0677 60.1394 62.09 60.2233C62.2784 60.938 62.3741 61.55 62.2491 62.0944C62.2167 62.2356 62.0837 62.3261 61.9458 62.2988Z" fill="white"/>
<path d="M73.1846 27.029C73.1445 27.5612 73.3996 28.0261 73.6742 28.3993C73.7857 28.1863 73.9004 28.054 74.0059 28.0519C74.5047 28.0415 74.8321 28.6607 75.3395 28.4675C75.8477 28.2747 76.3517 28.7179 76.3517 28.7179C76.0837 29.4548 76.364 29.1994 76.3732 29.4332C76.3824 29.6661 76.0415 30.1301 76.2181 30.2713C76.3936 30.4131 76.7086 29.8957 76.9236 29.9449C77.1386 29.9933 77.4278 30.3081 77.0033 30.848C76.5779 31.3885 76.2092 31.3123 76.0739 31.7249C76.0739 31.7249 77.2289 31.3758 77.8782 29.3982C77.8782 29.3982 78.2623 28.9205 77.5018 28.2163C77.5018 28.2163 77.9401 28.3349 77.9519 28.1979C77.9636 28.0602 77.5245 27.9057 77.5245 27.9057C77.5245 27.9057 77.5973 27.6837 77.2487 27.8086C77.2487 27.8086 77.2272 26.846 76.3629 26.554C75.4997 26.2618 75.6491 25.8426 75.0964 25.6839C74.5448 25.5255 73.6436 26.1518 73.4658 26.8326C73.4658 26.8326 73.5398 26.2805 73.7063 26.0915C73.706 26.0918 73.2652 25.9479 73.1846 27.029Z" fill="#333333"/>
<path d="M72.754 33.7245C72.754 33.7245 73.2895 34.4036 74.3347 34.1891C75.3839 33.9749 75.492 33.6871 75.9034 32.5491C75.9117 32.5449 75.9157 32.5449 75.924 32.5452C75.9578 32.2563 76.0091 31.9249 76.0745 31.7258C76.2095 31.3111 76.5787 31.3862 77.0039 30.8489C77.4293 30.3075 77.1386 29.9909 76.9213 29.9444C76.708 29.8933 76.3941 30.4113 76.2198 30.2719C76.0412 30.128 76.3829 29.6658 76.3749 29.4314C76.3626 29.2012 76.0822 29.4557 76.3505 28.7194C76.3505 28.7194 75.848 28.2753 75.3383 28.4658C74.8327 28.6607 74.5061 28.0409 74.0079 28.0528C73.9007 28.0552 73.7875 28.1848 73.6765 28.4002C73.2887 29.1383 72.9415 30.8483 73.1158 31.4568C73.131 31.5208 73.1754 31.5686 73.2328 31.5953C73.3635 31.6532 73.612 31.8027 73.4916 32.0901C73.5117 32.086 73.0886 33.4284 72.754 33.7245Z" fill="#F7C19B"/>
<path d="M72.3977 35.0788C72.7474 35.0853 73.0029 35.0817 73.1267 35.0672C73.469 35.0268 73.995 34.6151 74.5228 34.1054C73.6169 34.1178 72.9421 33.6408 72.9421 33.6408C72.646 34.0825 72.4728 34.5649 72.3977 35.0788Z" fill="#E1E3E8"/>
<path d="M73.8093 44.1069C74.7048 44.2051 74.7937 45.7018 77.9668 45.034C78.2354 44.9794 78.4911 44.9417 78.7388 44.9168C76.4314 42.3693 74.6644 38.0546 74.3213 37.1833C74.2843 37.0893 74.1923 37.0371 74.0959 37.0554C73.844 37.1038 73.328 37.2204 72.7176 37.4577C72.6844 37.4699 72.6348 37.4818 72.5729 37.4933C73.215 40.0319 74.9617 42.4975 74.9878 42.8814C75.0308 43.4741 73.8093 44.1069 73.8093 44.1069Z" fill="#E1E3E8"/>
<path d="M62.8319 59.0388L68.008 52.8811C68.0739 52.8126 68.1828 52.8883 68.1467 52.9773L65.9196 58.4582C65.7906 58.7753 65.9878 59.1328 66.3172 59.1794L67.9538 59.757C68.1206 59.7804 68.2877 59.7166 68.3998 59.5867L72.6236 53.8587C73.0725 53.3368 73.6255 52.9248 74.2444 52.6456C76.5701 51.5969 82.5494 48.6237 83.1901 45.5214L82.5775 45.9486L81.7401 46.5369C81.5372 46.6796 81.2809 46.7146 81.0493 46.6313C80.244 46.3417 79.4652 45.7155 78.7405 44.9174C78.7399 44.9171 78.7396 44.9171 78.739 44.9168C78.4916 44.9421 78.2356 44.9797 77.967 45.034C74.7939 45.7021 74.7053 44.2051 73.8095 44.1069C73.8095 44.1069 67.8319 46.2931 67.037 47.0063C66.3341 47.637 62.3589 55.4553 60.6051 58.085C60.3863 58.4128 60.5773 58.864 60.9577 58.9251L62.3798 59.1924C62.5455 59.2191 62.7135 59.1619 62.8319 59.0388Z" fill="#333333"/>
<path d="M62.9927 34.4819L62.9752 35.4549C62.9735 35.5585 63.0532 35.6442 63.1533 35.646L63.6968 35.6564L63.9786 34.599C63.9786 34.599 70.137 35.0402 72.396 35.079C72.4711 34.5649 72.6442 34.0828 72.9401 33.6411C73.0857 33.3287 73.1327 33.2272 73.3067 32.7024C73.3196 32.6686 73.3368 32.6348 73.3497 32.5968C73.3497 32.5968 66.415 34.4845 63.1819 34.2997C63.0793 34.2935 62.9947 34.3751 62.9927 34.4819Z" fill="#FA5669"/>
<path d="M63.7581 36.8914C63.7581 36.8914 62.7003 36.6454 62.5111 36.6419C62.3219 36.6383 61.8957 37.1622 61.5319 37.1551C61.5319 37.1551 61.429 37.0679 61.3372 37.0611C61.2452 37.0542 61.0964 37.0967 61.0102 36.9095C60.9239 36.722 60.8319 36.9813 60.5756 36.6677C60.5756 36.6677 60.4795 36.7561 60.2926 36.7525C60.106 36.749 60.0607 36.5748 60.1212 36.4431C60.1817 36.3111 60.5954 35.8272 60.7398 35.7498C60.7398 35.7498 60.3201 36.3064 59.9615 35.735C59.9615 35.735 59.9532 35.6569 60.1788 35.6513C60.4044 35.6457 60.831 35.5255 60.9098 35.452C60.9887 35.3781 63.0415 35.5323 63.7564 35.4318L63.7581 36.8914Z" fill="#F7C19B"/>
<path d="M63.2418 36.8979C64.717 37.0454 71.304 37.6906 72.5711 37.4933C72.633 37.4818 72.6826 37.4699 72.7159 37.4577C73.2505 37.2507 73.7138 37.1361 73.9864 37.0774C74.1435 37.0463 74.2983 37.1302 74.3613 37.2848C74.7827 38.3451 76.5085 42.4548 78.737 44.9168C78.7491 44.9299 78.7654 44.9471 78.7774 44.9601C79.5583 45.8107 80.4006 46.4598 81.2709 46.7025C81.3792 46.7327 81.4951 46.7075 81.5876 46.6422L82.5755 45.9483L83.1881 45.5211L85.1813 44.1247C85.3097 44.0345 85.3186 43.8432 85.1968 43.7438C84.27 42.987 81.0077 40.1897 80.2521 37.7336C79.4855 35.2485 76.8986 32.8048 76.2837 32.2011C76.1949 32.11 76.0636 32.0777 75.9437 32.118C74.5107 32.6146 74.5397 33.9953 74.5253 34.1015V34.1057H74.5213C73.9936 34.6154 73.4675 35.0271 73.1252 35.0675C73.0014 35.082 72.7463 35.0859 72.3965 35.0791C70.1373 35.0402 63.9791 34.5991 63.9791 34.5991L63.7905 35.0129L63.0793 36.5882C63.0145 36.7232 63.0982 36.8822 63.2418 36.8979Z" fill="#FA5669"/>
</svg>
