<svg width="61" height="58" viewBox="0 0 61 58" fill="none" xmlns="http://www.w3.org/2000/svg">
<path opacity="0.1" d="M18.4042 38.5912C22.6084 41.0185 22.6305 44.9542 18.4531 47.3818C14.2763 49.8091 7.48171 49.8092 3.27752 47.3819C-0.927185 44.9543 -0.949344 41.0186 3.22753 38.5913C7.40489 36.1637 14.1994 36.1636 18.4042 38.5912Z" fill="black"/>
<path opacity="0.1" d="M58.2253 37.8405C61.8289 39.921 61.8479 43.2944 58.2673 45.3752C54.6872 47.4558 48.8633 47.4558 45.2597 45.3753C41.6557 43.2945 41.6367 39.9211 45.2169 37.8406C48.7975 35.7598 54.6213 35.7598 58.2253 37.8405Z" fill="black"/>
<path opacity="0.1" d="M28.4154 32.2755C30.8899 33.7041 30.903 36.0206 28.4443 37.4494C25.9858 38.8781 21.9867 38.8781 19.5122 37.4495C17.0374 36.0206 17.0244 33.7042 19.4828 32.2755C21.9415 30.8467 25.9407 30.8467 28.4154 32.2755Z" fill="black"/>
<path opacity="0.1" d="M28.8968 43.8721C28.8968 43.8721 23.7457 43.9947 24.7269 45.7117C25.708 47.4288 34.7836 55.5233 36.378 55.8912C37.9724 56.2591 46.4348 57.2403 47.9065 56.995C49.3783 56.7497 55.5105 56.0138 42.8782 50.9854C30.2459 45.957 28.8968 43.8721 28.8968 43.8721Z" fill="black"/>
<path d="M44.1732 54.3799C44.6514 54.6261 46.4013 54.405 46.4013 54.405L46.8055 53.7402L44.1732 54.3799Z" fill="black"/>
<path d="M45.1188 54.9256L45.5531 54.6579L45.341 54.4162L44.9213 54.5925L45.1188 54.9256Z" fill="#636363"/>
<path d="M45.1231 54.9263C45.1231 54.9263 43.4787 54.2724 43.1768 53.8261C43.1059 53.7212 43.1059 52.9783 43.1059 52.9783L45.1994 54.2504L45.1231 54.9263Z" fill="#DEDEDE"/>
<path d="M50.5919 55.0006C50.5597 54.4236 49.4675 54.1624 48.284 53.5927C47.5864 53.257 47.0481 52.5722 46.3408 52.3083C44.4334 51.5966 43.5798 50.78 43.1755 51.8859C42.7713 52.9918 43.1496 53.7571 45.0569 54.4688C45.9168 54.7896 46.7038 55.657 47.776 55.9613C48.9245 56.2872 50.6275 55.6374 50.5919 55.0006Z" fill="#DEDEDE"/>
<path d="M50.6023 54.8596C50.8044 54.3438 49.5768 53.9586 48.2576 53.3555C47.5939 53.0521 46.5283 52.3177 46.2063 51.7818C45.1579 50.0368 43.5901 50.6389 43.1859 51.7448C42.7817 52.8507 43.1758 53.5587 45.0831 54.2704C45.943 54.5913 46.8994 55.5218 47.983 55.7807C48.9935 56.0222 50.3632 55.4694 50.6023 54.8596Z" fill="#424242"/>
<path d="M42.1972 41.7727C42.6908 42.0127 44.3968 47.2989 46.2149 51.6807C46.3644 52.0409 45.8664 51.5833 45.5678 52.0277C44.8438 53.1057 43.6337 53.2224 43.0599 52.2027C41.8287 48.0639 40.2691 45.6231 40.519 44.8459C40.802 43.9656 41.3655 41.3685 42.1972 41.7727Z" fill="#375599"/>
<path d="M30.2713 43.0267C30.2713 43.0267 41.7434 41.3534 42.1428 41.8426C42.8746 42.7391 42.3452 44.9143 41.6811 45.2368C41.5588 45.2962 30.3523 46.8558 30.3523 46.8558C28.0456 46.4671 29.0134 46.3787 28.6664 46.1697L30.2713 43.0267Z" fill="#375599"/>
<path d="M43.4797 27.4282C43.5001 27.7866 43.2805 27.9681 43.1806 28.3975C43.1025 28.7332 43.0965 28.8942 42.9655 29.2617C42.8696 29.5306 41.8343 29.9758 41.7696 29.6544C41.708 29.3603 41.3852 29.1167 41.2068 28.9416C41.0117 28.7501 41.1054 27.0361 41.592 26.4118C41.989 25.9023 43.4371 26.6763 43.4797 27.4282Z" fill="#DEB8A0"/>
<path d="M39.2008 31.3128C38.7098 32.4147 37.1516 31.1109 34.5604 30.1871C31.9691 29.2633 29.5764 28.2294 30.0267 27.1102C30.3837 26.2226 33.4362 25.1481 36.0275 26.0719C38.6188 26.9957 39.892 29.7619 39.2008 31.3128Z" fill="#575757"/>
<path d="M39.2955 32.7766C39.4146 31.3847 39.4612 28.0627 37.5136 28.1574C35.9106 28.2354 36.0585 29.9607 36.1146 31.5646C36.1688 33.1179 36.1068 37.3548 37.0545 38.5399C37.4242 39.0023 38.4975 38.122 38.6936 37.6499C38.8015 37.3905 39.0514 35.6293 39.2955 32.7766Z" fill="#D6D6D6"/>
<path d="M34.5359 26.7186L38.1977 28.7329L38.5533 28.0862C37.7066 26.8565 36.6862 26.0251 35.3011 25.8665C35.2148 25.8566 34.4412 26.5375 34.5359 26.7186Z" fill="#D6D6D6"/>
<path d="M28.1147 38.066L32.4086 27.3783C33.0305 27.2648 33.4308 26.3025 34.0503 26.3746C35.5917 26.554 37.3438 27.3257 38.6223 28.1068C39.0392 28.3615 38.9711 29.5176 39.2318 30.0419L33.6558 39.9366L28.1147 38.066Z" fill="#DEB79F"/>
<path d="M33.1111 41.8501C33.3131 40.953 33.1019 40.7114 33.5859 39.7706C34.3287 38.3265 35.7445 36.9177 36.5482 35.6034C37.5301 33.9977 38.413 32.6877 38.7658 31.7287C38.9832 31.1377 40.0945 29.4655 38.6 28.2765C38.6241 28.4264 38.6186 28.5931 38.5835 28.7759C38.3115 30.1916 36.2406 32.27 35.6204 32.4828L35.4384 32.5452L35.4222 32.3535C35.387 31.9375 34.9825 30.4805 34.6255 29.195C34.1472 27.4721 33.9663 26.779 33.9329 26.4814C33.2737 26.3811 32.0374 26.3273 31.6074 26.3856C30.2336 26.5717 29.6299 28.2279 29.0338 29.5741C28.4278 30.9429 28.1514 32.39 27.9587 33.6669C27.8645 34.2913 28.2072 35.0732 28.0982 35.5184C27.7105 37.1007 26.9846 39.1266 26.5128 40.4345C25.728 42.6101 32.7142 43.6128 33.1111 41.8501Z" fill="#EDEDED"/>
<path d="M31.5873 26.2369C32.0838 26.1696 33.4674 26.2416 34.08 26.3538C33.9783 26.6125 34.7012 33.6779 35.6108 34.134L31.432 43.0923C31.432 43.0923 29.3896 42.9798 28.6217 43.5982C26.4172 45.3735 24.8537 41.723 25.8629 40.5018C26.8076 39.3588 27.2538 38.0285 27.679 36.2928C28.0165 34.9151 27.7949 31.4138 28.696 29.3785C29.2957 28.0242 30.1196 26.4357 31.5873 26.2369Z" fill="#575757"/>
<path d="M26.9708 41.0359C27.9155 39.8928 28.3617 38.5626 28.7869 36.8268C29.1244 35.4492 28.9028 31.9478 29.804 29.9126C30.4036 28.5583 31.0557 26.9884 32.4035 26.3743C33.015 26.0956 35.2679 25.8589 35.2679 25.8589C32.8726 25.3539 30.3493 26.3082 30.0267 27.1102C30.0234 27.1184 30.0217 27.1265 30.0187 27.1347C29.4531 27.7581 29.038 28.6062 28.6961 29.3785C27.795 31.4138 28.0165 34.9151 27.6791 36.2928C27.2538 38.0285 26.8076 39.3587 25.8629 40.5018C25.0021 41.5435 25.2276 43.4603 27.2577 44.1257C26.0399 43.3062 26.2878 41.8623 26.9708 41.0359Z" fill="#3D3E3D"/>
<path d="M38.3032 29.6838C38.6253 28.8533 38.5452 28.1328 38.1894 27.8269C40.0822 28.8609 39.4383 30.594 38.9912 31.8092C38.3333 33.5977 34.7413 38.2389 34.2347 39.4288C33.8552 40.3205 33.6549 42.3944 33.281 43.0666C32.086 42.3837 31.4412 43.0827 31.4412 43.0827L34.7746 34.5455C35.3023 34.3646 37.5399 31.6523 38.3032 29.6838Z" fill="#575757"/>
<path d="M38.6623 28.383C38.6623 28.383 38.5396 27.9214 38.3707 27.7017C38.0624 27.3008 37.2815 26.7308 37.2815 26.7308L36.9117 27.3692L38.6623 28.383Z" fill="#E3E3E3"/>
<path d="M37.9838 29.8187C38.2937 29.5634 39.0608 30.513 39.1284 30.6037C39.6386 29.862 38.9407 28.3344 38.7373 28.0403C38.5172 27.7223 38.1284 27.5805 38.1284 27.5805C38.5321 28.0855 38.4647 28.7576 37.9838 29.8187Z" fill="white"/>
<path d="M40.3327 26.858L37.6963 29.3106C37.6963 29.3106 36.5115 30.1481 35.7318 29.3554C34.9223 28.5322 34.6172 26.7228 34.8583 26.5152C35.7311 27.0347 38.3953 24.3723 38.3953 24.3723L40.3327 26.858Z" fill="#D4B098"/>
<path d="M33.1127 27.9204C33.452 27.7575 34.5555 28.1208 34.8326 28.4346C34.5014 27.2129 34.8345 26.0795 35.3363 25.8684C34.9463 25.7916 33.9307 26.263 33.7856 26.4969C33.5089 26.9426 33.1127 27.9204 33.1127 27.9204Z" fill="white"/>
<path d="M34.1719 27.9552C34.7211 29.4511 35.0634 31.2042 35.4539 32.5533C35.2274 31.3076 35.2521 29.7713 34.8206 28.4193C34.7261 28.291 34.3792 28.0193 34.1719 27.9552Z" fill="white"/>
<path d="M38.5781 29.8634C37.5904 31.1985 36.6882 32.0274 35.3949 32.5904C36.3914 31.8768 37.1807 31.0126 38.0073 29.785C38.1499 29.7138 38.3644 29.826 38.5781 29.8634Z" fill="white"/>
<path d="M34.7445 34.663L33.3623 36.6218C32.901 37.2727 32.4406 37.9253 32.0148 38.5952C31.9602 38.6784 31.9114 38.7641 31.8609 38.8491L31.7845 38.9761L31.715 39.1055C31.616 39.2754 31.5511 39.4584 31.4792 39.6432C31.3439 40.0153 31.2258 40.3964 31.1136 40.779C30.8872 41.5439 30.6776 42.3151 30.4708 43.0875C30.6186 42.3015 30.7889 41.5198 30.9862 40.7437C31.0874 40.3562 31.1927 39.9696 31.3219 39.5875C31.4474 39.2022 31.6429 38.835 31.8537 38.4956C32.2748 37.8098 32.7475 37.163 33.229 36.5239C33.7135 35.8871 34.218 35.2658 34.7445 34.663Z" fill="#AB9384"/>
<path d="M34.7567 35.6839C34.6083 35.687 34.4303 35.7947 34.359 35.9252C34.2881 36.0549 34.3511 36.1576 34.4996 36.1545C34.648 36.1514 34.826 36.0437 34.8969 35.914C34.9682 35.7835 34.9052 35.6808 34.7567 35.6839Z" fill="#4A3D35"/>
<path d="M34.828 35.7518C34.7544 35.77 34.6862 35.7926 34.6216 35.8263C34.5552 35.8566 34.4955 35.8972 34.4324 35.9395C34.4727 35.8739 34.5368 35.8269 34.6044 35.7913C34.6738 35.7599 34.7518 35.7376 34.828 35.7518Z" fill="#A8A8A8"/>
<path d="M33.0789 37.8402C32.9304 37.8433 32.7525 37.951 32.6811 38.0815C32.6103 38.2112 32.6733 38.3139 32.8217 38.3108C32.9702 38.3077 33.1481 38.2 33.219 38.0704C33.2903 37.9399 33.2274 37.8372 33.0789 37.8402Z" fill="#4A3D35"/>
<path d="M33.1501 37.9081C33.0765 37.9263 33.0083 37.9489 32.9437 37.9826C32.8774 38.0129 32.8176 38.0535 32.7545 38.0958C32.7948 38.0302 32.8589 37.9832 32.9265 37.9476C32.9959 37.9162 33.074 37.894 33.1501 37.9081Z" fill="#A8A8A8"/>
<path d="M31.9756 39.7748C31.8271 39.7779 31.6492 39.8856 31.5779 40.0161C31.507 40.1458 31.57 40.2485 31.7185 40.2455C31.8669 40.2424 32.0449 40.1347 32.1157 40.005C32.187 39.8745 32.1241 39.7718 31.9756 39.7748Z" fill="#4A3D35"/>
<path d="M32.0468 39.8427C31.9732 39.861 31.905 39.8835 31.8404 39.9173C31.7741 39.9475 31.7143 39.9882 31.6512 40.0305C31.6915 39.9649 31.7556 39.9179 31.8232 39.8823C31.8926 39.8508 31.9707 39.8286 32.0468 39.8427Z" fill="#A8A8A8"/>
<path d="M31.386 42.2226C31.2375 42.2257 31.0596 42.3334 30.9883 42.4639C30.9174 42.5936 30.9804 42.6964 31.1289 42.6933C31.2773 42.6902 31.4553 42.5825 31.5261 42.4528C31.5974 42.3223 31.5345 42.2196 31.386 42.2226Z" fill="#4A3D35"/>
<path d="M31.4572 42.2905C31.3836 42.3088 31.3154 42.3313 31.2508 42.3651C31.1845 42.3953 31.1247 42.436 31.0616 42.4783C31.1019 42.4127 31.166 42.3657 31.2336 42.3301C31.303 42.2986 31.3811 42.2764 31.4572 42.2905Z" fill="#A8A8A8"/>
<path d="M36.6651 25.3873C36.4484 26.1036 35.8494 26.7414 36.0852 27.9919C36.2013 28.6073 35.6888 29.5464 36.2163 30.139C36.8763 30.8804 37.4061 30.4529 38.303 30.6041C40.2305 30.9291 41.8768 29.5911 42.6605 27.5246C43.1238 26.3032 42.2719 24.299 40.6163 23.7088C38.9606 23.1185 37.3048 23.2721 36.6651 25.3873Z" fill="#F0C7AD"/>
<path d="M42.0942 32.2903C41.5425 33.5547 40.4615 35.1605 40.2695 35.3407C39.7315 35.8456 39.42 36.1269 38.7345 35.8045C37.9411 35.4313 38.0395 34.5236 38.4827 33.7671C39.3419 32.3008 39.2439 32.0277 39.8474 31.392C40.5953 31.0039 41.9226 31.7607 42.0942 32.2903Z" fill="#DBDBDB"/>
<path d="M41.6426 28.5478L38.8481 33.6621L40.5798 34.3347L42.9676 29.2617L41.6426 28.5478Z" fill="#DEB8A0"/>
<path d="M42.1014 32.2511C41.5496 33.5155 38.7286 38.3813 37.6729 38.6588C36.6324 38.9323 36.8959 37.2196 37.8241 35.1864C38.2137 34.3329 39.2686 32.4624 39.6649 31.7076C40.2388 32.9599 41.7262 33.0677 42.1014 32.2511Z" fill="#F5F5F5"/>
<path d="M41.6124 33.4202C40.8411 33.8043 39.3907 33.1472 39.1768 32.3377C39.2784 32.1153 39.6668 31.6103 39.8586 31.3853C40.4222 32.6503 41.9355 32.7358 42.0951 32.2742C42.0861 32.4151 41.8291 33.1473 41.6124 33.4202Z" fill="white"/>
<path d="M31.3676 36.3393C31.7455 34.279 31.7836 34.087 32.1461 31.2469C32.323 29.8612 32.2957 26.1511 30.5682 27.0553C29.5459 27.5904 29.0508 28.711 28.8751 30.3063C28.5344 33.3986 28.2171 37.9207 29.4441 38.9405C29.9935 39.3971 30.9356 38.6952 31.3676 36.3393Z" fill="#E3E3E3"/>
<path d="M40.7946 23.2813C42.0608 23.7199 43.2812 25.95 42.7674 27.5316C42.5989 28.0506 42.6042 28.5356 42.3663 28.9452C41.8991 29.7498 41.7554 30.6803 40.4735 30.3527C37.9261 29.7017 36.9956 27.719 37.1603 26.3838C37.2604 25.5725 36.4436 25.7015 36.5779 25.325C37.344 23.1758 39.5662 22.8557 40.7946 23.2813Z" fill="#734D35"/>
<path d="M37.304 28.2194L36.0256 28.0416C36.0256 28.0416 36.4565 27.1674 36.6133 26.9006C36.7771 26.6218 37.0034 26.6389 37.2568 26.2082C37.3844 25.9913 37.614 26.0127 37.6816 26.1996C37.7775 26.4644 37.1984 27.3006 37.1984 27.3006L37.304 28.2194Z" fill="#E6BFA5"/>
<path d="M39.2347 27.9915C39.428 27.4611 39.4651 26.4872 38.9373 26.2869C38.3257 26.0548 37.0864 27.0669 36.4112 27.6232C35.9702 27.9866 35.2807 28.9799 34.9778 29.679C35.2804 30.1559 35.869 30.2088 36.2081 30.6436C36.6898 30.1984 36.9687 30.22 37.6737 29.9709C38.099 29.8207 38.173 29.3579 38.5173 29.0388C38.8947 28.689 39.0785 28.4201 39.2347 27.9915Z" fill="#FCD2B6"/>
<path d="M34.078 30.05C33.7555 30.404 33.475 30.8736 33.0984 31.2668C33.5349 30.9509 35.1297 32.9058 35.3236 33.3036C35.5668 32.8476 35.9367 32.4575 36.0959 32.2513C36.6759 31.2388 34.5639 29.5793 34.078 30.05Z" fill="#DBDBDB"/>
<path d="M36.9728 29.5636L34.9264 32.4685L33.4246 31.207L35.7296 28.463L36.9728 29.5636Z" fill="#FCD2B6"/>
<path d="M33.7757 30.6354C32.6027 31.923 31.4334 33.168 31.069 33.7267C28.2046 38.118 29.4118 39.6034 30.246 38.8757C31.3546 37.9089 35.0712 33.4725 35.4929 32.4493C34.7732 32.2361 33.6665 31.2767 33.7757 30.6354Z" fill="#F2F2F2"/>
<path d="M38.9358 26.291C38.8142 26.2483 38.6809 26.2518 38.5554 26.2776C38.4291 26.3038 38.3073 26.3484 38.1893 26.4006C37.9533 26.5058 37.7325 26.6422 37.5177 26.7854L37.4937 26.8014L37.5068 26.7757C37.5701 26.6521 37.6308 26.5255 37.6659 26.3916C37.6821 26.3257 37.6946 26.2534 37.6686 26.1916C37.644 26.1291 37.5899 26.0777 37.5239 26.0653C37.4579 26.0527 37.3892 26.0783 37.3393 26.1231C37.2883 26.1677 37.2573 26.2304 37.2192 26.2899C37.1424 26.4075 37.0468 26.5139 36.9363 26.6009C36.8265 26.6877 36.7115 26.768 36.6409 26.8866C36.5739 27.0073 36.5134 27.1341 36.4493 27.2575L36.0697 28.0023L36.0684 28.0048L36.0667 28.0068C35.8703 28.2404 35.6917 28.4891 35.5247 28.7449L35.5239 28.7461L35.5229 28.7473L33.4502 31.2284L33.4461 31.1813L34.952 32.4379L34.8939 32.4455L36.1827 30.6093L36.1853 30.6056L36.1889 30.6022C36.3759 30.4288 36.5967 30.2807 36.8397 30.1938C37.0811 30.1057 37.3245 30.0448 37.5626 29.9652C37.623 29.9458 37.6818 29.9258 37.735 29.9017C37.7875 29.8739 37.8389 29.8432 37.8834 29.8025C37.975 29.7244 38.0475 29.6233 38.1159 29.5188C38.1849 29.4143 38.2504 29.3051 38.3288 29.2033C38.4049 29.0997 38.5031 29.0113 38.593 28.9267C38.7741 28.7538 38.9369 28.5616 39.0562 28.3416C39.1743 28.1214 39.2652 27.8849 39.3102 27.6384C39.3551 27.3921 39.3678 27.138 39.3288 26.89C39.307 26.7669 39.2706 26.6453 39.2084 26.5369C39.1472 26.4288 39.0532 26.337 38.9358 26.291ZM38.9389 26.2828C39.0591 26.3276 39.157 26.4201 39.2212 26.5294C39.2864 26.6389 39.3253 26.7619 39.3493 26.8865C39.3928 27.1371 39.384 27.394 39.3425 27.6442C39.3007 27.8954 39.2123 28.1369 39.0957 28.3628C38.9775 28.5894 38.8137 28.7896 38.6333 28.9677C38.5412 29.0574 38.4521 29.1401 38.3799 29.2416C38.3059 29.3411 38.2431 29.4498 38.175 29.5569C38.1072 29.664 38.0334 29.7721 37.934 29.8601C37.8858 29.9055 37.8289 29.9413 37.7705 29.9732C37.7092 30.0022 37.6487 30.0236 37.5893 30.0438C37.3507 30.1299 37.1033 30.1909 36.8705 30.2759C36.6371 30.3597 36.4309 30.4978 36.248 30.6667L36.2542 30.6596L34.959 32.4914L34.9339 32.5269L34.9008 32.4989L33.4031 31.2325L33.3774 31.2108L33.399 31.1853L35.4852 28.7155L35.4834 28.7179C35.6528 28.4615 35.8336 28.2125 36.033 27.9781L36.03 27.9826L36.418 27.24C36.4837 27.1166 36.5448 26.9918 36.6144 26.8696C36.6898 26.7462 36.811 26.6638 36.9194 26.5798C37.0292 26.4951 37.1232 26.3926 37.2003 26.2773C37.2378 26.2205 37.2706 26.1553 37.326 26.1077C37.3797 26.0603 37.4549 26.0328 37.5274 26.0473C37.6001 26.0612 37.6588 26.1182 37.6847 26.1849C37.7129 26.2539 37.6985 26.3286 37.6819 26.3957C37.6456 26.532 37.584 26.6586 37.52 26.7826L37.5092 26.7729C37.7251 26.6302 37.9469 26.4943 38.1844 26.3896C38.3031 26.3377 38.4258 26.2933 38.5533 26.2674C38.6801 26.242 38.8152 26.2388 38.9389 26.2828Z" fill="#D6D6D6"/>
<path d="M34.0781 30.05C33.7556 30.404 33.475 30.8736 33.0985 31.2668C32.9838 31.9641 34.3353 33.4625 35.3237 33.3036C35.6062 32.9779 35.9776 32.5383 36.096 32.2513C35.4362 32.4288 33.7664 30.8972 34.0781 30.05Z" fill="white"/>
<path d="M43.1209 27.9473C43.4368 27.8847 43.5718 27.2221 43.4222 26.4673C43.2727 25.7124 42.8954 25.1513 42.5795 25.2138C42.2636 25.2764 42.1287 25.9391 42.2782 26.6939C42.4277 27.4487 42.805 28.0099 43.1209 27.9473Z" fill="#E8C0A7"/>
<path d="M37.1037 52.2069C37.0396 52.0866 37.0356 50.5086 37.0356 50.5086C37.0356 50.5086 34.2835 49.255 34.1052 51.8066C34.0728 52.2699 34.587 52.5383 34.9291 52.9665C35.1523 52.9127 37.1037 52.2069 37.1037 52.2069Z" fill="#636363"/>
<path d="M35.0103 50.5258C34.6491 50.7459 34.1592 51.033 34.1052 51.8067C34.0728 52.27 34.587 52.5383 34.9291 52.9665C34.9305 52.9654 34.933 52.964 34.9346 52.9629L35.0103 50.5258Z" fill="#DEDEDE"/>
<path d="M38.8242 55.0755C38.614 55.5522 36.6474 55.7401 35.6791 54.7421C35.3112 54.3628 35.3671 53.7363 35.1258 53.0484C34.6651 51.7352 34.0723 51.9981 34.1207 51.3056C34.2991 48.754 36.9136 49.9685 36.9136 49.9685C36.9136 49.9685 37.3132 51.4211 37.9431 52.8235C38.4611 53.977 39.1041 54.4408 38.8242 55.0755Z" fill="#DEDEDE"/>
<path d="M38.7475 55.0178C38.1493 55.3533 36.501 55.2445 35.6895 54.408C35.3215 54.0288 35.3774 53.4022 35.1361 52.7143C34.6755 51.4011 34.0826 51.6641 34.131 50.9716C34.3094 48.4199 36.9239 49.6345 36.9239 49.6345C36.9239 49.6345 37.3236 51.0871 37.9534 52.4895C38.4714 53.643 39.311 54.7018 38.7475 55.0178Z" fill="#424242"/>
<path d="M36.3763 37.6396C36.6482 37.9966 36.6935 45.4339 37.1142 50.0951C37.1703 50.3996 36.7416 50.0402 36.5255 50.1113C35.5855 50.4209 34.9662 51.0763 34.3397 50.622C33.723 46.1856 33.055 40.6017 33.2279 38.858C33.4117 37.0041 35.8012 36.8844 36.3763 37.6396Z" fill="#4560BF"/>
<path d="M25.4122 42.7587C25.6084 42.1636 34.0864 36.6627 34.7268 36.4481C36.2643 35.9327 36.8002 38.1907 36.4717 39.2613C36.3658 39.6063 31.0202 45.6349 29.4948 46.4739C26.725 47.9973 25.0307 43.916 25.4122 42.7587Z" fill="#4560BF"/>
<g opacity="0.5">
<path d="M23.2627 9.19853C23.7762 9.28103 25.6898 9.12744 26.1127 8.94808C26.3702 9.14857 27.3361 9.14976 27.8633 9.23043C27.974 9.24737 28.1989 9.2467 28.3108 9.25211C29.3487 9.30242 30.3094 8.89062 30.4953 7.86824C30.5285 7.68557 30.4635 7.50836 30.3385 7.38993C30.3366 7.21742 30.1626 7.13144 29.9461 7.10063L28.3623 6.86346C28.3118 6.85629 28.2648 6.87448 28.237 6.90686C27.4768 6.74956 26.7214 6.58479 26.3217 6.49958C26.1753 6.46836 26.0255 6.4576 25.8761 6.46759L22.9228 6.60366C22.7701 6.61384 22.6193 6.64282 22.4737 6.68986L21.2704 7.07879C21.3612 7.02765 21.4513 6.97545 21.5399 6.9205C21.6854 6.82487 21.8343 6.7297 21.957 6.60494C21.9617 6.60359 21.9642 6.60286 21.9642 6.60286C21.9642 6.60286 21.9616 6.60273 21.9595 6.60263C21.9612 6.60093 21.963 6.59952 21.9647 6.5978C22.6284 6.60458 25.4599 5.46784 25.8375 5.16784C25.8627 5.16057 25.8776 5.15596 25.8776 5.15596C25.8776 5.15596 25.8687 5.15539 25.8521 5.15459C25.8566 5.15052 25.8624 5.14594 25.8657 5.14226C26.4029 5.3483 27.0679 5.31755 27.8587 5.28931C27.9769 5.28508 28.1444 5.26897 28.335 5.24624C29.3224 5.12839 30.1032 4.52042 30.126 3.7832C30.1293 3.5274 30.0153 3.2975 29.8339 3.14449C29.8208 2.99632 29.6338 2.93845 29.4093 2.93141L28.0162 2.88923C27.106 2.82704 26.1463 2.73987 25.6677 2.73174C25.5431 2.72963 25.4189 2.74471 25.2984 2.77661L20.6043 4.10632C20.6215 4.09755 20.639 4.08938 20.6562 4.08054C20.8054 4.00282 20.9527 3.92136 21.0972 3.83521C21.2189 3.75951 21.3437 3.68438 21.4504 3.58786C21.4528 3.58588 21.4557 3.58373 21.4579 3.58178C21.4598 3.58062 21.4615 3.57902 21.4632 3.57748C21.4713 3.5705 21.4771 3.5642 21.484 3.55753C22.1176 3.59379 22.8069 3.34035 23.6289 3.04769C23.7521 3.00384 23.9234 2.93096 24.1168 2.84341C25.1186 2.38979 25.7392 1.48826 25.5174 0.703298C25.4358 0.433403 25.24 0.229444 24.9988 0.128249C24.9369 -0.0261368 24.7179 -0.023639 24.4776 0.0441551L22.9945 0.464337C22.2201 0.652316 21.4087 0.83405 20.8515 0.976588C20.4612 1.06629 20.129 1.14167 19.9143 1.18663C19.7791 1.21494 19.6471 1.25539 19.5192 1.30762L16.0556 2.61697C15.8927 2.68348 15.7376 2.76687 15.5924 2.86621C13.5827 4.24053 11.0357 5.48613 9.43932 6.89401C9.22566 7.08244 8.96163 7.4053 8.68315 7.78802C8.6664 7.18569 8.56488 6.53778 8.22361 5.87534C7.98327 5.40882 7.41354 4.61515 6.601 4.43047C6.02592 4.29975 5.06835 4.70731 5.04744 5.29667C5.04574 5.34477 5.04472 5.39063 5.04372 5.43636C5.03149 5.45385 5.02329 5.47409 5.02384 5.49343C5.04065 6.08811 5.02608 7.17294 4.96706 7.64881C4.96546 7.66178 4.96539 7.67805 4.96642 7.69653C4.75228 8.50349 3.81613 9.86235 3.74119 10.7257C3.68384 11.3866 4.12102 12.7991 4.19638 14.2061C4.28425 15.8472 4.04907 17.5229 4.56074 18.6372C4.77831 19.111 4.94352 19.5069 5.06611 19.8194C5.07917 19.9023 5.09438 19.9812 5.11177 20.0557L5.09848 20.0588C5.09848 20.0588 5.10287 20.0903 5.11107 20.1493C5.1201 20.2084 5.1379 20.2942 5.17153 20.4026C5.18876 20.4565 5.21025 20.5162 5.24112 20.5793C5.27132 20.6431 5.31663 20.7072 5.36114 20.769C5.40479 20.8341 5.45673 20.8991 5.513 20.9668C5.56693 21.0367 5.63197 21.1027 5.69781 21.1739C5.83359 21.312 5.99255 21.4502 6.17044 21.5816C6.34709 21.7149 6.54419 21.8374 6.74969 21.9561C6.95717 22.0716 7.1716 22.1869 7.39048 22.3004C7.6108 22.4134 7.82245 22.5364 8.04786 22.6584C8.10675 22.6873 8.1636 22.7213 8.22402 22.7456L8.40454 22.8189C8.52732 22.8585 8.64901 22.8993 8.77269 22.926C9.01863 22.9851 9.26415 23.0206 9.50199 23.038C9.73971 23.0589 9.96992 23.0599 10.1875 23.0552C10.405 23.0461 10.6099 23.0315 10.7981 23.0093C10.9864 22.9881 11.1578 22.9609 11.3091 22.9342C11.3845 22.9196 11.4551 22.906 11.5203 22.8934C11.5852 22.8786 11.6448 22.8649 11.6986 22.8527C11.8066 22.8294 11.8888 22.8039 11.946 22.7895C12.0028 22.7742 12.0331 22.766 12.0331 22.766L12.03 22.7533C12.8099 22.5493 13.4355 22.2309 13.647 21.859C14.13 21.0096 16.3449 20.3739 17.4194 18.8112C18.5647 17.1456 19.1262 13.9944 20.2431 12.4204C20.7634 12.3938 22.4497 12.0057 23.0626 11.6633C23.3857 11.8475 24.7374 12.1286 25.3206 12.0937C25.5048 12.277 26.0624 12.5193 26.4616 12.7787C27.1674 13.2373 28.1019 13.1037 28.6249 12.4441L28.6512 12.4109C28.7616 12.2716 28.7498 12.0769 28.6352 11.9513C28.6239 11.8542 28.5066 11.7427 28.3552 11.6414L27.503 11.0615C27.459 11.0321 27.4117 11.0214 27.3792 11.03C26.8561 10.6431 26.3295 10.2488 26.0771 10.0595C25.9756 9.9833 25.8578 9.93255 25.7328 9.91084L22.9536 9.42827C23.0651 9.36349 23.1753 9.29371 23.2627 9.19853Z" fill="white"/>
<path d="M1.52644 39.8215C-0.499469 40.9911 -0.510133 42.8879 1.50259 44.0576C3.51562 45.2274 6.79017 45.2274 8.81608 44.0578C10.8423 42.888 10.853 40.9912 8.83994 39.8213C6.82722 38.6517 3.55268 38.6517 1.52644 39.8215Z" fill="white"/>
<path d="M10.3471 41.9542C10.361 41.6006 10.3603 41.2407 10.3428 40.8751C9.86729 30.9353 14.9975 18.1509 14.9975 18.1509L5.44476 19.6915C5.44476 19.6915 0.881193 25.0408 0.0521964 40.8435C0.0320856 41.2265 0.0195002 41.5964 0.0136719 41.9542L10.3471 41.9542Z" fill="white"/>
<path d="M43.0071 14.596C42.6101 14.6598 41.1299 14.541 40.8028 14.4023C40.6036 14.5574 39.8566 14.5583 39.4488 14.6206C39.3632 14.6337 39.1892 14.6332 39.1027 14.6374C38.2999 14.6763 37.5568 14.3578 37.413 13.5671C37.3873 13.4258 37.4377 13.2887 37.5343 13.1971C37.5358 13.0637 37.6704 12.9972 37.8378 12.9733L39.0629 12.7899C39.1019 12.7843 39.1382 12.7984 39.1598 12.8235C39.7477 12.7018 40.332 12.5744 40.6411 12.5085C40.7544 12.4843 40.8703 12.476 40.9858 12.4837L43.27 12.5889C43.3881 12.5968 43.5048 12.6192 43.6175 12.6556L44.5482 12.9564C44.478 12.9169 44.4082 12.8765 44.3397 12.834C44.2272 12.76 44.112 12.6864 44.0171 12.5899C44.0134 12.5889 44.0115 12.5883 44.0115 12.5883C44.0115 12.5883 44.0135 12.5882 44.0152 12.5881C44.0139 12.5868 44.0124 12.5857 44.0112 12.5844C43.4978 12.5896 41.3077 11.7104 41.0157 11.4784C40.9962 11.4727 40.9846 11.4692 40.9846 11.4692C40.9846 11.4692 40.9915 11.4687 41.0043 11.4681C41.0009 11.4649 40.9964 11.4614 40.9938 11.4586C40.5783 11.6179 40.0639 11.5942 39.4523 11.5723C39.3609 11.569 39.2313 11.5566 39.0839 11.539C38.3202 11.4479 37.7162 10.9776 37.6986 10.4074C37.6961 10.2096 37.7843 10.0317 37.9245 9.91339C37.9347 9.79878 38.0793 9.75404 38.2529 9.74856L39.3304 9.71593C40.0345 9.66783 40.7768 9.60039 41.1469 9.59411C41.2433 9.59248 41.3394 9.60417 41.4326 9.62883L45.0633 10.6573C45.05 10.6505 45.0365 10.6442 45.0232 10.6374C44.9078 10.5773 44.7939 10.5143 44.6821 10.4476C44.5879 10.3891 44.4914 10.331 44.4089 10.2563C44.4071 10.2548 44.4049 10.2531 44.4031 10.2516C44.4017 10.2507 44.4003 10.2495 44.399 10.2483C44.3928 10.2429 44.3883 10.238 44.3829 10.2329C43.8929 10.2609 43.3597 10.0649 42.7239 9.83852C42.6287 9.80461 42.4962 9.74824 42.3466 9.68051C41.5717 9.32966 41.0917 8.63238 41.2632 8.02521C41.3264 7.81645 41.4779 7.6587 41.6644 7.58043C41.7123 7.46102 41.8816 7.46294 42.0675 7.51539L43.2147 7.8404C43.8136 7.98579 44.4412 8.12634 44.8721 8.2366C45.1741 8.30596 45.431 8.36428 45.5971 8.39906C45.7016 8.42096 45.8037 8.45225 45.9027 8.49263L48.5816 9.50538C48.7077 9.55681 48.8276 9.62133 48.9399 9.69816C50.4943 10.7612 52.4643 11.7246 53.6991 12.8135C53.8643 12.9593 54.0686 13.209 54.284 13.505C54.2969 13.0391 54.3754 12.538 54.6394 12.0256C54.8253 11.6648 55.266 11.0509 55.8944 10.908C56.3392 10.8069 57.0799 11.1222 57.0961 11.578C57.0974 11.6153 57.0982 11.6507 57.0989 11.6861C57.1084 11.6996 57.1147 11.7153 57.1143 11.7302C57.1013 12.1902 57.1126 13.0293 57.1582 13.3973C57.1595 13.4074 57.1595 13.4199 57.1587 13.4342C57.3244 14.0584 58.0484 15.1094 58.1064 15.7772C58.1508 16.2884 57.8126 17.3809 57.7543 18.4692C57.6863 19.7385 57.8683 21.0345 57.4725 21.8964C57.3042 22.2629 57.1764 22.5691 57.0816 22.8108C57.0715 22.875 57.0597 22.9359 57.0463 22.9936L57.0566 22.996C57.0566 22.996 57.0532 23.0203 57.0468 23.066C57.0399 23.1117 57.0261 23.1781 57.0001 23.2619C56.9868 23.3036 56.9701 23.3498 56.9462 23.3986C56.9229 23.4479 56.8878 23.4975 56.8534 23.5453C56.8197 23.5957 56.7795 23.6459 56.736 23.6983C56.6942 23.7523 56.6439 23.8035 56.593 23.8585C56.488 23.9653 56.365 24.0722 56.2274 24.1738C56.0908 24.2769 55.9383 24.3717 55.7794 24.4635C55.6189 24.5528 55.453 24.642 55.2838 24.7298C55.1133 24.8172 54.9497 24.9123 54.7753 25.0067C54.7298 25.0291 54.6858 25.0554 54.6391 25.0741L54.4994 25.1309C54.4045 25.1615 54.3104 25.193 54.2147 25.2137C54.0245 25.2594 53.8346 25.2869 53.6506 25.3003C53.4668 25.3164 53.2887 25.3172 53.1204 25.3136C52.9522 25.3066 52.7937 25.2953 52.6481 25.2781C52.5025 25.2618 52.3699 25.2407 52.2529 25.2201C52.1946 25.2088 52.14 25.1982 52.0895 25.1884C52.0393 25.177 51.9932 25.1665 51.9516 25.157C51.8681 25.139 51.8045 25.1193 51.7603 25.1081C51.7163 25.0963 51.6929 25.0899 51.6929 25.0899L51.6952 25.0801C51.092 24.9223 50.6081 24.6761 50.4446 24.3884C50.071 23.7314 48.3579 23.2397 47.5268 22.031C46.6409 20.7428 46.2066 18.3054 45.3427 17.088C44.9403 17.0674 43.636 16.7672 43.1619 16.5024C42.9121 16.6448 41.8665 16.8623 41.4155 16.8353C41.273 16.977 40.8417 17.1644 40.5329 17.3651C39.987 17.7198 39.2642 17.6164 38.8597 17.1063L38.8394 17.0806C38.754 16.9728 38.7631 16.8222 38.8517 16.725C38.8605 16.65 38.9512 16.5638 39.0683 16.4854L39.7274 16.0368C39.7614 16.0141 39.7981 16.0058 39.8232 16.0125C40.2278 15.7132 40.6351 15.4083 40.8303 15.2618C40.9088 15.2029 40.9999 15.1636 41.0966 15.1468L43.2462 14.7736C43.1601 14.7236 43.0748 14.6696 43.0071 14.596Z" fill="white"/>
<path d="M59.8194 38.2817C61.3863 39.1864 61.3946 40.6534 59.8378 41.5581C58.2808 42.463 55.748 42.463 54.1811 41.5583C52.6139 40.6535 52.6056 39.1864 54.1626 38.2816C55.7194 37.3769 58.2521 37.3769 59.8194 38.2817Z" fill="white"/>
<path d="M52.9969 39.9313C52.9861 39.6578 52.9867 39.3794 53.0002 39.0966C53.368 31.4086 49.4 21.5204 49.4 21.5204L56.7887 22.712C56.7887 22.712 60.3184 26.8495 60.9596 39.0722C60.9752 39.3684 60.9849 39.6546 60.9894 39.9313H52.9969V39.9313Z" fill="white"/>
<path d="M28.8313 18.7858C29.0754 18.8251 29.9854 18.752 30.1864 18.6667C30.3089 18.7621 30.7681 18.7627 31.0188 18.801C31.0715 18.8091 31.1784 18.8087 31.2316 18.8113C31.7251 18.8352 32.1819 18.6394 32.2703 18.1533C32.2861 18.0664 32.2552 17.9821 32.1958 17.9258C32.1949 17.8438 32.1121 17.8029 32.0092 17.7883L31.2561 17.6755C31.2321 17.6721 31.2098 17.6808 31.1965 17.6961C30.8351 17.6213 30.4759 17.543 30.2859 17.5025C30.2163 17.4877 30.145 17.4825 30.074 17.4873L28.6698 17.552C28.5972 17.5568 28.5254 17.5706 28.4562 17.593L27.884 17.7779C27.9272 17.7536 27.97 17.7288 28.0121 17.7026C28.0813 17.6572 28.1522 17.6119 28.2105 17.5526C28.2127 17.552 28.2139 17.5516 28.2139 17.5516C28.2139 17.5516 28.2127 17.5516 28.2117 17.5515C28.2125 17.5507 28.2133 17.5501 28.2141 17.5492C28.5297 17.5525 29.8761 17.0119 30.0556 16.8693C30.0676 16.8658 30.0747 16.8637 30.0747 16.8637C30.0747 16.8637 30.0705 16.8634 30.0626 16.863C30.0647 16.8611 30.0675 16.8589 30.0691 16.8572C30.3244 16.9551 30.6407 16.9405 31.0167 16.9271C31.0729 16.9251 31.1525 16.9174 31.2432 16.9066C31.7127 16.8506 32.084 16.5615 32.0948 16.2109C32.0964 16.0893 32.0422 15.98 31.9559 15.9072C31.9497 15.8368 31.8608 15.8093 31.754 15.8059L31.0916 15.7859C30.6588 15.7563 30.2025 15.7148 29.9749 15.711C29.9157 15.71 29.8566 15.7171 29.7993 15.7323L27.5673 16.3646C27.5755 16.3604 27.5838 16.3565 27.592 16.3523C27.6629 16.3153 27.733 16.2766 27.8017 16.2356C27.8596 16.1996 27.9189 16.1639 27.9696 16.118C27.9707 16.1171 27.9721 16.1161 27.9732 16.1151C27.9741 16.1146 27.9749 16.1138 27.9757 16.1131C27.9795 16.1098 27.9823 16.1067 27.9856 16.1036C28.2868 16.1208 28.6146 16.0003 29.0055 15.8612C29.0641 15.8403 29.1455 15.8057 29.2374 15.7641C29.7138 15.5484 30.0089 15.1197 29.9034 14.7465C29.8646 14.6181 29.7715 14.5212 29.6568 14.4731C29.6274 14.3997 29.5233 14.4008 29.409 14.4331L28.7038 14.6329C28.3356 14.7222 27.9498 14.8086 27.6849 14.8764C27.4992 14.9191 27.3413 14.9549 27.2392 14.9763C27.175 14.9898 27.1122 15.009 27.0514 15.0338L25.4045 15.6564C25.327 15.688 25.2533 15.7277 25.1842 15.7749C24.2286 16.4284 23.0175 17.0207 22.2585 17.6901C22.1569 17.7797 22.0313 17.9332 21.8989 18.1152C21.891 17.8288 21.8427 17.5207 21.6804 17.2057C21.5661 16.9839 21.2952 16.6065 20.9089 16.5187C20.6354 16.4565 20.1801 16.6503 20.1702 16.9306C20.1694 16.9534 20.1688 16.9753 20.1684 16.997C20.1626 17.0053 20.1587 17.0149 20.159 17.0241C20.167 17.3069 20.16 17.8227 20.132 18.049C20.1312 18.0552 20.1312 18.0629 20.1316 18.0717C20.0298 18.4554 19.5847 19.1015 19.549 19.512C19.5217 19.8263 19.7296 20.4979 19.7654 21.1669C19.8072 21.9472 19.6954 22.744 19.9387 23.2739C20.0422 23.4991 20.1207 23.6874 20.179 23.836C20.1852 23.8754 20.1924 23.9129 20.2007 23.9483L20.1944 23.9498C20.1944 23.9498 20.1965 23.9648 20.2004 23.9929C20.2047 24.0209 20.2131 24.0618 20.2291 24.1133C20.2373 24.1389 20.2476 24.1673 20.2622 24.1973C20.2766 24.2277 20.2981 24.2581 20.3193 24.2875C20.34 24.3184 20.3647 24.3494 20.3915 24.3816C20.4172 24.4148 20.4481 24.4462 20.4794 24.48C20.5439 24.5457 20.6195 24.6114 20.7041 24.6738C20.7881 24.7372 20.8818 24.7955 20.9796 24.8519C21.0782 24.9068 21.1802 24.9616 21.2842 25.0156C21.389 25.0694 21.4896 25.1278 21.5968 25.1858C21.6248 25.1996 21.6519 25.2158 21.6806 25.2273L21.7664 25.2622C21.8248 25.281 21.8827 25.3004 21.9415 25.3131C22.0584 25.3412 22.1751 25.3581 22.2882 25.3663C22.4013 25.3762 22.5107 25.3768 22.6142 25.3745C22.7176 25.3702 22.8151 25.3632 22.9045 25.3527C22.994 25.3426 23.0756 25.3297 23.1475 25.317C23.1834 25.3101 23.2169 25.3036 23.2479 25.2976C23.2788 25.2905 23.3071 25.284 23.3327 25.2782C23.3841 25.2672 23.4232 25.2551 23.4503 25.2482C23.4773 25.2409 23.4918 25.237 23.4918 25.237L23.4903 25.231C23.8611 25.134 24.1586 24.9826 24.2591 24.8057C24.4888 24.4019 25.5419 24.0996 26.0529 23.3565C26.5975 22.5646 26.8644 21.0662 27.3955 20.3178C27.6429 20.3051 28.4448 20.1206 28.7362 19.9577C28.8898 20.0453 29.5325 20.179 29.8098 20.1624C29.8974 20.2495 30.1625 20.3648 30.3523 20.4881C30.6879 20.7062 31.1323 20.6426 31.3809 20.329L31.3935 20.3132C31.446 20.247 31.4403 20.1544 31.3859 20.0947C31.3805 20.0485 31.3247 19.9955 31.2527 19.9473L30.8475 19.6716C30.8266 19.6576 30.8041 19.6525 30.7887 19.6566C30.5399 19.4726 30.2896 19.2852 30.1695 19.1951C30.1213 19.1589 30.0653 19.1348 30.0058 19.1245L28.6844 18.895C28.7373 18.8643 28.7897 18.8311 28.8313 18.7858Z" fill="white"/>
<path d="M18.4959 33.3467C17.5326 33.9029 17.5276 34.8048 18.4846 35.361C19.4418 35.9172 20.9988 35.9172 21.9621 35.3611C22.9256 34.8048 22.9306 33.9029 21.9735 33.3467C21.0164 32.7905 19.4594 32.7905 18.4959 33.3467Z" fill="white"/>
<path d="M22.6901 34.3608C22.6967 34.1927 22.6964 34.0216 22.6881 33.8477C22.462 29.1214 24.9014 23.0426 24.9014 23.0426L20.3591 23.7752C20.3591 23.7752 18.1892 26.3187 17.795 33.8327C17.7854 34.0148 17.7795 34.1907 17.7767 34.3608H22.6901Z" fill="white"/>
</g>
</svg>
