<svg width="59" height="49" viewBox="0 0 59 49" fill="none" xmlns="http://www.w3.org/2000/svg">
<path d="M10.4334 44.8256C10.4334 44.5581 4.91528 25.4324 6.68896 23.0249C8.46264 20.6175 21.9364 20.8377 24.0972 17.2739C25.6738 14.6736 19.1047 5.57106 22.1922 4.09987C25.2797 2.62868 48.5345 1.16526 49.9797 3.30519C51.4249 5.44511 56.4832 30.1881 55.5635 32.1943C54.6438 34.2005 51.2278 32.9968 50.768 36.3405C50.525 38.1076 53.0015 45.3683 53.0015 45.3683L10.4334 44.8256Z" fill="#FFEEF2"/>
<path d="M56.0233 45.569C56.0233 46.338 46.0018 46.7727 30.6007 46.7727C15.1997 46.7727 2.68182 46.6724 2.68182 45.6359C2.68182 44.3969 13.5574 44.6651 28.9584 44.6651C44.3595 44.6651 56.0233 44.3318 56.0233 45.569Z" fill="#756882"/>
<path d="M31.7175 26.9783C31.7175 26.9783 33.4106 25.0097 34.2646 24.0735C34.7282 23.5652 35.5749 22.1788 35.8596 21.5411C37.7158 18.7697 39.5216 18.3532 41.4912 18.7531C43.4607 19.1529 48.009 21.9282 48.009 21.9282L44.2412 29.0975C44.2412 29.0975 36.608 33.8594 36.4801 33.8287C36.3523 33.798 31.7175 26.9783 31.7175 26.9783Z" fill="#E94854"/>
<path d="M34.772 42.8261C34.7287 42.8261 34.6866 42.8115 34.6522 42.7847C34.6178 42.7578 34.5931 42.7201 34.5818 42.6775L32.6768 35.4552C32.6646 35.4043 32.6725 35.3505 32.6987 35.3054C32.7249 35.2604 32.7675 35.2275 32.8172 35.2139C32.8669 35.2003 32.9199 35.2071 32.9648 35.2327C33.0097 35.2583 33.043 35.3008 33.0575 35.3511L34.9625 42.5734C34.9704 42.6031 34.9714 42.6343 34.9655 42.6645C34.9596 42.6947 34.947 42.7232 34.9285 42.7476C34.9101 42.772 34.8864 42.7918 34.8593 42.8055C34.8322 42.8191 34.8023 42.8262 34.772 42.8261ZM18.8746 42.1574C18.84 42.1574 18.806 42.1481 18.7761 42.1305C18.7461 42.1128 18.7212 42.0875 18.704 42.057C18.6867 42.0264 18.6776 41.9918 18.6777 41.9566C18.6777 41.9214 18.6869 41.8868 18.7042 41.8563L24.36 31.86C24.4145 31.764 24.5616 31.7301 24.6558 31.7856C24.6782 31.7987 24.6978 31.8163 24.7136 31.8372C24.7293 31.8581 24.7408 31.882 24.7475 31.9074C24.7542 31.9329 24.7559 31.9594 24.7525 31.9855C24.7491 32.0117 24.7406 32.0368 24.7277 32.0596L19.0454 42.0571C19.0281 42.0877 19.0032 42.113 18.9732 42.1306C18.9432 42.1482 18.9092 42.1575 18.8746 42.1574Z" fill="#D87D61"/>
<path d="M18.4803 41.3549C18.4803 41.3549 22.5493 43.5617 28.0361 43.4948C33.523 43.4279 37.222 41.2211 37.7768 41.288C38.3317 41.3549 39.503 41.8898 39.3181 42.1573C39.1332 42.4248 35.4342 44.966 28.591 45.2335C21.7478 45.501 16.0143 42.7592 15.8294 42.3579C15.6444 41.9567 18.2954 41.2211 18.4803 41.3549ZM47.7462 12.8335L45.7755 13.5022L44.2646 15.3078L44.7244 16.1771L48.3375 15.4415L47.7462 12.8335Z" fill="#D87D61"/>
<path d="M38.5047 10.4474L41.3742 12.2985L41.8296 15.0113C41.8296 15.0113 38.6259 13.7559 37.4434 13.4215C36.261 13.0872 38.5047 10.4474 38.5047 10.4474Z" fill="#E7956F"/>
<path d="M48.9448 21.285C48.6669 22.9399 48.1123 25.0092 47.0891 27.2115C44.79 32.1595 39.6663 37.6432 33.5569 36.9746C27.4476 36.3061 23.8344 30.8225 23.8344 30.8225L32.0458 28.5485L38.1551 21.1929C38.1551 21.1929 47.3677 17.7194 48.8614 17.5589C48.9732 17.547 49.0418 17.5536 49.0598 17.5813C49.206 17.8044 49.2913 19.2216 48.9448 21.285Z" fill="#FF9C43"/>
<path d="M48.9448 21.285C46.5003 22.403 45.0473 25.8541 45.0473 25.8541L43.8878 26.543C42.7282 27.2313 42.8736 26.2969 41.5208 25.5593L48.8615 17.5589C48.9733 17.547 49.0418 17.5536 49.0599 17.5813C49.206 17.8044 49.2913 19.2216 48.9448 21.285Z" fill="#BD272D"/>
<path d="M7.37976 30.8708C7.37976 30.8708 12.2362 31.3871 12.5785 30.7532C12.8257 30.2955 12.6946 28.998 12.6946 28.998L9.51181 28.0002L7.37976 30.8708Z" fill="#E94854"/>
<path d="M12.0757 29.6855C11.1692 30.1957 10.7645 30.3636 10.1227 30.6137C8.99678 31.0524 7.95555 30.9928 6.95176 30.8223C5.37516 30.5548 4.98101 29.1505 5.835 28.0805C6.30011 27.4974 7.93448 27.272 9.36924 27.1878C10.5681 27.1169 11.6277 27.1443 11.7473 27.1443C12.01 27.1443 12.6512 26.715 12.6512 26.715C12.6512 26.715 14.572 28.2811 12.0757 29.6855Z" fill="#E7956F"/>
<path d="M9.8563 30.7C8.73032 31.1386 7.95555 30.9929 6.95176 30.8223C5.37516 30.5548 4.98101 29.1505 5.835 28.0805C6.30011 27.4974 7.93448 27.272 9.36924 27.1878C10.0696 27.2932 10.6873 29.6596 9.8563 30.7ZM6.53853 45.0394C6.53853 45.0394 6.40927 45.2023 6.40927 45.3683C6.40927 45.5179 6.55762 45.7696 8.98822 45.9033C11.4188 46.0371 15.0791 45.9678 15.1632 45.3683C15.2289 44.9002 14.4406 44.8657 14.4406 44.8657L6.53853 45.0394Z" fill="#E94854"/>
<path d="M35.2341 30.4567C35.2341 30.4567 26.6285 31.2591 26.0373 31.1923C25.4461 31.1254 22.4899 31.326 22.4899 31.326C22.4899 31.326 17.1909 42.4446 16.689 43.417C16.6862 43.4224 16.6678 43.4538 16.6434 43.4952C16.5873 43.5904 15.1226 43.2 13.8673 42.6222C12.8024 42.1314 11.8413 41.6404 11.8413 41.6404C14.0663 37.8433 17.4054 29.386 17.431 29.3205C17.3614 29.3626 12.9775 32.098 12.0778 31.8944C11.2853 31.7151 11.4224 29.5681 11.5989 28.1716C11.6449 27.8075 11.7758 27.4599 11.9808 27.1579C12.1857 26.8559 12.4588 26.6082 12.7771 26.4357C15.1717 25.1375 21.1432 21.9638 22.2928 21.9638C23.738 21.9638 35.0042 25.8759 35.0042 25.8759L35.2341 30.4567Z" fill="#759DC7"/>
<path d="M17.7116 28.8812C17.6897 28.8812 17.6681 28.8756 17.6489 28.8649C17.6296 28.8543 17.6133 28.8389 17.6014 28.8202C17.5895 28.8015 17.5824 28.7801 17.5807 28.7579C17.579 28.7356 17.5827 28.7133 17.5916 28.693C17.8532 28.0957 18.1434 27.5348 18.2729 27.3375C18.6177 26.8121 19.5097 26.5612 20.3479 26.7538C20.3813 26.7622 20.4102 26.7835 20.4283 26.8133C20.4464 26.8431 20.4523 26.879 20.4447 26.9131C20.4371 26.9473 20.4167 26.9771 20.3878 26.9961C20.3589 27.0151 20.3238 27.0218 20.2901 27.0147C19.5646 26.8479 18.7745 27.0549 18.4915 27.4861C18.3708 27.6701 18.0842 28.2254 17.8317 28.8019C17.8213 28.8255 17.8045 28.8456 17.7832 28.8596C17.7618 28.8737 17.737 28.8812 17.7116 28.8812Z" fill="#3A6C8F"/>
<path d="M29.4511 30.3877C29.437 30.3877 29.4226 30.3853 29.4085 30.3804C29.3395 30.3563 22.4674 27.9546 19.0863 26.4984C19.0549 26.4842 19.0303 26.4579 19.0176 26.4253C19.005 26.3928 19.0055 26.3564 19.0189 26.3242C19.0323 26.2919 19.0576 26.2663 19.0893 26.2528C19.1211 26.2393 19.1568 26.2391 19.1887 26.2521C22.5614 27.7046 29.4247 30.1033 29.4937 30.1274C29.5232 30.1376 29.5481 30.1582 29.5641 30.1854C29.5801 30.2126 29.586 30.2447 29.5809 30.2759C29.5758 30.3072 29.5599 30.3356 29.5362 30.3561C29.5124 30.3765 29.4823 30.3877 29.4511 30.3877Z" fill="#3A6C8F"/>
<path d="M16.6674 43.4524C16.6582 43.4704 16.6503 43.4851 16.6444 43.4959C16.4664 43.8215 15.058 43.2658 13.8026 42.688L14.1376 41.9979C14.1377 41.9979 16.7187 42.8766 16.6674 43.4524Z" fill="#1A1A1A"/>
<path d="M14.664 42.1917C14.4396 42.0966 14.2129 42.0074 13.9839 41.9244C12.4898 41.3811 11.9835 41.5519 11.8413 41.6404C11.5942 42.0791 11.3678 42.4369 11.2906 42.5262C9.58258 44.5 6.49507 44.5 6.62644 45.1688C6.7578 45.8375 14.6408 45.5355 14.7722 45.1342C14.9035 44.733 14.4437 43.9305 14.4437 43.2618C14.4438 43.0713 14.5344 42.6693 14.664 42.1917Z" fill="#E7956F"/>
<path d="M11.2905 45.5355C11.2905 45.5355 10.6993 43.1626 10.3709 43.0957C10.0424 43.0289 6.36308 44.1767 6.42935 45.3026C6.42935 45.3026 6.96978 45.5698 9.18838 45.5701C11.4071 45.5703 11.2905 45.5355 11.2905 45.5355Z" fill="#E94854"/>
<path d="M44.4617 16.5784C44.4617 16.5784 41.7026 19.9889 39.929 19.3202C38.1553 18.6514 39.7976 16.5115 39.7976 16.5115C39.7976 16.5115 40.4217 16.2995 40.9827 16.0434C41.3407 15.8796 41.6731 15.6983 41.8012 15.5419C41.928 15.3867 42.4614 15.1373 43.0684 14.8892C44.0182 14.5006 45.6093 13.8156 45.6441 13.8043C45.6211 13.8337 44.4617 15.4761 44.4617 16.5784Z" fill="#E7956F"/>
<path d="M34.0499 25.6197C34.0499 25.6197 33.9239 25.3847 34.095 25.1608C34.3053 24.8855 34.6359 25.0384 35.1334 23.9344C35.5379 23.037 37.4326 18.3171 37.6297 17.849C37.8268 17.3809 39.9946 16.3778 39.9946 16.3778C39.9946 16.3778 39.5348 17.849 40.5202 18.1165C41.6287 18.4174 43.8943 17.1895 43.8943 17.1895L40.2574 27.88L35.4323 27.6387L34.0499 25.6197Z" fill="white"/>
<path d="M44.3303 15.0403C44.3303 15.0403 43.0085 16.9669 40.9826 16.0434C41.3406 15.8796 41.9686 15.2982 42.0967 15.1417C42.2235 14.9866 42.4613 15.1372 43.0683 14.8892L44.3303 15.0403Z" fill="#1A1A1A"/>
<path d="M43.059 28.1358C43.059 28.1358 45.2195 23.8503 46.9908 21.3598C49.173 19.9499 56.2842 15.6019 56.3171 14.0304C56.3606 11.9481 55.1037 11.0279 54.184 11.0279C53.5271 11.0279 48.9615 12.3319 48.9615 12.3319C48.9615 12.3319 49.0601 11.8304 49.0272 11.7301C48.9287 11.4292 47.6477 12.3988 47.582 12.6663C47.5163 12.9338 47.3192 14.405 47.582 15.1406C47.582 15.1406 45.6441 15.9766 44.9872 16.0434C44.9872 16.0434 44.9872 15.9765 44.7901 15.8428C44.7037 15.7841 44.593 15.7436 44.593 15.7436C44.593 15.7436 42.5895 18.1499 41.8011 19.6211C41.0129 21.0923 40.3559 23.7673 40.1589 24.7035C39.9618 25.6397 38.845 27.7128 38.845 27.7128C38.845 27.7128 42.7306 28.2696 43.059 28.1358Z" fill="#E94854"/>
<path d="M47.9763 15.1072C47.954 15.1073 47.9324 15.0997 47.915 15.0857C47.8975 15.0717 47.8852 15.0521 47.8801 15.03C47.875 15.008 47.8773 14.9849 47.8868 14.9644C47.8962 14.9439 47.9122 14.9273 47.9321 14.9172C47.9647 14.9006 51.2143 13.2386 52.8479 12.1151C52.8586 12.1077 52.8707 12.1025 52.8833 12.0999C52.896 12.0972 52.9091 12.0972 52.9218 12.0997C52.9345 12.1022 52.9466 12.1072 52.9574 12.1145C52.9682 12.1217 52.9775 12.1311 52.9847 12.142C52.9919 12.1529 52.997 12.1652 52.9996 12.1781C53.0022 12.191 53.0023 12.2043 52.9998 12.2172C52.9973 12.2301 52.9924 12.2425 52.9853 12.2534C52.9781 12.2644 52.969 12.2739 52.9582 12.2813C51.314 13.4121 48.0531 15.0798 48.0204 15.0965C48.0067 15.1035 47.9916 15.1072 47.9763 15.1072Z" fill="#BD272D"/>
<path d="M51.0763 13.3766H51.0762C51.0588 13.3766 51.0421 13.3696 51.0298 13.357C51.0175 13.3445 51.0106 13.3275 51.0106 13.3098C51.0106 13.2892 51.0146 12.7976 51.3576 12.2156C51.362 12.2081 51.3679 12.2015 51.3748 12.1963C51.3817 12.1911 51.3896 12.1873 51.398 12.1852C51.4064 12.183 51.4151 12.1826 51.4236 12.1839C51.4321 12.1852 51.4403 12.1882 51.4477 12.1927C51.4551 12.1972 51.4616 12.2032 51.4667 12.2102C51.4718 12.2173 51.4756 12.2253 51.4777 12.2338C51.4797 12.2424 51.4802 12.2512 51.4789 12.2599C51.4776 12.2686 51.4747 12.2769 51.4702 12.2845C51.147 12.8328 51.142 13.3052 51.1419 13.3099C51.1419 13.3276 51.135 13.3446 51.1226 13.3571C51.1103 13.3696 51.0937 13.3766 51.0763 13.3766ZM49.0928 14.2044C49.0775 14.2044 49.0627 14.1989 49.0509 14.189C49.0392 14.179 49.0312 14.1652 49.0283 14.1498C49.0268 14.1418 48.8818 13.3372 48.9663 12.3099C48.967 12.3012 48.9694 12.2927 48.9734 12.2849C48.9773 12.2771 48.9828 12.2701 48.9894 12.2645C48.9959 12.2588 49.0036 12.2545 49.0118 12.2518C49.02 12.2492 49.0287 12.2482 49.0373 12.2489C49.0459 12.2496 49.0542 12.2521 49.0619 12.2561C49.0696 12.2601 49.0764 12.2657 49.0819 12.2724C49.0875 12.2791 49.0917 12.2868 49.0943 12.2952C49.097 12.3036 49.098 12.3124 49.0972 12.3211C49.0143 13.3294 49.156 14.1174 49.1575 14.1252C49.1593 14.1349 49.1589 14.1448 49.1565 14.1543C49.154 14.1638 49.1496 14.1727 49.1434 14.1803C49.1372 14.1878 49.1295 14.1939 49.1208 14.1981C49.112 14.2022 49.1025 14.2044 49.0928 14.2044ZM40.75 23.2657C40.7327 23.2657 40.7157 23.261 40.7007 23.2522C40.6857 23.2434 40.6733 23.2307 40.6647 23.2154C40.656 23.2001 40.6515 23.1828 40.6516 23.1652C40.6516 23.1476 40.6562 23.1303 40.6649 23.115C41.5157 21.6234 42.9909 20.0809 43.7834 19.2523C43.9906 19.0357 44.1877 18.8296 44.2519 18.7473C44.2135 18.7059 44.1202 18.6378 44.0548 18.5901C43.8587 18.447 43.6734 18.3119 43.6734 18.1499C43.6734 17.944 44.0278 17.8542 44.6114 17.7307C44.7157 17.7086 44.8422 17.6819 44.893 17.6655C44.9446 17.5251 44.9486 16.8178 44.9216 16.2151C44.921 16.2019 44.923 16.1888 44.9274 16.1764C44.9318 16.164 44.9386 16.1526 44.9473 16.1429C44.956 16.1332 44.9665 16.1253 44.9783 16.1197C44.99 16.1141 45.0027 16.1109 45.0156 16.1103C45.0716 16.1087 45.1161 16.1507 45.1185 16.206C45.1871 17.7423 45.0549 17.8096 44.9985 17.8383C44.9491 17.8635 44.8456 17.8861 44.6516 17.9271C44.4404 17.9717 43.9542 18.0746 43.8724 18.1604C43.8933 18.2254 44.0851 18.3653 44.1696 18.427C44.3392 18.5507 44.4617 18.6401 44.4617 18.7517C44.4617 18.8248 44.4216 18.8727 43.9247 19.3922C43.1381 20.2146 41.674 21.7454 40.8354 23.2157C40.8267 23.2309 40.8142 23.2436 40.7993 23.2523C40.7843 23.2611 40.7673 23.2657 40.75 23.2657ZM46.9887 21.4287C46.9745 21.4287 46.9607 21.424 46.9494 21.4154C46.9381 21.4068 46.9298 21.3947 46.9257 21.3809C46.8424 21.0954 46.7484 20.5925 46.5926 19.7595C46.4916 19.2197 46.366 18.5479 46.2005 17.7053C46.1975 17.6881 46.2013 17.6704 46.211 17.656C46.2206 17.6416 46.2355 17.6316 46.2523 17.6282C46.2691 17.6247 46.2866 17.6282 46.301 17.6377C46.3154 17.6472 46.3255 17.662 46.3293 17.6791C46.4949 18.5222 46.6206 19.1944 46.7217 19.7344C46.8767 20.5634 46.9703 21.0637 47.0517 21.3427C47.0546 21.3527 47.0552 21.3633 47.0534 21.3735C47.0517 21.3838 47.0475 21.3935 47.0414 21.4019C47.0353 21.4102 47.0273 21.417 47.0182 21.4217C47.009 21.4263 46.9989 21.4288 46.9887 21.4287Z" fill="#BD272D"/>
<path d="M47.5653 12.2719C47.5816 12.2809 47.6001 12.2852 47.6187 12.2841C47.6372 12.283 47.6551 12.2767 47.6704 12.2659C47.6856 12.255 47.6976 12.2401 47.705 12.2227C47.7123 12.2053 47.7148 12.1862 47.712 12.1674C47.6897 12.013 47.6354 11.8635 47.5504 11.7231C47.4164 11.5016 47.2509 11.3747 47.0585 11.3456C46.7583 11.3002 46.513 11.5175 46.5027 11.5268C46.4837 11.5449 46.4723 11.5699 46.4711 11.5964C46.4698 11.623 46.4788 11.6489 46.4961 11.6688C46.5134 11.6887 46.5376 11.701 46.5636 11.703C46.5896 11.7049 46.6154 11.6965 46.6354 11.6795C46.637 11.6781 46.8231 11.5154 47.0304 11.5474C47.1612 11.5675 47.2787 11.6628 47.38 11.83C47.4505 11.9466 47.4956 12.0701 47.5139 12.197C47.5161 12.2127 47.5219 12.2276 47.5308 12.2406C47.5398 12.2536 47.5516 12.2643 47.5653 12.2719Z" fill="#822C30"/>
<path d="M35.324 23.4629C35.324 23.4629 35.6497 22.7801 35.9875 22.2626C36.4234 21.5949 37.0094 20.8343 37.2685 20.1561C37.7283 18.9524 39.502 17.1468 39.9619 16.7456C40.2088 16.5301 40.6738 16.2663 41.0767 16.0321C41.424 15.8302 42.1522 15.1163 42.2282 15.008C42.3395 14.8493 40.5202 15.9097 40.1918 15.9097L39.7688 15.3405C39.623 15.0972 39.209 14.8125 39.0154 14.5788C38.9571 14.5084 38.9674 14.2998 38.9497 14.2143C38.9263 14.1002 38.7068 13.8557 38.5748 13.5984C38.2844 13.0324 38.2238 12.3013 38.2748 11.8853C38.4062 10.8153 38.7675 10.5144 38.7018 10.3806C38.6361 10.2469 37.8479 9.24376 37.5851 9.24376C37.3223 9.24376 37.0924 9.67841 37.0267 9.81218C37.0267 9.81218 35.6124 9.27825 35.253 9.14345C34.6289 8.90941 33.2823 9.34407 32.8224 10.6146C32.3626 11.8852 35.4948 18.3506 35.6262 18.9524C35.7576 19.5543 35.9547 20.5574 35.9547 20.5574C35.9547 20.5574 35.8346 22.2625 35.324 23.4629Z" fill="#E94854"/>
<path d="M36.5339 12.1861C36.5009 12.1861 36.4724 12.1608 36.4686 12.1266C36.4045 11.5385 36.5439 10.4954 36.8883 9.7679C36.8961 9.75238 36.9096 9.74059 36.9258 9.73504C36.9421 9.72949 36.9598 9.73063 36.9753 9.73821C36.9907 9.74578 37.0026 9.75921 37.0085 9.77561C37.0143 9.79201 37.0137 9.81009 37.0066 9.82599C36.6725 10.5318 36.5371 11.5425 36.5992 12.1119C36.6002 12.1212 36.5993 12.1307 36.5965 12.1397C36.5937 12.1486 36.589 12.1569 36.5828 12.1639C36.5767 12.1709 36.5691 12.1765 36.5607 12.1803C36.5522 12.1842 36.5431 12.1861 36.5339 12.1861ZM37.1182 13.532C36.6992 13.532 35.8555 13.2834 35.7507 13.252C35.7381 13.2484 35.7263 13.2424 35.7161 13.2341C35.7058 13.2259 35.6972 13.2157 35.6909 13.204C35.6846 13.1924 35.6806 13.1796 35.6791 13.1664C35.6777 13.1532 35.6788 13.1398 35.6825 13.127C35.6862 13.1143 35.6924 13.1024 35.7006 13.0921C35.7088 13.0818 35.719 13.0732 35.7305 13.0669C35.742 13.0606 35.7547 13.0568 35.7677 13.0555C35.7807 13.0542 35.7938 13.0556 35.8063 13.0596C36.0307 13.1267 36.549 13.2669 36.9057 13.3154C36.441 12.9756 35.5004 12.2789 35.249 12.023C35.2305 12.0042 35.2201 11.9787 35.2201 11.9521C35.2201 11.9255 35.2305 11.9 35.249 11.8812C35.2674 11.8623 35.2925 11.8518 35.3186 11.8518C35.3448 11.8518 35.3698 11.8623 35.3883 11.8812C35.7072 12.2058 37.2649 13.3301 37.2806 13.3414C37.2963 13.3528 37.3084 13.3686 37.3154 13.3868C37.3224 13.4051 37.3239 13.425 37.3199 13.4442C37.3159 13.4633 37.3065 13.4809 37.2928 13.4946C37.2792 13.5084 37.2618 13.5178 37.243 13.5217C37.2081 13.5287 37.1659 13.532 37.1182 13.532ZM36.1852 21.745C36.1697 21.745 36.1543 21.7412 36.1404 21.734C36.1266 21.7268 36.1146 21.7164 36.1054 21.7035C36.0963 21.6907 36.0903 21.6758 36.0879 21.6602C36.0855 21.6445 36.0867 21.6285 36.0916 21.6134C36.2738 21.0481 37.1935 18.2178 37.4074 18.0125C37.5074 17.9165 37.7676 17.7447 38.0431 17.5628C38.2807 17.4059 38.6379 17.1701 38.6909 17.1014C38.7004 17.0556 38.6503 16.9028 38.6202 16.8107C38.5604 16.6281 38.5087 16.4704 38.5598 16.3663C38.6181 16.2476 39.0399 16.1169 39.8132 15.978C39.8385 15.9743 39.8643 15.9808 39.885 15.9961C39.9057 16.0114 39.9197 16.0343 39.9242 16.0599C39.9286 16.0856 39.9231 16.112 39.9088 16.1336C39.8945 16.1551 39.8725 16.1702 39.8475 16.1756C39.3797 16.2597 38.8322 16.3912 38.7349 16.4625C38.7296 16.5106 38.7777 16.6577 38.8071 16.7473C38.8669 16.9299 38.9185 17.0876 38.8674 17.1917C38.8238 17.2805 38.6258 17.4171 38.1503 17.7311C37.8943 17.9002 37.6295 18.075 37.5425 18.1584C37.398 18.3132 36.6906 20.3982 36.2788 21.6759C36.2724 21.696 36.2598 21.7135 36.243 21.7259C36.2262 21.7383 36.206 21.745 36.1852 21.745Z" fill="#BD272D"/>
<path d="M25.3126 31.5245C25.3126 31.5245 27.5789 31.1912 29.9767 28.649C32.1323 26.3633 33.5897 25.7065 36.3488 26.3084C39.1079 26.9103 42.6868 28.6201 45.5362 25.2039L45.2171 28.4484L35.4947 35.8044L25.3126 31.5245Z" fill="#FF9C43"/>
<path d="M41.0688 27.3045C39.5432 27.3046 37.95 26.8817 36.3215 26.4048C35.6302 26.2024 35.0164 26.193 34.5065 26.2101C34.4533 26.2138 34.4066 26.1686 34.4048 26.1132C34.4043 26.1001 34.4065 26.0869 34.411 26.0746C34.4156 26.0623 34.4224 26.051 34.4313 26.0413C34.4401 26.0317 34.4507 26.024 34.4625 26.0185C34.4743 26.0131 34.487 26.0101 34.5 26.0096C35.0248 25.9917 35.6583 26.0018 36.376 26.212C38.3563 26.792 40.2826 27.2912 42.0792 27.0348C44.0809 26.749 45.6809 25.522 46.9708 23.2839C46.9774 23.2725 46.9861 23.2626 46.9964 23.2546C47.0067 23.2467 47.0185 23.2409 47.031 23.2376C47.0435 23.2342 47.0566 23.2335 47.0694 23.2353C47.0822 23.2371 47.0945 23.2415 47.1057 23.2481C47.1169 23.2548 47.1266 23.2636 47.1344 23.2741C47.1422 23.2847 47.1479 23.2966 47.1512 23.3094C47.1544 23.3221 47.1552 23.3354 47.1534 23.3485C47.1516 23.3615 47.1474 23.3741 47.1408 23.3854C45.8185 25.6799 44.1718 26.9386 42.1066 27.2335C41.7646 27.2823 41.4183 27.3045 41.0688 27.3045Z" fill="white"/>
<path d="M25.4544 31.529C25.404 31.529 25.3746 31.5259 25.3665 31.5249C25.3406 31.5217 25.3169 31.5082 25.3008 31.4873C25.2847 31.4663 25.2773 31.4398 25.2804 31.4133C25.2819 31.4003 25.2859 31.3877 25.2922 31.3762C25.2985 31.3647 25.307 31.3546 25.3171 31.3465C25.3273 31.3383 25.3389 31.3323 25.3513 31.3287C25.3638 31.3252 25.3768 31.3241 25.3896 31.3257C25.4095 31.3277 27.0359 31.4694 29.9073 28.5777C31.4771 26.9968 32.7318 26.0699 34.4999 26.0096C34.5552 26.0065 34.5999 26.0512 34.6017 26.1066C34.6021 26.1197 34.6 26.1328 34.5955 26.1452C34.5909 26.1575 34.584 26.1688 34.5752 26.1784C34.5663 26.1881 34.5557 26.1958 34.5439 26.2012C34.5321 26.2067 34.5194 26.2097 34.5065 26.2101C32.8029 26.2682 31.5809 27.1745 30.0459 28.7203C27.4337 31.3509 25.8378 31.529 25.4544 31.529Z" fill="white"/>
<path d="M22.3267 32.1933C22.3045 32.1933 22.2827 32.1876 22.2633 32.1767C22.2439 32.1658 22.2275 32.1501 22.2157 32.1311C22.2039 32.112 22.197 32.0902 22.1956 32.0677C22.1943 32.0452 22.1985 32.0227 22.208 32.0023L22.7992 30.7317C22.8066 30.7159 22.817 30.7016 22.8298 30.6898C22.8426 30.678 22.8575 30.6689 22.8738 30.663C22.89 30.6571 22.9073 30.6545 22.9245 30.6554C22.9417 30.6563 22.9586 30.6606 22.9742 30.6681C22.9898 30.6756 23.0038 30.6862 23.0154 30.6992C23.027 30.7122 23.0359 30.7274 23.0417 30.744C23.0475 30.7605 23.0501 30.7781 23.0492 30.7956C23.0484 30.8131 23.0441 30.8303 23.0367 30.8462L22.4455 32.1168C22.4349 32.1397 22.418 32.159 22.397 32.1726C22.376 32.1861 22.3516 32.1933 22.3267 32.1933Z" fill="#FFEEF2"/>
<path d="M43.148 43.963C43.0648 43.963 42.9844 43.9051 42.9436 43.8246L38.9355 35.916C35.456 35.9205 32.8383 34.2472 31.7356 33.3982C31.3906 33.1322 30.9714 32.9851 30.5388 32.9782C26.609 32.9174 25.0053 32.4064 24.4752 32.1715C24.3607 32.1208 24.2976 31.9866 24.344 31.8686C24.3926 31.7451 24.5313 31.6896 24.6501 31.7428C25.0602 31.9266 26.4403 32.5249 31.01 32.5249C31.0684 32.5249 31.4532 32.5602 31.7313 32.8079C31.7628 32.836 34.5571 35.4709 38.9258 35.4709C38.9743 35.4709 39.0228 35.4706 39.0717 35.4699C39.1608 35.468 39.2392 35.5178 39.2792 35.5966L43.3521 43.6214C43.3659 43.6487 43.3744 43.6785 43.3769 43.7091C43.3795 43.7397 43.3761 43.7706 43.3669 43.7999C43.3577 43.8292 43.343 43.8563 43.3235 43.8798C43.304 43.9033 43.2802 43.9226 43.2534 43.9367C43.2208 43.954 43.1847 43.963 43.148 43.963Z" fill="#D87D61"/>
<path d="M28.2688 44.197C28.2334 44.197 28.1984 44.1887 28.1667 44.1727C28.1349 44.1567 28.1072 44.1334 28.0857 44.1047C28.0643 44.076 28.0496 44.0426 28.0429 44.0071C28.0362 43.9717 28.0376 43.9352 28.0471 43.9004L31.0689 32.7995C31.0853 32.7397 31.1242 32.6889 31.1773 32.6584C31.2303 32.6278 31.2931 32.6199 31.3519 32.6364C31.4106 32.653 31.4605 32.6926 31.4906 32.7466C31.5206 32.8007 31.5283 32.8646 31.5121 32.9244L28.4903 44.0254C28.4769 44.0747 28.4479 44.1182 28.408 44.1492C28.368 44.1802 28.3191 44.197 28.2688 44.197Z" fill="#D87D61"/>
<path d="M26.0352 42.3579C26.0352 42.3579 30.3708 44.5648 36.2174 44.4979C42.0639 44.431 46.0054 42.2242 46.5966 42.2911C47.1879 42.3579 48.436 42.8929 48.2389 43.1604C48.0418 43.4279 44.1003 45.9691 36.8086 46.2366C29.5169 46.5041 23.4075 43.7622 23.2105 43.361C23.0134 42.9598 25.8381 42.2242 26.0352 42.3579Z" fill="#E7956F"/>
<path d="M35.3161 44.4726C34.4606 44.4726 32.0899 44.3725 28.8329 43.4252C28.8204 43.4216 28.8088 43.4155 28.7987 43.4073C28.7885 43.3991 28.7801 43.389 28.7738 43.3774C28.7675 43.3659 28.7635 43.3533 28.7621 43.3402C28.7606 43.3271 28.7616 43.3138 28.7652 43.3012C28.7688 43.2885 28.7747 43.2767 28.7828 43.2663C28.7908 43.256 28.8008 43.2474 28.8121 43.241C28.8234 43.2346 28.8359 43.2306 28.8487 43.229C28.8616 43.2275 28.8746 43.2286 28.887 43.2323C32.9588 44.4166 35.6265 44.2667 35.653 44.2651C35.7078 44.2625 35.7541 44.3038 35.7574 44.3591C35.759 44.3856 35.7502 44.4117 35.7329 44.4316C35.7156 44.4516 35.6912 44.4637 35.6651 44.4653C35.6595 44.4657 35.5394 44.4726 35.3161 44.4726Z" fill="#FFEEF2"/>
<path d="M42.3019 10.3269C42.3019 10.3269 41.7921 8.79489 43.0821 7.91943C44.4617 6.98319 45.4204 9.03313 45.4204 9.03313C45.3398 8.75678 45.586 7.86983 46.191 8.2989C46.7959 8.72796 46.7609 10.9287 46.7609 10.9287C46.7609 10.9287 46.9876 10.6891 47.2207 10.7281C47.6159 10.7943 46.9504 11.5589 46.9504 11.5589C46.9504 11.5589 47.63 12.1831 47.3907 12.7482C47.1513 13.3132 45.5784 14.6067 44.9872 14.6736C44.1883 14.764 42.6215 12.5676 42.6215 12.5676L42.3019 10.3269Z" fill="#822C30"/>
<path d="M42.461 10.0282C42.461 10.0282 40.4753 12.8763 40.6234 13.8548C40.7017 14.3719 41.4542 14.9119 41.8507 15.106C43.0716 15.7037 44.19 15.4734 44.9872 14.2723C44.9872 14.2723 46.2963 14.8055 46.3556 13.2065C46.3879 12.3336 45.2221 13.0572 45.2221 13.0572C45.2221 13.0572 44.9999 12.8354 45.3156 11.9318C44.6587 11.8649 43.2961 10.5114 43.2486 9.68976C43.2486 9.68976 42.9404 9.98349 42.461 10.0282Z" fill="#E7956F"/>
<path d="M41.8034 12.4616C41.8295 12.4111 41.8946 12.3899 41.9443 12.4173L42.0911 12.498C42.1407 12.5252 42.1611 12.5904 42.1346 12.6414C42.1085 12.6919 42.0434 12.7131 41.9937 12.6858L41.8469 12.6051C41.7974 12.5779 41.7769 12.5127 41.8034 12.4616Z" fill="#D15D4C"/>
<path d="M43.7558 10.897C43.8484 11.0089 43.9578 11.1052 44.0443 11.2224C44.1321 11.3412 44.2047 11.4709 44.2878 11.5929C44.3628 11.7031 44.1969 11.8303 44.1212 11.7192C44.0381 11.5972 43.9659 11.4671 43.8777 11.3486C43.7908 11.2319 43.6818 11.1352 43.5892 11.0232C43.504 10.9202 43.6705 10.7938 43.7558 10.897ZM42.5407 10.6893C42.5613 10.6816 42.5788 10.6673 42.5907 10.6485C42.6025 10.6296 42.6079 10.6074 42.6061 10.5851C42.6043 10.5629 42.5954 10.5419 42.5807 10.5253C42.5661 10.5087 42.5464 10.4974 42.5249 10.4933C42.512 10.4909 42.2061 10.4342 41.8972 10.5293C41.844 10.545 41.8143 10.6024 41.8303 10.6563C41.838 10.6822 41.8555 10.7039 41.8789 10.7167C41.9023 10.7295 41.9297 10.7322 41.9552 10.7244C42.216 10.6442 42.4855 10.6932 42.4881 10.6937C42.5063 10.6971 42.5244 10.6953 42.5407 10.6893ZM44.9872 11.7312C44.9872 11.7312 44.7901 12.1324 45.1052 12.6021C45.1052 12.6021 44.1332 13.8043 43.1478 13.6705C42.6268 13.5998 42.478 13.1655 42.031 12.8681C41.5969 12.5793 40.9488 12.6632 40.7155 13.0671C40.3937 13.6239 39.7853 14.9864 41.1588 15.4186C42.4421 15.8224 43.8788 15.681 44.681 14.8207C44.8185 14.6733 45.0626 14.4313 45.0219 14.2324C44.995 14.1011 44.9804 13.7967 45.0328 13.6115C45.0882 13.4156 45.1341 13.1172 45.6094 12.8043C46.0847 12.4914 45.5713 11.7444 45.5713 11.7444L44.9872 11.7312Z" fill="#822C30"/>
<path d="M41.5149 13.6061C41.5324 13.5273 41.5581 13.4414 41.6258 13.3993C41.6614 13.3773 41.7043 13.3706 41.746 13.3705C41.9172 13.3703 42.071 13.4706 42.2135 13.5672C42.2281 13.5771 42.2429 13.5872 42.2539 13.601C42.2853 13.6399 42.2787 13.6998 42.2519 13.7421C42.2251 13.7844 42.1825 13.8133 42.1412 13.8408L41.7299 14.115C41.6386 14.1758 41.4639 14.2417 41.4375 14.0818C41.4151 13.9456 41.4852 13.7389 41.5149 13.6061ZM43.8623 12.0247C43.8587 11.9462 43.7821 11.8685 43.7201 11.829C43.6463 11.782 43.5763 11.7334 43.4869 11.7244C43.4185 11.7175 43.281 11.7195 43.231 11.7755C43.1919 11.8193 43.2075 11.9038 43.2569 11.9311C43.286 11.9471 43.3191 11.9397 43.3495 11.9338C43.3925 11.9253 43.4265 11.929 43.4686 11.9424C43.5549 11.97 43.6023 12.003 43.6373 12.0867C43.6622 12.1464 43.7064 12.1882 43.7746 12.1747C43.8483 12.1601 43.8778 12.0953 43.8623 12.0247C43.8662 12.0424 43.862 12.0192 43.8623 12.0247ZM41.5367 11.5678C41.5197 11.5619 41.5136 11.5406 41.5129 11.5223C41.5094 11.4333 41.5781 11.3544 41.6587 11.3196C41.7471 11.2814 41.8796 11.2645 41.9675 11.3108C41.9885 11.3218 42.0092 11.338 42.0156 11.3612C42.0302 11.4137 42.017 11.4627 41.9774 11.5003C41.8969 11.577 41.8265 11.5038 41.7427 11.4843C41.7071 11.4761 41.6802 11.4811 41.6462 11.495C41.6316 11.501 41.5406 11.5692 41.5367 11.5678Z" fill="#1A1A1A"/>
</svg>
