<svg width="411" height="153" viewBox="0 0 411 153" fill="none" xmlns="http://www.w3.org/2000/svg">
<rect y="-1" width="411" height="134" fill="#FFBBBB"/>
<path d="M411 81.4999L407.702 80.4678L398.859 75.8433L393.081 79.0643L389.546 82.9932H387.737L381.861 91.088L380.127 93.4863H369.784C369.784 93.4863 367.622 98.6119 366.563 99.9681C365.504 101.324 361.271 109.02 359.154 110.152C358.823 110.322 358.485 110.442 358.144 110.511C353.562 105.433 348.156 99.2002 348.156 99.2002C348.156 99.2002 338.188 89.9761 337.57 86.8001C336.952 83.624 335.144 81.4999 335.144 81.4999L335.1 78.5083C335.1 78.5083 330.462 76.9874 329.8 72.5C329.8 72.5 324.299 68.0014 323.285 68.5C322.27 68.9986 317.809 78.5083 317.809 78.5083L312.164 89.7268C312.164 89.7268 302.99 100.197 301.225 99.2002C299.46 98.203 291.698 107.637 291.698 107.637L279.7 122.844L260.094 128.837C253.448 129.144 246.859 129.864 246.859 129.864C246.859 129.864 235.17 126.374 233.489 126.823C232.628 127.054 227.466 124.741 222.634 122.425C218.015 120.211 213.69 117.995 213.69 117.995C213.69 117.995 212.609 117.439 211.133 116.704C208.301 115.29 204.019 113.213 203.147 113.168C202.124 113.111 192.964 112.104 188.058 111.336C186.618 111.112 185.542 110.907 185.151 110.753C183.43 110.075 169.933 104.189 169.933 104.189L161.659 98.3725L155.44 91.8908L140.956 93.3242L135.398 98.0759L130.423 90.1606L109.788 85.1597L93.1147 69.2045L81.6983 53.5L61.1054 70.284L53.9594 62.3064L37.9482 76.0178L21.408 73.7741C21.408 73.7741 15.3853 80.7022 12.2614 81.7767C10.0657 82.5246 7.36994 83.4545 4.55106 84.4093C3.04931 84.9079 1.51353 85.4364 0 85.9425V142L411 133C410.904 106.457 411 81.4999 411 81.4999Z" fill="#FE92A1"/>
<path d="M410.998 141.808L402.988 140.608L402.943 140.532L399.766 135.241L397.081 132.482L395.214 129.597L394.347 128.259H380.67L366.602 120.497L354.932 124.118H346.741L343.958 120.497H312.312L310.704 119.132L305.866 115.027L300.593 110.406H284.188L278.491 104.889H273.25L265.879 94.6316L252.549 97.9943L250.206 101.442L238.486 107.048L237.318 110.411L233.003 115.031V120.497H222.475L221.23 121.772L218.182 124.894H215.785C213.881 124.894 207.248 123.514 207.248 123.514L200.552 128.257L198.275 129.595L197.914 129.818L191.617 131.334L189.372 129.606L183.271 124.903L176.002 120.505H164.864C164.864 120.505 139.291 121.54 139.091 120.505C138.891 119.471 135.335 113.898 135.335 113.898C129.342 106.359 128.842 104.839 128.842 104.839V102.826L124.847 99.8059H120.852L117.357 98.2961L109.866 97.9474L104.372 94.2697L99.3785 92.7895L97.3809 89.2368L94.3846 87.2632L90.8889 85.0526V82.1053L88.3919 80.2632L87.3932 77.3158L85.3956 76.5789L84.3968 73.2632L83.398 71.7895V70.3158L81.8999 68.8421L82.8986 65.5263L82.3993 63.3158L82.8986 61.8421L84.3968 58.8947L83.8974 56.523L81.8999 53.5L61.4249 70.6842L54.4335 62.2105L38.453 76.2105L22.4726 73.6316C22.4726 73.6316 16.2758 79.4029 13.4836 80.6316C7.49088 83.2686 4.42397 85.1817 0 86.7204C3.15519e-06 87.9211 8.55382e-07 112.388 8.48329e-07 124.97V137.553C1.43831 139.756 3.27606 140.907 3.60708 141.346C3.50842 141.413 3.5279 141.449 3.68756 141.449C4.02897 141.449 6.43307 141.567 10.3079 141.768C16.091 142.073 25.148 142.571 35.5108 143.162C40.123 143.425 44.9948 143.708 49.951 144H410.998V141.808Z" fill="#E96B9B"/>
<path d="M382 143.181L374.81 142.678L310.218 138.154C310.218 138.154 298.733 138.174 296.601 138.024C296.485 138.024 296.402 138.009 296.346 138C295.254 137.834 291.907 136.737 291.601 136.635H291.587H291.573C291.432 136.529 286.53 130.226 286.53 130.226C286.53 130.226 281.005 131.862 280.389 132.033L280.335 132.048H280.315H280.287C279.914 131.97 275.136 131.879 275.136 131.879L274.964 132.048L271.961 132.666L267.588 134.272C267.588 134.272 263.375 133.665 263.301 133.657C263.301 133.657 262.859 132.941 262.302 132.048C261.367 130.546 260.101 128.541 260.046 128.554C259.953 128.576 257.974 128.554 257.974 128.554L252.124 129.855C252.124 129.855 249.929 130.158 248.494 130.939L245.776 130.007C245.59 130.108 245.345 130.295 245.345 130.295L244.043 133.98L242.521 138.748L232.334 145.684L222.379 145.034L203.659 138.152L190.798 143.484L173.44 144.078L161.114 133.91L150.169 139.763L142.852 130.226L133.131 126.454L125.046 121.989L117.888 124.661H104.186L93.3097 119.605L80.4481 128.14L71.0801 127.856C71.0801 127.856 48.9849 128.533 47.9317 128.14L41.3271 132.042L39.6169 133.054C39.6169 133.054 29.4331 137.595 28.1979 138.352C27.7217 138.646 26.1262 141.046 24.3452 143.881C24.0672 144.325 23.786 144.776 23.5017 145.236C23.3349 145.504 23.1669 145.78 23 146.051H382V143.181Z" fill="#BF4F8D"/>
<path d="M403.238 128.444C402.074 128.848 398.539 130.111 398.539 130.111L393.409 130.926C393.409 130.926 385.133 133.444 384.572 133.628C384.012 133.812 375.433 132.852 375.433 132.852L366.755 133.053L361.294 133.916H354.055L351.127 135.487C351.127 135.487 344.528 136.559 344.01 136.559C343.492 136.559 338.902 135.221 338.902 135.221L335.245 135.142L330.947 133.916L327.823 132.46L323.569 132.188L319.56 131.892L318.007 131.003L315.667 130.608L313.524 130.111L311.282 131.667C311.282 131.667 300.419 133.963 300.277 133.913C300.135 133.862 295.421 137.148 295.421 137.148H290.766L287.36 136.556L281.152 136.63C281.152 136.63 273.651 137.148 272.659 137.148H269.038L265.633 136.407L262.529 136.111L259.038 136.407C259.038 136.407 252.442 136.704 251.796 136.704C251.149 136.704 244.682 137.889 244.682 137.889C244.682 137.889 232.439 137.963 231.749 137.889C231.06 137.815 219.849 136.111 219.849 136.111C219.849 136.111 217.78 135.296 217.466 135.312C217.153 135.327 212.995 133.913 212.995 133.913L206.615 134.357L201.442 133.913L195.748 133.258L194.372 131.815L190.105 131.963L180.925 133.335C180.925 133.335 176.786 133.225 176.269 133.335C175.752 133.444 168.683 133.335 168.683 133.335L160.877 134.929L149.233 135.373C149.233 135.373 136.693 136.559 136.085 136.559H126.438L121.568 135.67C121.568 135.67 118.463 135.225 116.911 134.855C115.359 134.484 113.678 135.225 113.678 135.225L107.599 135.521L102.167 135.077L98.2877 135.373L91.6069 136.559H75.5274L61.819 135.67L56.602 134.633C56.602 134.633 50.3089 134.781 49.3608 134.633C48.4126 134.484 44.1873 133.916 44.1873 133.916L40.3485 133.151C40.3485 133.151 33.6229 132.781 32.7233 132.935C31.8238 133.089 27.4616 130.111 27.4616 130.111C27.4616 130.111 25.349 130.481 24.832 130.481C24.3151 130.481 18.8818 131.963 17.9772 132.111C17.0725 132.259 13.5804 132.704 12.4813 132.679C11.3821 132.655 7.24256 133.815 6.59508 133.913C5.9476 134.01 0 132.935 0 132.935V138.333V153H410.998V125C410.998 125 404.402 128.04 403.238 128.444Z" fill="#08134B"/>
<path d="M58.1411 77.9049C60.3848 77.075 63.0996 76.654 65.6121 76.5421C66.871 76.4878 68.2179 76.6718 69.5647 76.8546C70.236 76.9487 70.999 77.28 71.7595 77.6101C72.524 77.9414 73.5459 78.6262 74.1879 79.6816H70.9725C71.6172 78.0974 73.4453 77.4338 74.596 77.045C75.7439 76.6553 77.5502 76.4807 78.544 76.3939C79.8526 76.3176 80.9957 76.5505 82.1894 76.6969C83.3846 76.8443 84.1997 77.0346 85.2038 77.3752C84.1948 77.3564 83.2977 77.536 82.2619 77.7043C81.2261 77.8726 80.2094 78.1045 79.1735 78.2716C78.1377 78.4399 77.1006 78.6104 76.2227 79.0922C75.4557 79.3524 74.4657 80.0534 74.0835 80.1829L70.8209 80.2048C70.8209 80.2048 70.7303 79.9656 70.4371 80.0398C70.3479 79.8016 70.0577 79.8747 69.9685 79.6365C69.5876 79.4692 69.2038 79.3054 68.4393 78.9741C67.3844 78.7159 66.3322 78.459 64.9869 78.274C63.3611 78.0994 60.7441 78.0334 58.1411 77.9049Z" fill="white"/>
<path opacity="0.7" d="M300.5 72C311.27 72 320 63.4934 320 53C320 42.5066 311.27 34 300.5 34C289.73 34 281 42.5066 281 53C281 63.4934 289.73 72 300.5 72Z" fill="white"/>
<path d="M164.399 39.7051C166.643 38.8753 169.358 38.4543 171.87 38.3423C173.129 38.2881 174.476 38.4721 175.823 38.6548C176.494 38.749 177.257 39.0803 178.017 39.4104C178.782 39.7417 179.804 40.4265 180.446 41.4819H177.23C177.875 39.8977 179.703 39.234 180.854 38.8453C182.002 38.4555 183.808 38.281 184.802 38.1942C186.111 38.1179 187.254 38.3508 188.447 38.4971C189.643 38.6445 190.458 38.8349 191.462 39.1755C190.453 39.1567 189.556 39.3363 188.52 39.5046C187.484 39.6729 186.467 39.9048 185.431 40.0718C184.396 40.2401 183.359 40.4107 182.481 40.8924C181.714 41.1527 180.724 41.8536 180.341 41.9831L177.079 42.0051C177.079 42.0051 176.988 41.7658 176.695 41.84C176.606 41.6018 176.316 41.675 176.226 41.4368C175.846 41.2695 175.462 41.1057 174.697 40.7744C173.642 40.5162 172.59 40.2592 171.245 40.0742C169.619 39.8997 167.002 39.8337 164.399 39.7051Z" fill="white"/>
</svg>
