<svg width="34" height="34" viewBox="0 0 34 34" fill="none" xmlns="http://www.w3.org/2000/svg">
<path d="M17.3151 30.2685C24.7644 30.2685 30.8032 24.2215 30.8032 16.762C30.8032 9.30262 24.7644 3.25555 17.3151 3.25555C9.86576 3.25555 3.8269 9.30262 3.8269 16.762C3.8269 24.2215 9.86576 30.2685 17.3151 30.2685Z" stroke="white" stroke-miterlimit="10" stroke-linecap="round" stroke-linejoin="round"/>
<path d="M1.8999 3.25555H17.4526" stroke="white" stroke-miterlimit="10" stroke-linecap="round" stroke-linejoin="round"/>
<path d="M3.20743 1.38538L1.34937 3.25551L3.20743 5.1949" stroke="white" stroke-miterlimit="10" stroke-linecap="round" stroke-linejoin="round"/>
<path d="M32.7302 30.2684H17.1775" stroke="white" stroke-miterlimit="10" stroke-linecap="round" stroke-linejoin="round"/>
<path d="M31.4226 28.329L33.3495 30.2684L31.4226 32.1386" stroke="white" stroke-miterlimit="10" stroke-linecap="round" stroke-linejoin="round"/>
<path d="M3.8269 32.2079V16.6235" stroke="white" stroke-miterlimit="10" stroke-linecap="round" stroke-linejoin="round"/>
<path d="M1.96875 30.8918L3.82681 32.762L5.7537 30.8918" stroke="white" stroke-miterlimit="10" stroke-linecap="round" stroke-linejoin="round"/>
<path d="M30.803 1.3161V16.9005" stroke="white" stroke-miterlimit="10" stroke-linecap="round" stroke-linejoin="round"/>
<path d="M28.8762 2.63209L30.8031 0.761963L32.6612 2.63209" stroke="white" stroke-miterlimit="10" stroke-linecap="round" stroke-linejoin="round"/>
<path d="M21.6143 11.898C22.1263 11.578 22.5103 11.066 22.5103 10.49C22.5103 9.52996 21.6143 8.76196 20.4623 8.76196C19.3743 8.76196 18.4143 9.52996 18.4143 10.49V23.994C18.4143 24.954 19.3103 25.722 20.4623 25.722C21.5503 25.722 22.5103 24.954 22.5103 23.994C22.5103 23.418 22.1903 22.906 21.6783 22.586" stroke="white" stroke-width="0.5" stroke-miterlimit="10" stroke-linecap="round" stroke-linejoin="round"/>
<path d="M21.8701 14.842C23.2781 14.842 24.4301 13.818 24.4301 12.602C24.4301 11.642 23.7261 10.81 22.7021 10.49" stroke="white" stroke-width="0.5" stroke-miterlimit="10" stroke-linecap="round" stroke-linejoin="round"/>
<path d="M24.1746 16.442C24.8146 16.122 25.2626 15.546 25.2626 14.842C25.2626 14.202 24.8786 13.626 24.3026 13.306M24.3026 18.042C24.8786 18.362 25.2626 18.938 25.2626 19.578C25.2626 20.218 24.8786 20.794 24.3026 21.114" stroke="white" stroke-width="0.5" stroke-miterlimit="10" stroke-linecap="round" stroke-linejoin="round"/>
<path d="M25.1981 19.13C25.9661 18.746 26.5421 18.042 26.5421 17.21C26.5421 16.378 26.0301 15.674 25.1981 15.29M21.8701 19.578C23.2781 19.578 24.4301 20.602 24.4301 21.818C24.4301 22.842 23.6621 23.674 22.5101 23.93" stroke="white" stroke-width="0.5" stroke-miterlimit="10" stroke-linecap="round" stroke-linejoin="round"/>
<path d="M13.5503 11.898C13.0383 11.578 12.6543 11.066 12.6543 10.49C12.6543 9.52996 13.5503 8.76196 14.7023 8.76196C15.7903 8.76196 16.7503 9.52996 16.7503 10.49V23.994C16.7503 24.954 15.8543 25.722 14.7023 25.722C13.6143 25.722 12.6543 24.954 12.6543 23.994C12.6543 23.418 12.9743 22.906 13.4863 22.586" stroke="white" stroke-width="0.5" stroke-miterlimit="10" stroke-linecap="round" stroke-linejoin="round"/>
<path d="M13.2946 14.842C11.8866 14.842 10.7346 13.818 10.7346 12.602C10.7346 11.642 11.4386 10.81 12.4626 10.49" stroke="white" stroke-width="0.5" stroke-miterlimit="10" stroke-linecap="round" stroke-linejoin="round"/>
<path d="M10.9903 16.442C10.3503 16.122 9.90234 15.546 9.90234 14.842C9.90234 14.202 10.2863 13.626 10.8623 13.306M10.8623 18.042C10.2863 18.362 9.90234 18.938 9.90234 19.578C9.90234 20.218 10.2863 20.794 10.8623 21.114" stroke="white" stroke-width="0.5" stroke-miterlimit="10" stroke-linecap="round" stroke-linejoin="round"/>
<path d="M9.96631 19.13C9.19831 18.746 8.62231 18.042 8.62231 17.21C8.62231 16.378 9.13431 15.674 9.96631 15.29M13.2943 19.578C11.8863 19.578 10.7343 20.602 10.7343 21.818C10.7343 22.842 11.5023 23.674 12.6543 23.93" stroke="white" stroke-width="0.5" stroke-miterlimit="10" stroke-linecap="round" stroke-linejoin="round"/>
</svg>
