<svg width="32" height="32" viewBox="0 0 32 32" fill="none" xmlns="http://www.w3.org/2000/svg">
<g clip-path="url(#clip0_326_2)">
<path d="M28.25 28.4447C28.2417 27.6567 27.9213 26.9042 27.3589 26.3522C26.7966 25.8001 26.0382 25.4937 25.2502 25.5C25.1792 25.5 25.0723 25.4999 16.0008 27.4882L7.23903 25.5413C7.22756 25.5386 7.21584 25.5365 7.20388 25.5347C6.77142 25.4698 6.33005 25.4988 5.90984 25.6199C5.48963 25.7409 5.10045 25.9512 4.76882 26.2362C4.45016 26.5094 4.19419 26.8481 4.01836 27.2293C3.84254 27.6104 3.751 28.025 3.75 28.4447C3.74969 28.9151 3.84431 29.3806 4.02817 29.8135C4.21204 30.2464 4.48138 30.6378 4.82007 30.9641C5.50642 31.6326 6.42793 32.0046 7.38599 32H24.614C25.5673 32.0095 26.4854 31.6406 27.167 30.9741C27.8487 30.3076 28.2381 29.398 28.25 28.4447ZM5.51831 30.2481C5.27546 30.0147 5.08223 29.7346 4.95021 29.4248C4.81819 29.1149 4.75009 28.7815 4.75 28.4447C4.75105 28.1687 4.81164 27.8962 4.92763 27.6457C5.04363 27.3952 5.21229 27.1727 5.42212 26.9934C5.79217 26.6751 6.26433 26.5005 6.75244 26.5013C6.84882 26.5014 6.94508 26.5081 7.04053 26.5215L15.8916 28.4883C15.9626 28.5039 16.0361 28.504 16.1072 28.4887C19.5679 27.73 24.7827 26.5933 25.2869 26.5004C25.8034 26.5031 26.2984 26.7082 26.6654 27.0718C27.0324 27.4353 27.2423 27.9282 27.25 28.4447C27.2383 29.1328 26.9543 29.7882 26.4602 30.2672C25.966 30.7462 25.3021 31.0097 24.614 31H7.38599C6.6889 31.004 6.01815 30.734 5.51831 30.2481ZM20.7525 19.6194L24.459 20.7085C24.5529 20.7362 24.6503 20.7503 24.7483 20.7505C24.8998 20.7499 25.0492 20.7151 25.1853 20.6487C25.3214 20.5822 25.4407 20.4859 25.5343 20.3668C25.6279 20.2477 25.6933 20.1089 25.7257 19.9609C25.758 19.813 25.7565 19.6596 25.7212 19.5123L23.9197 12.1379C23.8631 11.8541 23.7284 11.5918 23.5307 11.3804C23.3331 11.169 23.0804 11.0171 22.801 10.9416L20.5151 10.3595C19.9656 10.2034 19.469 9.90073 19.0785 9.48384C19.0534 9.51059 19.0295 9.53836 19.0039 9.56473C18.7985 9.77703 18.5771 9.9731 18.3414 10.1512C18.8626 10.7142 19.5297 11.1218 20.2686 11.3285L22.5544 11.9107C22.6579 11.9444 22.7498 12.0065 22.8197 12.0898C22.8896 12.1732 22.9348 12.2745 22.9499 12.3822L24.7407 19.749L16.5 17.3276V14.1563L17.8977 16.2604C17.9582 16.3517 18.0471 16.4206 18.1506 16.4564L21.3364 17.5584C21.4617 17.6015 21.5989 17.5932 21.718 17.5352C21.8371 17.4772 21.9283 17.3743 21.9716 17.2491C22.015 17.124 22.0069 16.9867 21.9491 16.8675C21.8914 16.7483 21.7887 16.6569 21.6636 16.6133L18.6372 15.5665L16.4165 12.2233C16.414 12.2195 16.4101 12.2173 16.4075 12.2137C16.3901 12.1913 16.3708 12.1704 16.3497 12.1513C16.3194 12.1123 16.279 12.0822 16.2328 12.0645C16.2085 12.0498 16.183 12.0374 16.1565 12.0271C16.1522 12.0257 16.1489 12.0226 16.1445 12.0213C16.1243 12.0173 16.1039 12.0146 16.0834 12.0132C16.0289 11.9986 15.9715 11.9986 15.917 12.0132C15.8963 12.0146 15.8758 12.0173 15.8555 12.0213C15.8511 12.0226 15.8478 12.0257 15.8434 12.0272C15.8175 12.0372 15.7925 12.0495 15.7687 12.0637C15.7224 12.0814 15.6818 12.1113 15.6513 12.1503C15.6299 12.1697 15.6102 12.1909 15.5924 12.2137C15.5899 12.2173 15.586 12.2196 15.5835 12.2233L13.3628 15.5665L10.3364 16.6133C10.2113 16.6569 10.1086 16.7483 10.0509 16.8675C9.99313 16.9867 9.98502 17.124 10.0284 17.2491C10.0717 17.3743 10.1629 17.4772 10.282 17.5352C10.4011 17.5932 10.5383 17.6015 10.6636 17.5584L13.8494 16.4564C13.9529 16.4206 14.0418 16.3517 14.1023 16.2604L15.5 14.1563V17.3275L7.2505 19.7496L9.04811 12.3893C9.06284 12.2803 9.10791 12.1776 9.17818 12.093C9.24846 12.0083 9.34111 11.9451 9.44557 11.9106L11.7314 11.3285C12.4715 11.1214 13.1394 10.7129 13.661 10.1485C13.4896 10.0192 13.3255 9.88038 13.1697 9.73268C13.0847 9.6515 13.0063 9.56462 12.9256 9.47961C12.5344 9.89859 12.0363 10.2028 11.4849 10.3595L9.19898 10.9414C8.91858 11.0177 8.66508 11.1707 8.46707 11.3834C8.26906 11.5961 8.13443 11.8598 8.07837 12.1449L6.27881 19.5124C6.2363 19.6827 6.23993 19.8612 6.28931 20.0297C6.3387 20.1981 6.43207 20.3503 6.55981 20.4707C6.68749 20.5939 6.8457 20.6809 7.01815 20.7227C7.1906 20.7645 7.37108 20.7596 7.54101 20.7085L11.2475 19.6194L11.7524 21.2982C11.8554 21.6415 11.875 22.0043 11.8096 22.3567C11.7442 22.709 11.5957 23.0407 11.3764 23.3242L9.95413 25.1201L11.0386 25.3611L12.1628 23.9416C12.4809 23.5319 12.6966 23.0522 12.7917 22.5423C12.8869 22.0324 12.8589 21.5071 12.7099 21.0102L12.2069 19.3375L16 18.223L19.7931 19.3375L19.29 21.0103C19.1411 21.5079 19.1133 22.0339 19.2089 22.5444C19.3045 23.0549 19.5209 23.5351 19.8398 23.9451L20.9742 25.3774C21.3729 25.2907 21.7373 25.2116 22.0626 25.1412L20.6262 23.3276C20.4061 23.0439 20.2569 22.7118 20.191 22.3588C20.1252 22.0059 20.1446 21.6423 20.2476 21.2983L20.7525 19.6194Z" fill="white"/>
<path d="M15.8469 9.99534C15.8914 9.9979 15.9358 9.99925 15.9805 9.99925C16.762 9.99925 17.5754 9.60142 18.2856 8.86839C19.3852 7.72703 19.9997 6.20395 20 4.61909C19.9995 4.46784 19.9929 4.31367 19.9802 4.16047C19.9165 3.17592 19.5572 2.2335 18.9492 1.45647C18.6218 1.0487 18.216 0.710678 17.7557 0.462394C17.2955 0.21411 16.7901 0.0605968 16.2695 0.010924C15.724 -0.0401377 15.1741 0.0363528 14.6632 0.234353C14.1524 0.432352 13.6945 0.746437 13.3259 1.15179C12.335 2.21588 11.8242 3.98469 12.0549 5.55319C12.2567 6.87333 12.8917 8.0889 13.8601 9.00852C14.5049 9.62376 15.1733 9.95567 15.8469 9.99534ZM14.0576 1.83319C14.2968 1.56637 14.5904 1.35388 14.9185 1.21002C15.2467 1.06617 15.6019 0.994282 15.9602 0.999204C16.0374 0.999204 16.1156 1.00221 16.1948 1.00824C16.5797 1.04674 16.953 1.16196 17.2927 1.34708C17.6323 1.53221 17.9314 1.7835 18.1724 2.08612C18.6533 2.70718 18.936 3.45869 18.9836 4.24274C18.9939 4.36921 18.9994 4.49584 19 4.62263C18.9996 5.94667 18.4861 7.21915 17.5674 8.17258C17.252 8.49838 16.6152 9.03964 15.9055 8.99704C15.4751 8.97177 15.019 8.73215 14.5505 8.28512C13.7433 7.51951 13.2134 6.5073 13.0442 5.40767C12.8552 4.12349 13.2627 2.68709 14.0576 1.83319ZM20.7494 2.83011C20.8565 3.20849 20.9291 3.59584 20.9662 3.98736C22.874 4.77419 24.5668 6.00442 25.9042 7.57608C27.2416 9.14773 28.1852 11.0155 28.6566 13.0246C29.1281 15.0338 29.1139 17.1263 28.6151 19.1288C28.1164 21.1314 27.1476 22.9862 25.7889 24.5395C26.1551 24.5876 26.513 24.686 26.8522 24.832C28.2656 23.0989 29.2429 21.0522 29.702 18.8634C30.1612 16.6747 30.0888 14.4077 29.4911 12.2527C28.8933 10.0977 27.7876 8.1174 26.2665 6.4779C24.7455 4.83841 22.8536 3.58752 20.7494 2.83011ZM2.00001 15.9994C1.99727 19.2192 3.10977 22.3406 5.14836 24.8328C5.48773 24.6868 5.84564 24.5884 6.21195 24.5405C4.85215 22.9862 3.88272 21.13 3.38412 19.1259C2.88551 17.1219 2.87213 15.0278 3.34508 13.0175C3.81803 11.0072 4.76366 9.13879 6.10348 7.56725C7.44329 5.99571 9.13864 4.76643 11.0488 3.98144C11.097 3.58646 11.1791 3.19634 11.294 2.8154C8.57613 3.78892 6.22494 5.57761 4.56153 7.93724C2.89812 10.2969 2.00356 13.1124 2.00001 15.9994Z" fill="white"/>
</g>
<defs>
<clipPath id="clip0_326_2">
<rect width="32" height="32" fill="white"/>
</clipPath>
</defs>
</svg>
