<svg width="33" height="33" viewBox="0 0 33 33" fill="none" xmlns="http://www.w3.org/2000/svg">
<path d="M32.2367 0.94078C32.0316 0.776753 31.7855 0.735747 31.5393 0.776753L11.847 4.87742C11.4778 4.95943 11.1906 5.28749 11.1906 5.69755V22.4283C10.0829 21.1981 8.4829 20.46 6.67777 20.46C3.27264 20.46 0.523926 23.2074 0.523926 26.611C0.523926 30.0145 3.27264 32.762 6.67777 32.762C10.0829 32.762 12.8316 30.0145 12.8316 26.611V12.0536L30.8829 8.28098V18.2866C29.7752 17.0564 28.1342 16.3183 26.3701 16.3183C22.965 16.3183 20.2162 19.0657 20.2162 22.4693C20.2162 25.8728 22.965 28.6203 26.3701 28.6203C29.7752 28.6203 32.5239 25.8728 32.5239 22.4693V1.55588C32.5239 1.30984 32.4009 1.0638 32.2367 0.94078ZM6.67777 31.0807C4.17521 31.0807 2.16495 29.0714 2.16495 26.57C2.16495 24.0685 4.17521 22.0592 6.67777 22.0592C9.18034 22.0592 11.1906 24.0685 11.1906 26.57C11.1906 29.0714 9.18034 31.0807 6.67777 31.0807ZM26.3701 26.98C23.8675 26.98 21.8573 24.9707 21.8573 22.4693C21.8573 19.9679 23.8675 17.9586 26.3701 17.9586C28.8726 17.9586 30.8829 19.9679 30.8829 22.4693C30.8829 24.9707 28.8726 26.98 26.3701 26.98ZM30.8829 6.64071L12.8316 10.4133V6.35366L30.8829 2.58105V6.64071Z" fill="white"/>
</svg>
