<svg width="411" height="178" viewBox="0 0 411 178" fill="none" xmlns="http://www.w3.org/2000/svg">
<rect width="411" height="134" fill="url(#paint0_linear_331_34)"/>
<path d="M411 82.4999L407.726 81.4678L398.947 76.8433L393.211 80.0643L389.702 83.9932H387.905L382.072 92.088L380.351 94.4863H370.083C370.083 94.4863 367.937 99.6119 366.885 100.968C365.833 102.324 361.631 110.02 359.53 111.152C359.201 111.322 358.866 111.442 358.527 111.511C353.978 106.433 348.611 100.2 348.611 100.2C348.611 100.2 338.716 90.9761 338.102 87.8001C337.489 84.624 335.694 82.4999 335.694 82.4999L335.65 79.5083C335.65 79.5083 331.045 77.9874 330.389 73.5C330.389 73.5 324.928 69.0014 323.92 69.5C322.913 69.9986 318.485 79.5083 318.485 79.5083L312.88 90.7268C312.88 90.7268 303.772 101.197 302.02 100.2C300.268 99.203 292.563 108.637 292.563 108.637L280.652 123.844L261.187 129.837C254.589 130.144 248.049 130.864 248.049 130.864C248.049 130.864 236.444 127.374 234.775 127.823C233.92 128.054 228.796 125.741 223.999 123.425C219.413 121.211 215.12 118.995 215.12 118.995C215.12 118.995 214.046 118.439 212.581 117.704C209.77 116.29 205.518 114.213 204.653 114.168C203.638 114.111 194.544 113.104 189.674 112.336C188.244 112.112 187.176 111.907 186.787 111.753C185.079 111.075 171.68 105.189 171.68 105.189L163.466 99.3725L157.292 92.8908L142.913 94.3242L137.395 99.0759L132.456 91.1606L111.971 86.1597L95.4182 70.2045L84.0845 54.5L63.6409 71.284L56.5466 63.3064L40.6515 77.0178L24.2312 74.7741C24.2312 74.7741 18.2521 81.7022 15.1508 82.7767C12.9711 83.5246 10.2948 84.4545 7.49635 85.4093C6.00549 85.9079 4.48083 86.4364 2.97827 86.9425V143L411 134C410.905 107.457 411 82.4999 411 82.4999Z" fill="#2F294F"/>
<path d="M411 142.82L402.991 141.627L402.945 141.552L399.769 136.289L397.083 133.546L395.216 130.676L394.349 129.346H380.672L366.604 121.626L354.934 125.228H346.743L343.96 121.626H312.314L310.706 120.269L305.868 116.187L300.595 111.592H284.189L278.493 106.105H273.251L265.881 95.9043L252.55 99.2485L250.207 102.677L238.488 108.252L237.319 111.596L233.004 116.191V121.626H222.477L221.232 122.895L218.184 126H215.786C213.882 126 207.25 124.627 207.25 124.627L200.553 129.344L198.276 130.674L197.915 130.896L191.618 132.404L189.373 130.685L183.272 126.008L176.003 121.635H164.865C164.865 121.635 139.292 122.664 139.092 121.635C138.892 120.606 135.335 115.064 135.335 115.064C129.343 107.567 128.843 106.055 128.843 106.055V104.053L124.848 101.05H120.853L117.357 99.5486L109.866 99.2018L104.373 95.5445L99.3791 94.0724L97.3815 90.5394L94.3852 88.5766L90.8894 86.3783V83.4472L88.3925 81.6153L87.3937 78.6842L85.3961 77.9514L84.3973 74.654L83.3985 73.1884V71.7229L81.9004 70.2573L82.8991 66.9599L82.3997 64.7616L82.8991 63.296L84.3973 60.3649L83.8979 58.0063L81.9004 55L61.4253 72.0893L54.4338 63.6624L38.4533 77.5851L22.4727 75.0204C22.4727 75.0204 16.2759 80.7598 13.4836 81.9817C7.49092 84.6041 4.42399 86.5067 0 88.0369C3.15521e-06 89.2309 8.55387e-07 113.563 8.48334e-07 126.076V138.588C1.43832 140.779 3.27608 141.924 3.6071 142.361C3.50845 142.428 3.52792 142.463 3.68759 142.463C4.02899 142.463 6.43311 142.581 10.308 142.78C16.0911 143.084 25.1481 143.578 35.511 144.166C40.1232 144.428 44.9951 144.709 49.9513 145H411V142.82Z" fill="#25203F"/>
<path d="M382.21 145.181L375.072 144.678L310.948 140.154C310.948 140.154 299.546 140.174 297.43 140.024C297.315 140.024 297.233 140.009 297.176 140C296.093 139.834 292.77 138.737 292.466 138.635H292.452H292.438C292.298 138.529 287.432 132.226 287.432 132.226C287.432 132.226 281.947 133.862 281.336 134.033L281.282 134.048H281.262H281.235C280.864 133.97 276.12 133.879 276.12 133.879L275.95 134.048L272.968 134.666L268.627 136.272C268.627 136.272 264.445 135.665 264.371 135.657C264.371 135.657 263.933 134.941 263.38 134.048C262.451 132.546 261.194 130.541 261.14 130.554C261.048 130.576 259.083 130.554 259.083 130.554L253.275 131.855C253.275 131.855 251.097 132.158 249.671 132.939L246.973 132.007C246.789 132.108 246.545 132.295 246.545 132.295L245.253 135.98L243.742 140.748L233.628 147.684L223.746 147.034L205.162 140.152L192.393 145.484L175.162 146.078L162.925 135.91L152.059 141.763L144.795 132.226L135.144 128.454L127.118 123.989L120.012 126.661H106.41L95.6118 121.605L82.8434 130.14L73.5433 129.856C73.5433 129.856 51.6082 130.533 50.5626 130.14L44.0059 134.042L42.308 135.054C42.308 135.054 32.198 139.595 30.9718 140.352C30.4991 140.646 28.9151 143.046 27.1471 145.881C26.871 146.325 26.5919 146.776 26.3097 147.236C26.144 147.504 25.9772 147.78 25.8116 148.051H382.21V145.181Z" fill="#2F294F"/>
<path d="M403.24 122.75C402.076 123.658 398.542 126.5 398.542 126.5L393.412 128.333C393.412 128.333 385.135 134 384.575 134.413C384.014 134.827 375.436 132.667 375.436 132.667L366.757 133.118L361.296 135.06H354.057L351.13 138.595C351.13 138.595 344.531 141.007 344.012 141.007C343.494 141.007 338.904 137.998 338.904 137.998L335.247 137.82L330.949 135.06L327.825 131.785L323.57 131.173L319.561 130.507L318.009 128.507L315.669 127.618L313.526 126.5L311.284 130C311.284 130 300.421 135.167 300.279 135.053C300.137 134.94 295.423 142.333 295.423 142.333H290.768L287.361 141L281.154 141.167C281.154 141.167 273.653 142.333 272.661 142.333H269.04L265.635 140.667L262.53 140L259.04 140.667C259.04 140.667 252.443 141.333 251.797 141.333C251.151 141.333 244.684 144 244.684 144C244.684 144 232.44 144.167 231.751 144C231.061 143.833 219.85 140 219.85 140C219.85 140 217.781 138.167 217.468 138.202C217.154 138.237 212.997 135.053 212.997 135.053L206.616 136.053L201.443 135.053L195.749 133.58L194.373 130.333L190.106 130.667L180.926 133.753C180.926 133.753 176.787 133.507 176.27 133.753C175.753 134 168.684 133.753 168.684 133.753L160.878 137.34L149.234 138.34C149.234 138.34 136.693 141.007 136.086 141.007H126.439L121.568 139.007C121.568 139.007 118.464 138.007 116.912 137.173C115.36 136.34 113.678 138.007 113.678 138.007L107.6 138.673L102.168 137.673L98.2883 138.34L91.6075 141.007H75.5278L61.8194 139.007L56.6024 136.673C56.6024 136.673 50.3092 137.007 49.361 136.673C48.4129 136.34 44.1876 135.06 44.1876 135.06L40.3487 133.34C40.3487 133.34 33.6231 132.507 32.7235 132.853C31.824 133.2 27.4618 126.5 27.4618 126.5C27.4618 126.5 25.3491 127.333 24.8322 127.333C24.3152 127.333 18.882 130.667 17.9773 131C17.0726 131.333 13.5805 132.333 12.4813 132.278C11.3822 132.223 7.24261 134.833 6.59512 135.053C5.94764 135.273 0 132.853 0 132.853V145V178H411V115C411 115 404.405 121.84 403.24 122.75Z" fill="#25203F"/>
<defs>
<linearGradient id="paint0_linear_331_34" x1="205.5" y1="0" x2="205.5" y2="134" gradientUnits="userSpaceOnUse">
<stop stop-color="#787A9E"/>
<stop offset="0.318522" stop-color="#787A9E"/>
<stop offset="1" stop-color="#25203F"/>
</linearGradient>
</defs>
</svg>
