<svg width="322" height="302" viewBox="0 0 322 302" fill="none" xmlns="http://www.w3.org/2000/svg">
<g clip-path="url(#clip0_326_33)">
<path d="M322 0H0V302H322V0Z" fill="url(#paint0_linear_326_33)"/>
<path opacity="0.33" d="M241.677 16.0799L85.1451 59.1365C87.8009 61.8751 91.2336 63.2305 94.7019 62.9101L110.168 61.5069L44.7204 77.2225C47.5138 79.6682 50.9503 80.7686 54.3689 80.3121L65.5352 78.8291L44.0397 88.2375L52.845 88.0447C60.5792 87.8771 68.2732 86.6474 75.7815 84.3787L266.66 26.6666L255.65 26.5111L96.0432 73.1047L246.955 17.8889L241.677 16.0778V16.0799Z" fill="#E6FAFF"/>
<path opacity="0.44" d="M163.563 0L93.0933 20.5716C92.1321 20.8518 91.7441 19.1642 92.6887 18.819L144.123 0H107.778L56.4905 14.1068L59.0245 15.0901C62.762 16.5397 66.7511 16.7326 70.571 15.6484L77.8471 13.5826C78.093 13.5126 78.349 13.5154 78.5938 13.5908C78.8386 13.6663 79.0649 13.8122 79.254 14.0162C80.1933 15.0379 79.7608 16.9002 78.5139 17.1996L16.0675 32.1928C23.6985 33.8397 31.5189 33.6686 39.0966 31.6889L59.8704 26.2554C59.3088 27.6634 58.4971 28.9013 57.4943 29.8793C56.4915 30.8572 55.3227 31.5507 54.0727 31.9094L15.3885 43.2025L18.1935 43.5967C24.573 44.4944 31.0327 43.9939 37.2677 42.119L177.061 0H163.563Z" fill="url(#paint1_linear_326_33)"/>
<path d="M321.996 27.4806L255.812 58.5473C252.936 53.6465 247.627 51.7288 242.956 53.9033L187.003 79.9041C188.778 75.3889 185.568 70.3561 181.444 71.1892L148.951 77.7541C147.029 71.5418 140.903 68.856 136.067 72.1075L126.886 78.2868C125.051 76.78 122.94 75.8462 120.74 75.5675C118.539 75.2889 116.316 75.6739 114.266 76.6887L66.3312 100.429L57.8553 113.498L321.996 53.589V27.4806Z" fill="url(#paint2_linear_326_33)"/>
<path d="M20.412 72.4368L166.96 42.1201L165.528 41.8878C153.409 39.921 141.083 41.2274 129.423 45.7147L129.662 43.2558C130.035 39.4012 128.096 35.7619 125.012 34.5249L124.915 34.4866C124.003 34.1172 123.039 33.974 122.08 34.0655C121.121 34.1569 120.187 34.4812 119.333 35.0193C113.254 38.8664 98.9145 47.9105 98.9145 47.9105C97.8659 43.2782 93.2732 41.2997 89.9825 44.0623L89.9685 44.074L88.0059 42.5271C85.8437 40.8281 83.2759 40.0641 80.7149 40.3579C78.2385 40.6348 75.9043 41.892 74.0687 43.9376L66.2543 52.6738L61.5218 49.06C55.8894 44.7756 49.1497 43.2034 42.618 44.6504C38.4522 45.5652 34.5269 47.6842 31.1711 50.8296C26.6201 55.0876 23.274 60.9728 21.6004 67.6628L20.4137 72.4357L20.412 72.4368Z" fill="url(#paint3_linear_326_33)"/>
<path d="M162.508 115.013H175.621V98.8914L167.083 100.722C163.71 101.443 160.492 102.989 157.622 105.267L162.508 115.013Z" fill="#9390AB"/>
<path d="M181.695 116.837H194.78V103.846L178.714 106.952L181.695 116.837Z" fill="#9390AB"/>
<path d="M130.711 117.679H146.468V98.8914L125.266 103.847L130.711 117.679Z" fill="#9390AB"/>
<g opacity="0.33">
<path d="M162.508 115.013H175.621V98.8914L167.083 100.722C163.71 101.443 160.492 102.989 157.622 105.267L162.508 115.013Z" fill="#FF7E2E"/>
<path d="M181.695 116.837H194.78V103.846L178.714 106.952L181.695 116.837Z" fill="#FF7E2E"/>
<path d="M130.711 117.679H146.468V98.8914L125.266 103.847L130.711 117.679Z" fill="#FF7E2E"/>
</g>
<path d="M129.316 113.137L146.468 98.8914L149.136 100.72C150.128 101.397 151.254 101.729 152.39 101.679C153.526 101.63 154.629 101.2 155.579 100.438L161.222 105.267L163.083 104.955C167.603 104.2 171.906 102.12 175.621 98.8914L181.427 108.077C182.968 110.517 185.971 110.749 187.763 108.569L188.361 107.842C190.107 105.728 192.351 104.331 194.78 103.847C194.981 104.356 195.276 104.803 195.642 105.153C196.007 105.503 196.433 105.746 196.887 105.864L203.445 107.6C205.634 108.18 207.92 107.813 209.911 106.561L223.666 116.789V159.683H143.608L129.316 113.137Z" fill="#5B5878"/>
<path d="M77.668 74.0252L86.6306 69.7829L90.1765 76.4064C90.6791 77.334 91.3693 78.0881 92.1804 78.5958C92.9916 79.1036 93.8964 79.3479 94.8076 79.3053L104.407 102.977L112.276 95.4587L114.281 96.1565C117.625 97.3168 121.166 97.3334 124.517 96.2045L126.742 95.4587L131.846 110.654C132.281 111.933 132.952 113.072 133.806 113.984C134.661 114.895 135.676 115.555 136.773 115.911L140.744 124.008C142.492 127.566 145.687 129.754 149.145 129.754H150.963L170.729 159.681H88.9496L60.6777 80.6413L75.1505 84.0505L77.668 74.0252Z" fill="#2F294F"/>
<path d="M122.82 108.497L129.593 128.945L121.216 120.069L117.002 121.177L114.406 118.62C110.123 114.421 106.7 109.063 104.409 102.972L112.276 95.4587L115.441 102.018C116.227 103.648 118.096 103.945 119.212 102.616L122.82 108.497Z" fill="#2F294F"/>
<path d="M155.303 145.799L140.268 133.777C140.223 135.761 138.52 137.072 136.985 136.304L127.073 131.343L131.861 141.816L119.744 133.159L120.303 134.496C120.899 135.919 119.421 137.287 118.412 136.247L104.206 121.612L113.52 135.215L101.457 126.127L106.923 135.569L94.7578 126.06L112.243 153.719L139.273 152.888L155.303 145.799Z" fill="#25203F"/>
<path d="M91.7284 95.4587L85.9753 91.3793C85.2362 90.8566 84.3824 90.6263 83.5315 90.7202C82.6806 90.8141 81.8745 91.2275 81.2244 91.9035L75.1471 84.0452L60.6743 80.636L67.1955 72.8864L68.1279 73.7589C69.058 74.626 70.1464 75.2061 71.3001 75.4496C72.4538 75.6932 73.6388 75.5931 74.7539 75.1578L77.6645 74.0253L91.7284 95.4587Z" fill="#25203F"/>
<path d="M115.678 156.596L0 159.678V46.2762L8.49162 50.4312C12.819 52.5422 17.6086 52.7843 22.0644 51.1173L23.9064 50.428L31.4709 58.983C32.7204 60.3957 34.7564 59.9962 35.5612 58.1797L38.1564 52.3201C42.8749 51.3826 47.5471 54.2506 49.6486 59.374L51.9485 64.979C54.6469 71.5214 58.8867 76.9319 64.1241 80.5166L67.5319 82.8605L69.0584 88.4452C70.2315 92.7003 72.5416 96.3524 75.6189 98.8168L79.6786 102.084C84.0275 116.948 91.419 130.28 101.185 140.873L115.678 156.596Z" fill="#25203F"/>
<path d="M78.693 119.487L80.4013 128.397L69.8641 119.756C69.6019 129.48 56.266 119.66 53.344 117.646L54.7814 125.516L28.0867 111.038L85.2893 156.333L112.235 152.91C100.428 143.208 89.368 132.22 79.1902 120.081L78.693 119.487Z" fill="#2F294F"/>
<path d="M62.4769 159.678L31.9716 129.748L52.291 141.972C50.5327 137.695 47.8544 134.08 44.5421 131.514L27.5248 118.284C30.9474 118.754 34.2381 120.163 37.1497 122.407L79.7039 155.247L62.4769 159.678Z" fill="#514E6E"/>
<path d="M135.78 142.878L134.221 140.828L135.694 147.742L123.519 138.981L126.5 146.758L123.501 145.043C121.517 143.912 119.291 143.579 117.142 144.091C115.469 141.851 113.202 140.4 110.74 139.993L107.332 139.423L121.284 150.999L116.216 149.9L116.508 150.903C116.698 151.552 116.158 152.166 115.621 151.904L107.827 148.081L110.518 150.999H109.682C105.454 150.999 101.305 149.603 97.6755 146.96L79.7057 133.839L93.6201 149.222L89.4774 146.754L89.8086 150.506L65.7912 136.286L63.1506 131.492C62.7259 134.901 64.0498 138.277 66.5121 140.075L87.1129 155.12L69.9392 152.623C66.5539 152.14 63.4249 150.184 61.126 147.116C60.2644 150.197 57.5058 151.904 54.8967 150.971L0.442993 131.492V159.678H224.108V131.492L143.862 146.289C142.389 146.565 140.883 146.398 139.475 145.803C138.067 145.209 136.798 144.205 135.78 142.878Z" fill="#25203F"/>
<path d="M322 186.938H0V302H322V186.938Z" fill="#25203F"/>
<path d="M268.986 192.251L230.15 191.846L229.713 190.624L273.185 191.816L268.986 192.251Z" fill="#2E2E47"/>
<path d="M204.187 231.935L188.371 232.087C180.795 232.157 173.294 233.927 166.244 237.308L164.965 237.922L182.179 236.211C193.166 235.12 204.225 236.029 214.992 238.91L196.4 240.953C193.559 241.265 191.209 243.723 190.577 247.04L86.663 238.921L132.059 229.298L100.366 225.874L141.623 224.228C147.238 224.004 152.808 222.928 158.204 221.023L163.337 219.212L126.816 218.764H105.987L94.6023 217.663L118.414 214.983L136.121 210.925L108.672 213.802L69.7601 214.813L39.7887 213.329L29.0854 211.67L37.3717 210.285L62.8973 208.007L123.889 203.533L166.505 203.125L191.188 201.418L208.856 201.808L221.217 204.947L230.334 205.273L231.886 206.913L277.543 204.35L321.003 200.559L274.177 208.844L264.348 212.119C256.605 214.7 248.613 216.006 240.586 216.003L208.867 215.996L214.167 218.563L194.729 217.978C190.304 217.843 185.911 218.928 181.879 221.153L259.884 221.725L239.344 224.885L156.023 225.477L146.084 227.585L204.321 229.643L204.187 231.935Z" fill="#2F294F"/>
<path d="M107.351 155.675H95.9096C93.2567 155.675 91.1036 158.24 91.1036 161.402H122.817L112.093 156.687C110.572 156.018 108.968 155.676 107.351 155.675Z" fill="#60596C"/>
<path d="M321.997 123.3L259.882 156.967L214.781 168.591C212.231 170.769 209.325 172.249 206.263 172.932L143.611 186.938L174.189 187.791C175.229 187.819 175.428 189.565 174.433 189.921L193.023 191.724L195.659 190.872C200.32 189.355 205.135 188.653 209.957 188.787L321.997 191.903V123.3Z" fill="#25203F"/>
<path d="M319.218 189.586L273.243 189.194L287.178 187.278L320.528 187.337L319.218 189.586Z" fill="#25203F"/>
<path d="M253.927 212.174L0.442993 216.913V184.327L71.8179 170.477L56.7753 159.678L75.5473 159.707L132.643 156.962L107.331 163.59H242.491L143.608 186.938L219.026 194.241C231.995 195.499 244.253 201.798 253.927 212.174Z" fill="#25203F"/>
<path d="M219.026 194.241L156.578 188.194L168.819 190.858C170.323 191.186 171.838 191.434 173.363 191.604L208.741 195.499C211.529 198.062 214.737 199.864 218.148 200.782L232.696 202.235C238.355 202.798 243.877 204.649 248.977 207.692L249.961 208.28C240.925 200.175 230.209 195.312 219.026 194.241Z" fill="#2E2E47"/>
<path d="M104.938 215.69L109.964 216.116L136.577 215.59L141.74 215.003L138.507 211.902L137.353 209.523L131.722 210.425C130.108 210.682 128.57 211.42 127.245 212.572L123.124 209.099L119.176 210.435L118.408 209.335L114.681 210.053L104.938 215.69Z" fill="#514E6E"/>
<path d="M0 174.306L49.5962 174.792L78.0158 175.172L74.448 179.052L49.556 178.733L70.0161 180.911L38.9463 182.023L71.1468 182.643L70.3088 183.553C69.5336 183.626 68.7649 183.778 68.0107 184.008L5.96283 186.363L57.8501 187.022L62.968 187.179L62.9383 187.21L61.2781 189.048L10.5975 189.329L59.5497 190.966L57.8729 192.827L13.0284 193.757L26.6659 195.035L55.6866 195.248L51.5072 199.887L20.7091 201.145L7.33121 202.948L48.7556 202.955L48.268 203.496L42.2729 204.515C41.2391 203.313 39.5204 202.906 38.0349 203.514C33.3006 205.448 29.1614 208.542 26.0219 212.496L25.1839 213.551C24.4289 214.5 23.722 215.484 23.0588 216.494L0 216.913V174.306Z" fill="#43485E"/>
<path d="M180.004 177.367L148.333 177.163L147.722 176.844C146.885 176.417 146.024 176.015 145.167 175.612L149.94 175.466L192.59 174.924L138.657 172.877C137.783 172.551 136.909 172.222 136.022 171.918L165.478 171.352L129.899 170.06L129.724 170.01L156.76 168.657L126.339 169.047L107.337 163.59H242.497L204.303 173.369L169.689 181.108L157.805 178.072L180.004 177.367Z" fill="#2E2E47"/>
<path d="M153.117 178.221C152.669 178.404 152.242 178.655 151.846 178.967L150.549 178.3L153.117 178.221Z" fill="#8EA899"/>
<path d="M56.4844 195.259L59.4509 195.28L59.1294 199.581L56.8243 199.675L56.4844 195.259Z" fill="#384256"/>
<path d="M60.2724 184.302L55.656 184.477L55.5215 182.73L56.854 182.368L60.4113 182.436L60.2724 184.302Z" fill="#384256"/>
<path d="M59.6371 192.79L56.3001 192.86L56.1454 190.852L59.7734 190.974L59.6371 192.79Z" fill="#384256"/>
<path d="M58.8777 202.953L58.6566 205.91L57.1589 204.032L57.0759 202.953H58.8777Z" fill="#384256"/>
<path d="M60.0635 187.091L59.9167 189.055L56.009 189.077L55.8491 186.997L57.8501 187.022L60.0635 187.091Z" fill="#384256"/>
<path d="M321.996 27.3165L304.383 60.6823C302.35 64.5326 298.194 65.9113 294.785 63.8646L274.793 90.7124L157.417 141.795C156.466 142.209 155.439 142.288 154.453 142.022C153.467 141.755 152.564 141.154 151.846 140.288L147.72 143.499C142.838 147.297 137.621 150.41 132.166 152.781L107.334 163.59H321.996V27.3165Z" fill="#25203F"/>
<path d="M107.585 193.017L153.178 196.318L142.681 196.977L118.751 197.709L111.721 198.85L172.532 199.284L122.923 201.525L136.258 202.648L187.499 203.712L173.861 204.993L139.304 205.249L131.326 209.445H151.33L163.385 212.9L91.6287 212.917L88.7434 211.097L110.083 207.544L85.4142 205.249L96.1646 204.993L120.343 203.712L84.467 202.649L80.3182 201.525L101.163 199.284L76.8335 198.85L79.0206 197.71L86.4645 196.978L111.107 196.318L75.5472 193.018L92.3452 191.977L82.6801 190.866L86.6306 189.514L150.975 188.688L130.514 190.866L161.584 191.976L107.585 193.017Z" fill="#2F294F"/>
<path d="M127.81 154.679L135.121 153.028C136.511 154.154 138.087 154.893 139.737 155.193C141.388 155.493 143.072 155.347 144.671 154.766L160.955 148.846L160.187 155.11L160.438 155.012C167.533 152.237 174.976 151.025 182.42 151.432C180.447 156.253 177.55 160.424 173.974 163.59H107.334L114.134 159.099C114.425 159.433 114.786 159.663 115.177 159.763C115.569 159.863 115.975 159.829 116.352 159.665L127.81 154.679Z" fill="#2E2E47"/>
<path d="M159.831 140.744L182.15 131.031L274.793 90.7135L321.996 69.4633V117.755L229.373 146.384L247.024 135.124L255.621 127.969L193.355 153.524L210.569 135.795L194.811 139.324L207.461 127.956L166.217 141.935L169.975 139.3C170.665 138.817 170.228 137.553 169.451 137.791L159.831 140.744Z" fill="#2E2E47"/>
<path d="M221.134 150.999L252.803 143.597L289.349 131.663L258.871 139.58L221.134 150.999Z" fill="#54727A"/>
<path d="M189.347 157.602L212.094 148.846L243.615 134.733L214.666 146.167L189.347 157.602Z" fill="#2E2E47"/>
<path d="M153.504 141.891C154.313 142.673 155.276 143.183 156.297 143.37C157.318 143.557 158.361 143.415 159.322 142.957L180.411 132.915L180.171 131.891L157.417 141.799C156.637 142.136 155.804 142.248 154.983 142.127C154.162 142.006 153.375 141.655 152.683 141.102L153.504 141.891Z" fill="#2E2E47"/>
<path opacity="0.55" d="M272.13 107.227L223.156 131.915L214.3 140.842L272.929 113.498L272.13 107.227Z" fill="#43485E"/>
<path d="M314.22 66.4397L313.723 70.0961C313.69 70.3393 313.603 70.5668 313.471 70.7535C313.339 70.9403 313.167 71.0793 312.975 71.1552C312.783 71.231 312.577 71.241 312.38 71.1838C312.183 71.1267 312.003 71.0047 311.86 70.8312L311.02 71.8497C310.148 72.9079 308.998 73.558 307.773 73.686C306.547 73.814 305.324 73.4117 304.317 72.5497L302.625 74.3417C302.426 74.5529 302.194 74.7132 301.943 74.8134C301.692 74.9135 301.427 74.9513 301.164 74.9246C300.901 74.8979 300.645 74.8072 300.411 74.6578C300.177 74.5085 299.97 74.3035 299.802 74.0551L298.102 75.2536C297.682 75.55 297.211 75.723 296.726 75.7589C296.241 75.7948 295.756 75.6926 295.31 75.4605C294.863 75.2283 294.467 74.8725 294.152 74.4213C293.838 73.9701 293.614 73.4358 293.498 72.8608L292.575 73.988C291.543 75.2476 290.228 76.1071 288.797 76.4583C287.365 76.8096 285.88 76.637 284.529 75.9621L284.51 75.9888C284.009 76.7493 283.3 77.2645 282.512 77.4406C281.725 77.6166 280.912 77.4416 280.222 76.9476L279.484 78.4967C279.263 78.96 278.948 79.3458 278.569 79.6168C278.189 79.8877 277.759 80.0346 277.319 80.0432C276.88 80.0517 276.446 79.9217 276.06 79.6657C275.674 79.4097 275.348 79.0364 275.115 78.5819C274.654 79.4076 274.024 80.0721 273.287 80.5099C272.55 80.9477 271.733 81.1435 270.915 81.0781L269.987 81.0035L267.707 84.01C267.48 84.3099 267.201 84.5453 266.891 84.6997C266.581 84.854 266.247 84.9234 265.913 84.9031C265.578 84.8828 265.251 84.7732 264.955 84.5821C264.659 84.3909 264.401 84.1229 264.2 83.797L263.875 84.3936C263.674 84.7626 263.414 85.0792 263.112 85.3249C262.81 85.5706 262.47 85.7405 262.113 85.8248C261.757 85.9091 261.39 85.906 261.034 85.8158C260.678 85.7255 260.341 85.5499 260.041 85.2992L259.938 85.5634C259.65 86.2985 259.244 86.9556 258.744 87.4958C258.244 88.036 257.661 88.4482 257.027 88.7079C256.394 88.9677 255.725 89.0697 255.059 89.0079C254.392 88.9461 253.743 88.7218 253.15 88.3483L252.998 88.5475C252.591 89.0853 252.095 89.5129 251.543 89.8026C250.991 90.0923 250.396 90.2378 249.795 90.2296C249.195 90.2213 248.602 90.0596 248.056 89.7548C247.51 89.4501 247.022 89.009 246.624 88.4602L245.713 89.5991C245.449 89.9304 245.127 90.1834 244.77 90.3386C244.413 90.4938 244.031 90.5471 243.655 90.4943C243.279 90.4415 242.917 90.284 242.599 90.0341C242.28 89.7841 242.013 89.4483 241.817 89.0525L240.653 90.8573C240.383 91.2766 240.042 91.6218 239.655 91.8703C239.268 92.1189 238.842 92.2652 238.405 92.2999C237.968 92.3346 237.53 92.2568 237.12 92.0716C236.709 91.8863 236.335 91.5979 236.022 91.2249L235.355 92.9859C235.174 93.4631 234.899 93.8784 234.555 94.1945C234.21 94.5107 233.807 94.718 233.381 94.7978C232.955 94.8777 232.519 94.8277 232.113 94.6522C231.706 94.4768 231.342 94.1814 231.052 93.7924C230.892 94.1948 230.651 94.5416 230.353 94.8008C230.054 95.06 229.706 95.2233 229.342 95.2757C228.978 95.328 228.608 95.2676 228.268 95.1002C227.928 94.9328 227.628 94.6637 227.396 94.3177L226.911 93.5953C226.435 94.3838 225.826 95.0382 225.124 95.5139C224.423 95.9897 223.645 96.2757 222.845 96.3526L222.77 96.36L221.293 99.6808C221.175 99.9481 221.003 100.175 220.794 100.34C220.585 100.506 220.345 100.605 220.096 100.628C219.848 100.651 219.598 100.598 219.371 100.474C219.143 100.349 218.945 100.157 218.794 99.9152L217.109 104.338C217.009 104.599 216.864 104.831 216.685 105.019C216.506 105.207 216.295 105.346 216.068 105.427C215.841 105.507 215.603 105.528 215.369 105.487C215.135 105.446 214.91 105.345 214.711 105.19L212.921 106.868C212.551 107.214 212.126 107.464 211.673 107.6C211.22 107.736 210.749 107.757 210.289 107.66C209.829 107.563 209.391 107.351 209.001 107.038C208.612 106.724 208.281 106.315 208.027 105.838L205.474 111.202C205.21 111.755 204.802 112.184 204.314 112.419C203.826 112.654 203.287 112.682 202.784 112.497L201.904 113.719C201.555 114.203 201.13 114.597 200.654 114.877C200.179 115.158 199.662 115.319 199.134 115.353C198.607 115.386 198.079 115.29 197.582 115.071C197.085 114.852 196.629 114.514 196.241 114.077L194.406 118.812C194.169 119.423 193.796 119.942 193.331 120.309C192.865 120.677 192.324 120.878 191.769 120.892L191.101 122.646C190.986 122.948 190.814 123.214 190.601 123.421C190.387 123.629 190.137 123.773 189.869 123.842C189.602 123.911 189.325 123.904 189.061 123.82C188.797 123.737 188.552 123.579 188.346 123.36L187.462 128.561L187.488 131.908L222.003 115.288L242.394 110.851L267.524 113.144L267.469 114.987C267.451 115.608 267.328 116.217 267.106 116.776C266.885 117.335 266.57 117.832 266.183 118.235C265.796 118.639 265.344 118.939 264.856 119.118C264.369 119.297 263.856 119.351 263.35 119.275C263.385 119.54 263.362 119.811 263.284 120.062C263.207 120.312 263.077 120.534 262.908 120.705C262.739 120.876 262.536 120.991 262.32 121.038C262.103 121.084 261.881 121.061 261.674 120.972L260.038 120.263L262.026 132.903L291.151 115.296L308.864 116.909L321.997 112.242V63.2595L321.637 64.3814C320.457 68.0697 316.596 69.1436 314.22 66.4397Z" fill="#25203F"/>
<path d="M216.026 116.829L196.941 125.523L183.209 133.901L221.134 119.67L216.026 116.829Z" fill="#43485E"/>
<path d="M185.141 132.854L187.485 128.715L187.994 129.064C188.17 129.184 188.364 129.259 188.565 129.285C188.765 129.31 188.968 129.286 189.16 129.213C189.352 129.14 189.531 129.02 189.684 128.861C189.837 128.701 189.962 128.506 190.051 128.285L191.767 124.031C192.384 124.329 193.073 124.317 193.682 123.997C194.292 123.678 194.774 123.077 195.022 122.327L196.442 118.052C196.989 118.556 197.664 118.811 198.349 118.772C199.034 118.733 199.686 118.403 200.193 117.839L201.759 116.098C202.412 116.362 203.115 116.388 203.781 116.171C204.446 115.955 205.045 115.506 205.505 114.881L206.534 113.48C207.426 114.089 208.461 114.312 209.47 114.112C210.48 113.912 211.404 113.301 212.091 112.378L212.939 111.241C213.655 111.513 214.418 111.542 215.147 111.326C215.875 111.109 216.542 110.654 217.075 110.011L219.462 107.126C219.711 107.598 220.041 107.998 220.43 108.299C220.819 108.599 221.257 108.793 221.713 108.865C222.17 108.938 222.634 108.888 223.073 108.719C223.512 108.551 223.916 108.267 224.256 107.889L225.381 106.636C225.468 106.951 225.624 107.231 225.832 107.446C226.041 107.66 226.294 107.8 226.564 107.851C226.833 107.901 227.109 107.86 227.361 107.733C227.613 107.605 227.831 107.395 227.991 107.126L229.359 104.811L229.563 105.803C229.628 106.117 229.762 106.403 229.949 106.633C230.136 106.863 230.371 107.027 230.628 107.109C230.885 107.191 231.155 107.187 231.411 107.098C231.666 107.009 231.898 106.838 232.08 106.603L232.343 106.265L232.335 115.321L227.158 122.238C222.124 119.736 216.514 119.56 211.381 121.745L187.487 131.916L185.141 132.854Z" fill="#2F294F"/>
<path opacity="0.55" d="M202.892 125.357L200.298 126.461V123.262L202.892 122.158V125.357Z" fill="#231237"/>
<path opacity="0.55" d="M204.011 124.88L203.438 125.124V121.925L204.011 121.681V124.88Z" fill="#231237"/>
<path opacity="0.55" d="M216.19 117.363V120.428C216.054 120.447 215.917 120.461 215.781 120.484V117.423C215.917 117.406 216.054 117.38 216.19 117.363Z" fill="#231237"/>
<path opacity="0.55" d="M199.751 123.494V126.694L199.37 126.857V123.657L199.751 123.494Z" fill="#231237"/>
<path opacity="0.55" d="M192.761 126.471V129.669L192.052 129.972V126.773L192.761 126.471Z" fill="#231237"/>
<path opacity="0.55" d="M217.196 120.294V117.264C221.221 116.956 225.246 117.854 228.92 119.881L227.157 122.237C224.002 120.671 220.594 120.006 217.196 120.294Z" fill="#231237"/>
<path opacity="0.55" d="M215.234 120.563C213.923 120.816 212.633 121.211 211.379 121.744L205.017 124.452V121.256L210.562 118.895C212.079 118.251 213.644 117.787 215.234 117.51V120.563Z" fill="#231237"/>
<path opacity="0.55" d="M198.823 123.89V127.089L193.767 129.241V126.043L198.823 123.89Z" fill="#231237"/>
<path opacity="0.55" d="M191.505 127.005V130.204L191.068 130.391V127.191L191.505 127.005Z" fill="#231237"/>
<path d="M255.727 98.4961L253.908 101.951C253.803 102.15 253.666 102.322 253.506 102.455C253.345 102.589 253.165 102.681 252.974 102.728C252.784 102.774 252.588 102.774 252.397 102.726C252.207 102.679 252.027 102.585 251.867 102.451L249.245 100.25L247.749 102.939C247.63 103.154 247.472 103.335 247.288 103.468C247.104 103.6 246.899 103.682 246.686 103.706C246.474 103.731 246.259 103.698 246.058 103.609C245.857 103.521 245.675 103.38 245.524 103.196L244.557 102.014L242.817 105.992C242.725 106.202 242.599 106.387 242.448 106.536C242.296 106.686 242.121 106.796 241.933 106.861C241.745 106.925 241.549 106.943 241.355 106.913C241.162 106.883 240.975 106.806 240.807 106.686L239.147 105.495L238.353 109.33C238.296 109.604 238.186 109.858 238.032 110.07C237.878 110.281 237.685 110.445 237.468 110.547C237.251 110.648 237.018 110.685 236.787 110.654C236.557 110.623 236.336 110.525 236.143 110.368L234.616 109.134L234.312 110.492C234.25 110.77 234.133 111.025 233.972 111.235C233.81 111.445 233.609 111.603 233.386 111.697C233.163 111.791 232.925 111.817 232.691 111.773C232.458 111.729 232.237 111.616 232.048 111.444L230.458 109.997L229.247 113.251C229.145 113.528 228.985 113.768 228.784 113.947C228.583 114.127 228.347 114.24 228.1 114.277C227.852 114.313 227.601 114.271 227.371 114.154C227.14 114.037 226.939 113.85 226.785 113.611L225.824 117.209C225.751 117.481 225.626 117.727 225.458 117.927C225.29 118.126 225.085 118.273 224.86 118.355C224.636 118.437 224.398 118.451 224.168 118.396C223.938 118.341 223.722 118.219 223.539 118.04L223.41 117.915L222.654 121.537C222.591 121.842 222.462 122.122 222.28 122.346C222.099 122.57 221.872 122.731 221.622 122.812C221.373 122.893 221.11 122.891 220.861 122.807C220.612 122.722 220.387 122.558 220.207 122.332L219.343 121.249L219.18 123.428C219.021 125.542 218.505 127.593 217.664 129.451C216.823 131.31 215.675 132.936 214.293 134.227V140.844L246.779 118.882L261.542 108.293L255.727 98.4961Z" fill="#2E2E47"/>
<path d="M267.657 108.61L270.272 109.946V109.925C270.075 104.832 268.451 99.9754 265.67 96.1672L263.933 100.444C263.227 102.184 261.167 102.094 260.565 100.297L260.492 100.084L259.193 103.104C259.039 103.461 258.808 103.759 258.524 103.966C258.24 104.173 257.915 104.28 257.585 104.275C257.254 104.271 256.931 104.155 256.651 103.94C256.371 103.726 256.145 103.421 255.998 103.06C255.814 103.65 255.533 104.189 255.174 104.643C254.814 105.098 254.383 105.459 253.906 105.705C253.429 105.951 252.916 106.077 252.398 106.075C251.881 106.073 251.368 105.943 250.893 105.694L250.431 105.452C249.05 108.198 245.79 108.243 244.356 105.537L243.473 103.875L241.98 111.546C241.801 112.464 241.342 113.265 240.696 113.785C240.051 114.305 239.266 114.505 238.504 114.344L238.284 114.868C238.108 115.289 237.849 115.652 237.531 115.922C237.213 116.193 236.845 116.364 236.46 116.42C236.075 116.476 235.684 116.415 235.323 116.243C234.961 116.071 234.64 115.793 234.388 115.434L233.203 113.751L231.748 117.679C231.543 118.23 231.24 118.718 230.861 119.107C230.482 119.497 230.037 119.779 229.558 119.932C229.078 120.085 228.577 120.106 228.09 119.992C227.603 119.879 227.143 119.635 226.743 119.278L224.667 124.598C224.51 125.001 224.286 125.36 224.009 125.652C223.732 125.944 223.408 126.162 223.058 126.293C222.708 126.425 222.339 126.466 221.976 126.414C221.612 126.362 221.261 126.219 220.946 125.993C220.81 126.362 220.606 126.688 220.35 126.945C220.094 127.202 219.792 127.383 219.469 127.473C219.146 127.564 218.809 127.563 218.487 127.468C218.164 127.374 217.864 127.19 217.609 126.93L217.536 126.855L215.788 136.899L214.8 134.955L214.3 140.844L239.275 125.433C248.074 120.022 257.635 116.696 267.451 115.632L267.657 108.61Z" fill="#2F294F"/>
<g opacity="0.55">
<path d="M239.946 125.041C239.724 125.176 239.496 125.295 239.275 125.431L224.436 134.587V129.996L225.774 128.685L237.597 121.389L238.582 121.622L239.946 120.697V125.041Z" fill="#231237"/>
<path d="M248.794 120.527C245.962 121.728 243.19 123.129 240.493 124.724V120.326L244.474 117.624C245.898 116.94 247.341 116.321 248.794 115.737V120.527Z" fill="#231237"/>
<path d="M252.507 114.354V119.078C252.325 119.143 252.144 119.218 251.961 119.285V114.549C252.144 114.485 252.325 114.416 252.507 114.354Z" fill="#231237"/>
<path d="M223.605 130.811V135.101L222.962 135.497V131.443L223.605 130.811Z" fill="#231237"/>
<path d="M263.321 111.653C264.58 111.44 265.844 111.258 267.117 111.12L267.451 115.632C266.068 115.784 264.693 115.992 263.321 116.232V111.653Z" fill="#231237"/>
<path d="M219.854 132.338L221.433 132.943L222.416 131.979V135.835L216.198 139.671L216.185 134.602L219.854 132.338Z" fill="#231237"/>
<path d="M249.34 115.516C249.935 115.283 250.532 115.062 251.13 114.846V119.599C250.533 119.826 249.933 120.04 249.34 120.285V115.516Z" fill="#231237"/>
<path d="M262.775 116.334C262.629 116.361 262.484 116.392 262.338 116.42V111.809C262.483 111.783 262.629 111.763 262.775 111.738V116.334Z" fill="#231237"/>
<path d="M261.507 116.583C258.656 117.157 255.834 117.923 253.053 118.876V114.17C253.937 113.879 254.824 113.605 255.715 113.349L260.536 111.102L261.507 111.484V116.583Z" fill="#231237"/>
</g>
<path d="M321.997 116.837L315.197 116.894C300.966 117.014 286.867 120.562 273.94 127.662C273.468 127.922 272.997 128.186 272.527 128.455L261.545 134.733L265.255 120.67L268.268 123.359L270.977 116.479L273.542 118.37L274.277 110.389L280.075 113.747L281.068 110.977L283.719 112.754L287.529 102.879L293.343 106.404L294.821 102.29L298.796 104.659L303.103 95.1774L305.756 98.3352L308.241 94.78L311.188 100.32L315.032 96.165L316.912 102.238L319.61 100.027L322 102.041L321.997 116.837Z" fill="#2F294F"/>
<path opacity="0.55" d="M296.422 114.716C295.148 115.005 293.881 115.32 292.621 115.662V120.063C297.626 118.677 302.708 117.744 307.825 117.272V112.854C305.534 113.086 303.262 113.399 301.009 113.794L297.74 115.896L296.422 114.716Z" fill="#231237"/>
<path opacity="0.55" d="M290.327 116.315V120.734C290.589 120.653 290.852 120.57 291.114 120.492V116.077C290.849 116.153 290.589 116.234 290.327 116.315Z" fill="#231237"/>
<path opacity="0.55" d="M315.43 112.387C313.383 112.434 311.351 112.546 309.333 112.721V117.146C311.285 116.999 313.241 116.91 315.2 116.894L322 116.837V113.393L319.946 113.41L316.887 111.634L315.43 112.387Z" fill="#231237"/>
<path opacity="0.55" d="M267.081 126.685V131.57L267.954 131.07V126.2L267.081 126.685Z" fill="#231237"/>
<path opacity="0.55" d="M266.207 132.07V127.17L263.086 128.902L261.568 134.661L261.587 134.711L266.207 132.07Z" fill="#231237"/>
<path opacity="0.55" d="M269.465 130.207L272.53 128.455C273.001 128.186 273.472 127.922 273.943 127.662C278.751 125.027 283.725 122.867 288.817 121.204V116.772C283.336 118.507 277.976 120.768 272.787 123.533C272.284 123.802 271.783 124.075 271.282 124.353L269.465 125.362V130.207Z" fill="#231237"/>
<path d="M0 91.8982L14.5812 114.39C15.0648 115.129 15.6905 115.712 16.4029 116.086C17.1153 116.46 17.8923 116.614 18.6653 116.535L19.8799 119.944C21.2567 123.805 23.0384 127.432 25.1804 130.734L26.0184 132.026C29.1814 136.891 33.3186 140.681 38.0314 143.03C38.7541 143.394 39.5522 143.47 40.3128 143.25C41.0733 143.03 41.7578 142.524 42.2694 141.803L48.2645 143.053L62.9383 163.004C64.8433 165.577 67.4766 167.176 70.3088 167.479L78.0158 175.165L0 179.037V91.8982Z" fill="#2F294F"/>
<path d="M47.2859 155.386L40.3828 149.671L44.8392 157.724L44.3245 157.152C38.7782 150.988 32.4946 145.889 25.6898 142.03L28.4414 146.334C24.9397 145.719 21.6943 143.742 19.1878 140.698L16.0666 136.893L17.5521 142.531L13.3605 137.446C9.27007 132.482 4.79578 128.013 0 124.1L0 142.699L8.78172 147.379L24.8134 151.002L33.0062 157.977L39.6794 156.531L43.567 161.668L45.5452 157.977L55.5215 165.844L58.6925 165.486L47.2859 155.386Z" fill="#25203F"/>
<path d="M185.743 39.626C185.611 37.2114 185.686 34.7866 185.966 32.391L179.57 31.4492C166.953 29.5911 160.628 12.2829 168.076 0H275.286L262.115 13.328C255.221 20.3031 255.911 33.2273 263.488 39.1104L261.487 41.7344C256.482 48.277 250.082 52.9934 243.005 55.3565L232.803 58.7827L245.901 62.1717L233.668 78.2133L209.218 71.9829C205.948 71.1551 202.814 69.6696 199.945 67.5871L207.459 64.5103L199.664 62.9644C195.257 62.0918 191.409 58.8658 189.279 54.1824C188.103 51.602 187.201 48.8507 186.592 45.9938L201.668 41.598L185.743 39.626Z" fill="#2F294F"/>
<g opacity="0.77">
<path d="M58.0547 110.248L50.4919 95.7783C49.8281 94.5118 49.533 93.01 49.6541 91.5143C49.7752 90.0186 50.3054 88.616 51.1595 87.5322L58.0547 110.248Z" fill="#2F294F"/>
<path d="M45.4465 69.6976L38.1564 52.3105L36.2891 56.5294L37.5561 63.8913C37.6661 64.5288 37.742 65.1744 37.7833 65.8239L45.4465 69.6976Z" fill="#2F294F"/>
<path d="M33.7393 78.2133L23.9064 50.4237L22.0565 51.1162C17.6032 52.7837 12.8157 52.5404 8.49162 50.4269L0 46.2762V82.8349L5.3302 83.3516C10.7912 83.8793 16.2316 82.0615 20.7091 78.2133L20.9477 79.1167C23.5263 88.8874 28.6983 97.2528 35.5402 103.073L25.7239 83.4358C29.5948 83.1407 33.1512 85.9789 34.3999 90.3608L38.7174 105.51C40.6295 106.824 42.6285 107.942 44.6933 108.851L47.8739 110.252L44.1166 85.4973L44.3245 85.5676C47.7953 86.7502 50.7907 82.4492 49.175 78.5989L41.607 75.2078C40.2067 74.5801 38.6755 74.5347 37.2519 75.079C35.8283 75.6232 34.5923 76.7263 33.7367 78.2165L33.7393 78.2133Z" fill="#2F294F"/>
</g>
<path d="M39.8831 94.0311L49.0396 107.056C49.8432 108.196 50.309 109.633 50.3619 111.134C50.4149 112.636 50.0519 114.116 49.3315 115.336L39.8831 94.0311Z" fill="#47445D"/>
<path d="M39.371 65.0845L40.3645 56.197L42.0369 55.5067C43.5705 54.876 45.1687 56.2343 45.1687 58.1701C45.1687 61.9896 42.5726 65.0845 39.371 65.0845Z" fill="#47445D"/>
<path d="M89.0868 96.7063L74.0399 90.9415L81.9915 96.8235C86.6081 100.225 90.3544 105.13 92.8092 110.987L100.431 115.013L89.0868 96.7063Z" fill="#25203F"/>
<path d="M16.8094 150.677L15.7529 149.523L15.891 145.284H16.7613L16.8094 150.677Z" fill="#231237"/>
<path d="M45.1573 142.62L44.5142 142.354L44.5089 139.246H45.1713L45.1573 142.62Z" fill="#1D2842"/>
<path d="M39.6794 156.529L33.9595 155.12L33.3557 157.17C32.6252 159.648 29.8308 160.06 28.6171 157.867L24.816 150.999L8.78434 147.377L8.99318 147.866C11.2039 153.051 7.81355 159.127 2.94821 158.698L0 158.44V167.107L37.5508 170.818L39.6794 156.529Z" fill="#2F294F"/>
<path d="M45.5453 157.975L48.6036 171.91L59.5427 172.991C54.7723 169.142 50.6599 164.2 47.4336 158.44L45.5453 157.975Z" fill="#384256"/>
<path d="M45.4046 115.801L43.9078 117.679L42.2694 138.981L47.2387 140.335L45.4046 115.801Z" fill="#25203F"/>
<path d="M16.9134 122.912L15.4166 124.79L13.7791 146.091L18.7484 147.445L16.9134 122.912Z" fill="#25203F"/>
<path d="M58.5335 170.232L57.6597 169.255L57.6527 166.147H58.5335V170.232Z" fill="#231237"/>
<path d="M26.3845 152.364L25.038 151.209L25.2136 146.97H26.3242L26.3845 152.364Z" fill="#231237"/>
<path d="M58.6567 142.663L57.159 144.54L55.5215 165.841L60.4908 167.195L58.6567 142.663Z" fill="#25203F"/>
<path d="M26.4885 116.831L24.5714 119.235L22.4751 146.501L28.8355 148.235L26.4885 116.831Z" fill="#25203F"/>
<path d="M61.015 147.445L61.5646 145.481L62.6717 147.392L63.224 146.508L63.9999 147.991L65.7082 147.775L66.8677 150.079L68.4354 147.858L70.9537 152.185L71.8371 150.276L74.2444 152.175L74.5633 150.614L77.3473 154.293L77.0371 152.313L79.2408 154.612L80.7752 156.24L61.728 155.478L61.015 147.445Z" fill="#293147"/>
<path d="M59.3383 134.409L60.995 135.397L59.8355 130.723L59.3383 134.409Z" fill="#293147"/>
<path d="M67.9521 132.961L69.608 133.949L68.4485 129.274L67.9521 132.961Z" fill="#293147"/>
<path d="M65.0259 141.257L66.6817 142.244L65.5222 137.57L65.0259 141.257Z" fill="#293147"/>
<path d="M78.5812 136.022L80.0168 136.864L79.2715 132.369L78.5812 136.022Z" fill="#293147"/>
<path d="M78.0157 134.557L79.1543 135.237L78.3574 132.023L78.0157 134.557Z" fill="#293147"/>
<path d="M80.189 133.355L81.0933 133.719L80.6966 131.488L80.189 133.355Z" fill="#293147"/>
<path d="M81.5005 137.792L82.6391 138.472L81.8421 135.257L81.5005 137.792Z" fill="#293147"/>
<path d="M84.8131 141.216L85.9525 141.895L85.1548 138.68L84.8131 141.216Z" fill="#293147"/>
<path d="M62.1545 129.34L63.8104 130.328L62.6509 125.654L62.1545 129.34Z" fill="#293147"/>
<path d="M60.5529 136.253L62.2096 137.241L61.4363 131.842L60.5529 136.253Z" fill="#293147"/>
<path d="M81.5005 135.397L100.793 150.374L106.438 152.556L109.973 152.738L111.06 151.189L109.78 150.113L109.478 150.847L108.926 150.373L107.937 150.693L106.402 148.68L106.14 150.393L105.206 149.474L104.523 150.042L103.404 146.807L103.055 149.349L102.211 147.835L101.25 148.387L100.422 146.61L100.154 148.513L98.5615 143.893L98.3867 146.404L97.7471 144.899L97.0909 146.031L95.9383 143.1L95.6203 143.2L94.9474 141.495L94.4319 142.362L93.5913 140.933L93.0723 141.323L91.5606 138.82L90.5531 139.877L89.6146 136.583L88.9741 138.637L87.3462 135.69L85.8844 136.195L85.0446 133.901L84.6226 135.569L83.7864 134.012L83.3189 134.936L82.7334 133.634L81.5005 135.397ZM100.544 149.652V149.645H100.549L100.544 149.652Z" fill="#25203F"/>
<path d="M37.4171 172.314L0 174.306V167.107L37.2782 170.791C37.9956 170.863 38.1048 172.061 37.4171 172.314Z" fill="#293147"/>
<path d="M183.209 133.901L186.687 131.927L185.528 125.409L183.209 133.901Z" fill="#1D2842"/>
<path d="M173.711 136.93L176.361 135.613L175.809 130.676L173.711 136.93Z" fill="#1D2842"/>
<path d="M168.742 137.588L171.392 136.272L170.84 131.333L168.742 137.588Z" fill="#1D2842"/>
<path d="M175.423 135.745L177.862 127.785L179.151 131.323L180.62 126.528L182.545 131.807L175.423 135.745Z" fill="#1D2842"/>
<path d="M147.065 158.539H151.846L149.775 163.59H135.867C138.983 160.325 142.957 158.532 147.065 158.539Z" fill="#47445D"/>
<path d="M128.517 160.668L131.678 161.094C132.395 161.188 133.09 161.455 133.723 161.878C134.356 162.301 134.913 162.872 135.364 163.559H125.802C125.802 161.823 127.069 160.473 128.517 160.668Z" fill="#47445D"/>
<path d="M154.564 160.213L164.601 163.56H152.757L154.564 160.213Z" fill="#47445D"/>
<path d="M197.734 134.966L183.578 139.813L171.978 141.921L169.43 143.371L178.752 144.138C182.878 144.476 186.985 143.211 190.484 140.525L197.734 134.966Z" fill="#2E2E47"/>
<path d="M321.996 152.799L320.876 152.766L268.756 155.992L258.43 157.336L214.781 168.591C212.231 170.769 209.325 172.249 206.263 172.932L163.796 182.426L156.582 186.138L178.883 181.1L212.429 177.147L191.352 185.527L253.344 178.383L275.068 175.949L244.15 185.5L283.897 181.367L321.996 173.928V173.698L284.364 171.281L321.996 165.995V152.799Z" fill="#2E2E47"/>
<path d="M321.996 122.239L319.913 124.414C319.321 125.032 318.552 125.339 317.775 125.268C316.997 125.197 316.275 124.753 315.764 124.035L312.734 125.929C311.345 126.797 309.745 127.025 308.23 126.57C306.714 126.115 305.384 125.008 304.484 123.453L303.374 121.535L299.185 128.06C298.915 128.479 298.579 128.827 298.195 129.082C297.812 129.337 297.39 129.495 296.955 129.544C296.52 129.594 296.081 129.536 295.666 129.372C295.25 129.208 294.866 128.943 294.537 128.592L292.182 134.292C290.772 137.701 286.898 138.092 285.051 135.001L283.374 132.196L279.904 138.788C279.698 139.179 279.425 139.512 279.104 139.762C278.783 140.013 278.421 140.176 278.043 140.241C277.666 140.305 277.281 140.27 276.916 140.136C276.551 140.003 276.213 139.775 275.927 139.468L272.53 142.696C271.786 143.402 270.931 143.914 270.018 144.199C269.104 144.484 268.153 144.537 267.222 144.354V144.36C266.118 146.595 264.383 148.262 262.343 149.048C261.756 150.081 260.919 150.866 259.95 151.294C258.98 151.721 257.926 151.771 256.932 151.435L251.033 149.441C250.374 150.036 249.573 150.352 248.753 150.342C247.933 150.331 247.138 149.994 246.489 149.382L245.425 148.381C243.82 149.721 241.923 150.447 239.977 150.466C238.031 150.485 236.125 149.796 234.503 148.487L234.474 148.464L230.023 153.188C229.07 154.199 227.915 154.884 226.675 155.173C225.435 155.463 224.154 155.347 222.962 154.837L219.595 172.949L321.996 159.826V122.239Z" fill="#2F294F"/>
<path d="M232.297 171.315L230.324 160.823L228.889 171.752L232.297 171.315Z" fill="#1D2842"/>
<path opacity="0.44" d="M322 155.316L298.756 156.781L275.709 162.375L272.324 160.912L239.447 167.036L234.863 166.135L220.478 169.166L219.595 172.942L322 159.826V155.316Z" fill="#231237"/>
<path d="M227.85 269.062V0H236.064L237.647 269.062H227.85Z" fill="#25203F"/>
<path d="M274.615 0V217.309H284.412L283.005 0H274.615Z" fill="#25203F"/>
<path d="M167.377 168.041L96.2817 166.507H182.15L167.377 168.041Z" fill="#2F294F"/>
<path d="M51.6417 207.952L51.3359 206.247L61.6031 204.036L63.7789 205.06C63.8323 204.61 64.0015 204.192 64.2622 203.867C64.5228 203.541 64.8615 203.325 65.2294 203.249L67.4086 202.779L72.0284 207.027C74.2931 209.104 76.9656 210.419 79.7782 210.84L83.3005 211.373L91.481 215.796L50.3048 216.567L51.1935 213.978C51.8469 212.073 52.0034 209.969 51.6417 207.952Z" fill="#47445D"/>
<path d="M25.6558 169.643L38.0681 170.869C38.8544 170.943 39.6132 171.254 40.276 171.775C40.9389 172.296 41.4849 173.01 41.8648 173.852L43.221 176.896L27.7258 177.664L25.6558 169.643Z" fill="#1D2842"/>
<path d="M19.3644 170.818C21.9858 170.818 24.3599 172.655 25.4294 175.506L26.2386 177.664L21.1906 177.984L19.3644 170.818Z" fill="#1D2842"/>
<path d="M297.639 185.058C296.672 185.363 295.801 186.014 295.138 186.926C294.475 187.838 294.05 188.97 293.918 190.178L292.694 201.97L289.044 187.853L286.966 189.642C280.169 195.494 275.701 204.433 274.618 214.344L268.985 198.801L268.034 202.743C266.221 210.261 266.531 218.304 268.916 225.581L270.474 230.343L259.658 213.884C255.463 217.679 253.978 224.388 256.053 230.155L260.339 242.077L248.616 230.931C247.928 236.813 248.118 242.797 249.177 248.596L252.072 264.471L311.118 224.762L297.639 185.058Z" fill="#2F294F"/>
<path d="M268.032 247.994L274.614 235.708L261.806 223.421L268.032 247.994Z" fill="#172243"/>
<path d="M311.118 224.769L304.957 206.625C299.876 212.33 296.564 219.985 295.652 228.331L290.023 212.788L289.072 216.73C288.044 221.003 287.696 225.477 288.048 229.911L279.764 217.305C273.253 223.199 270.945 233.62 274.165 242.579L275.737 246.964L289.415 237.766C289.538 238.211 289.668 238.654 289.806 239.094L311.118 224.769Z" fill="#25203F"/>
<path d="M321.996 222.188L275.72 230.541L274.19 232.594C259.778 251.927 239.128 262.999 217.435 263.026L174.828 263.079L164.961 253.023C157.359 253.089 150.331 248.201 146.636 240.278L141.367 228.974L135.818 230.403C127.363 232.579 118.565 231.56 110.597 227.48L103.112 231.8C90.1477 239.282 74.5878 235.504 65.1088 222.573L47.3261 198.312L39.1001 199.106C34.41 199.552 29.934 201.685 26.2386 205.234L14.0254 205.136L0 209.685V302H321.996V222.188Z" fill="#2F294F"/>
<path d="M321.996 222.188L275.72 230.541L274.19 232.594C262.628 248.104 247.048 258.291 230.138 261.729L223.964 265.962C235.959 268.486 248.301 266.167 259.117 259.357L268.652 253.338L255.483 272.469C253.253 275.708 255.498 280.529 258.983 279.984L275.532 277.397L264.204 297.887C265.87 297.387 267.621 297.512 269.228 298.246C270.835 298.979 272.223 300.287 273.21 301.998H321.996V222.188Z" fill="#25203F"/>
<path d="M185.614 288.127L167.259 291.328C160.531 292.5 153.948 288.314 151.018 280.999L108.484 287.818C104.149 288.512 101.504 282.308 104.529 278.542L109.072 272.88L103.49 255.715L73.0281 281.216C70.4312 283.391 66.9657 280.551 67.7364 276.881L69.2402 269.721L54.7001 274.083C51.1699 275.142 47.5096 273.049 45.9909 269.105L8.30113 281.66L3.32045 254.201L0 256.428V302H206.984L185.614 288.127Z" fill="#25203F"/>
<path d="M247.075 250.242L246.331 248.62L245.888 256.449L243.791 251.207C243.179 249.679 241.29 249.963 241.017 251.623C240.973 251.888 240.982 252.162 241.041 252.423C241.1 252.684 241.208 252.924 241.358 253.124L245.18 258.286C246.596 258.725 248.03 257.54 248.119 255.797C248.217 253.862 247.854 251.933 247.075 250.242Z" fill="#25203F"/>
<path d="M231.505 263.647L234.201 256.876C234.987 254.892 234.244 252.522 232.553 251.655L231.05 261.738L230.235 254.567C229.336 254.115 228.377 255.038 228.556 256.181L229.461 261.936L226.647 259.068C226.152 258.568 225.532 258.289 224.89 258.277C224.247 258.266 223.62 258.523 223.114 259.006L223.266 259.278C224.512 261.493 226.383 263.072 228.522 263.713L231.504 263.647H231.505Z" fill="#25203F"/>
<path d="M229.271 158.195L225.308 151.911L225.975 149.365L229.241 151.26L228.388 113.69L225.227 106.048L226.056 103.579L229.668 107.637L229.654 102.878L228.388 92.0633L224.688 85.3482L225.516 83.537L230.596 88.2769L232.129 92.7643L233.843 109.557L231.685 151.154L229.271 158.195Z" fill="#25203F"/>
<path d="M235.421 184.793L239.623 178.966L238.955 176.42L235.452 177.858L236.304 140.288L239.703 132.897L238.875 130.429L235.024 134.235L235.038 129.475L235.897 107.896L239.513 101.132L238.497 98.6176L233.095 101.546L232.155 108.598L230.849 136.154L233.007 177.751L235.421 184.793Z" fill="#25203F"/>
<path d="M276.589 134.905L271.649 128.139L272.317 125.593L276.559 127.97L275.706 100.956L271.897 93.6433L272.725 91.1737L276.987 94.9026L276.973 90.1446L276.975 29.5975L275.706 32.3984L270.801 24.0479L271.817 21.5336L278.508 26.0487L279.448 33.1005L281.161 96.8224L279.005 127.864L276.589 134.905Z" fill="#25203F"/>
<path d="M282.74 122.093L286.971 115.491L286.302 112.945L282.771 115.159L282.498 77.5463L286.863 70.7012L286.035 68.2327L282.343 71.5354L282.356 66.7763L283.215 45.1969L286.957 38.6373L285.941 36.123L280.414 38.8472L279.473 45.899L278.168 73.4553L280.326 115.052L282.74 122.093Z" fill="#231237"/>
<path d="M226.839 200.01L225.57 195.323C223.406 194.819 221.22 194.459 219.024 194.246L212.953 193.658L215.772 196.156C218.615 198.668 222.038 200.019 225.55 200.015L226.839 200.01Z" fill="#384256"/>
<path d="M196.431 82.0934L211.757 89.7781L211.658 89.8356L210.716 90.3789C209.857 90.8533 208.932 91.1244 207.99 91.178C207.673 91.1966 207.355 91.1912 207.038 91.162L205.97 91.0554L197.429 90.2426L197.291 91.7021L205.767 93.1692L206.827 93.3524C207.219 93.4193 207.614 93.4567 208.011 93.4643C208.81 93.4799 209.608 93.3725 210.386 93.1447C210.776 93.033 211.16 92.8907 211.535 92.7185L212.55 92.2274L214.533 91.26L214.492 91.1535L232.612 100.24L233.66 97.1207L196.96 80.5007L196.431 82.0934Z" fill="#25203F"/>
<path d="M212.623 57.2955L231.164 63.3469L231.796 60.0729L212.9 55.8529L212.623 57.2955Z" fill="#25203F"/>
<path d="M253.777 74.6986C251.21 74.6006 248.65 75.0721 246.221 76.09C245.784 76.27 245.347 76.482 244.915 76.6972L244.968 75.7703L244.989 75.4252L245.013 75.1354C245.028 74.9412 245.052 74.7481 245.084 74.5569C245.108 74.363 245.161 74.1776 245.196 73.9848C245.231 73.7919 245.298 73.6108 245.352 73.4244C245.847 71.895 246.759 70.6203 247.935 69.8148C248.235 69.6053 248.55 69.4271 248.875 69.2821C249.028 69.2076 249.224 69.134 249.414 69.0605L249.979 68.8379L252.243 67.9504L256.768 66.1765L256.547 65.207L251.891 66.4131L249.563 67.0171L248.981 67.1673C248.787 67.2185 248.6 67.2622 248.377 67.3357C248.16 67.3979 247.946 67.4748 247.736 67.5658C247.524 67.6518 247.315 67.7518 247.112 67.8652C245.443 68.7549 244.074 70.3144 243.234 72.2844C243.134 72.5326 243.036 72.7841 242.947 73.0398C242.858 73.2955 242.772 73.5565 242.715 73.825C242.659 74.0934 242.581 74.3576 242.541 74.6325L242.471 75.0438L242.417 75.4017L242.008 78.1994L239.325 79.5972L232.52 83.1428L233.743 86.1685L240.308 82.0263L243.59 79.9552L245.231 78.9196C245.779 78.5766 246.288 78.2665 246.838 77.9832C249.037 76.8357 251.388 76.1859 253.778 76.0655C254.984 76.0039 256.193 76.0753 257.388 76.2785C258.579 76.4788 259.783 76.8485 260.995 77.1575L261.146 76.4714C259.961 76.0559 258.786 75.5796 257.545 75.2547C256.305 74.9314 255.044 74.7452 253.777 74.6986Z" fill="#25203F"/>
<path d="M252.452 55.8529L231.681 65.7419L232.84 68.8038L252.803 56.7788L252.452 55.8529Z" fill="#231237"/>
<path d="M278.967 12.302L257.455 8.01598L257.186 9.61193L278.41 15.5951L278.967 12.302Z" fill="#25203F"/>
<path d="M294.591 44.8262C294.328 44.53 294.515 44.7463 294.455 44.6802L294.449 44.6866L294.437 44.7015L294.413 44.7292L294.365 44.7857L294.269 44.8986L294.078 45.1234C293.947 45.2715 293.826 45.4292 293.69 45.5698C293.42 45.8511 293.165 46.1526 292.882 46.4221C292.599 46.6917 292.331 46.9697 292.039 47.218L291.608 47.6004L291.163 47.9605C289.975 48.9171 288.707 49.7184 287.381 50.3513C286.054 50.9809 284.678 51.445 283.274 51.7363C282.575 51.8865 281.865 51.976 281.157 52.0431L279.928 52.1411L262.671 40.6019L255.681 35.9291L252.186 33.5927C251.613 33.2103 251.002 32.799 250.38 32.4304C250.071 32.2429 249.76 32.0607 249.443 31.8913C249.126 31.7219 248.81 31.5504 248.49 31.3906C245.914 30.101 243.205 29.2496 240.438 28.8603C239.746 28.7537 239.05 28.693 238.353 28.6472C238.003 28.6227 237.654 28.6206 237.304 28.6057L236.299 28.5897L232.292 28.5289L232.301 31.8881L236.307 31.7976L237.306 31.7762C237.625 31.7762 237.944 31.7667 238.262 31.7762C238.899 31.7933 239.537 31.8263 240.172 31.8966C242.722 32.1588 245.231 32.847 247.627 33.9422C247.927 34.0785 248.226 34.2181 248.519 34.3683C248.813 34.5186 249.108 34.6709 249.399 34.8328C249.983 35.1525 250.546 35.503 251.147 35.8759L252.103 36.4682L252.579 39.8721C252.618 40.1555 252.658 40.44 252.709 40.7532C252.761 41.0664 252.81 41.3615 252.873 41.663C253.482 44.6906 254.734 47.4692 256.503 49.7195C257.194 50.6198 258.021 51.4167 258.759 52.1188L261.022 54.2996L265.549 58.6677L266.32 57.5821L261.966 52.9817L259.782 50.6826C259.034 49.9017 258.373 49.2017 257.782 48.3622C256.607 46.7185 255.725 44.7959 255.19 42.7156C255.059 42.2018 254.951 41.6797 254.867 41.1517C254.821 40.8885 254.779 40.6254 254.755 40.359C254.73 40.0927 254.693 39.8146 254.667 39.5259L254.509 37.9672L254.706 38.0897L261.818 42.4962L279.049 53.1628L279.054 53.2363L279.151 53.2257L290.269 60.107L290.63 59.308L281.193 52.9945H281.22C281.954 52.8997 282.685 52.7814 283.404 52.6014C284.847 52.2515 286.256 51.7236 287.611 51.0257C288.956 50.3305 290.238 49.4641 291.435 48.441L291.882 48.0586L292.313 47.6516C292.605 47.3884 292.878 47.0955 293.154 46.811C293.43 46.5265 293.69 46.2154 293.958 45.9193C294.092 45.7712 294.213 45.6071 294.342 45.4516L294.531 45.2161L294.626 45.0978L294.674 45.0382L294.697 45.0094L294.709 44.9945L294.715 44.987C294.662 44.9103 294.854 45.1245 294.591 44.8262Z" fill="#25203F"/>
<path d="M203.465 45.7424L202.216 59.048L203.761 59.308L205.81 44.9359C206.115 44.8496 206.421 44.7718 206.729 44.6973C207.095 44.6184 207.452 44.5375 207.842 44.4639L210.134 44.0122L214.717 43.1098L233.052 39.5003L232.558 36.1976L214.307 40.3761L209.745 41.4201L207.464 41.9432C207.09 42.0253 206.689 42.1275 206.294 42.2256C205.9 42.3236 205.508 42.445 205.121 42.5718C202.016 43.5739 199.085 45.2523 196.47 47.5259C195.826 48.0969 195.196 48.6893 194.597 49.3242L193.736 50.2064C193.453 50.4972 193.15 50.7593 192.858 51.0374C191.661 52.1181 190.386 53.0638 189.048 53.8628C186.346 55.4764 183.427 56.4819 180.432 56.831L179.304 56.9375L178.174 56.9758L175.851 56.9908L171.205 57.0217L161.916 57.0728L161.91 58.1222L171.199 58.3502L175.843 58.4642L178.166 58.5207H179.358L180.549 58.4514C181.16 58.4003 181.764 58.314 182.37 58.2106L182.02 60.0292L181.879 60.7484C181.825 60.9615 181.791 61.1852 181.723 61.394C181.666 61.608 181.599 61.8182 181.524 62.0237C181.452 62.2314 181.371 62.4344 181.282 62.632C180.561 64.2534 179.411 65.5299 178.02 66.2543C177.847 66.3486 177.67 66.4312 177.49 66.5015C177.315 66.5835 177.127 66.6368 176.943 66.6975C176.563 66.8147 176.138 66.9234 175.737 67.0374L173.298 67.7128L168.42 69.0637L168.663 70.3742L173.557 69.1436L176.003 68.531C176.417 68.4245 176.81 68.3361 177.24 68.2114C177.46 68.1464 177.677 68.0857 177.896 67.9983C178.113 67.9193 178.327 67.8257 178.536 67.7181C180.226 66.8878 181.638 65.3864 182.542 63.4566C182.763 62.9792 182.952 62.4803 183.106 61.9651C183.194 61.7115 183.242 61.4441 183.31 61.182L183.468 60.4522L184.017 57.8697C187.559 56.9871 190.915 55.2269 193.876 52.6983C194.196 52.4107 194.525 52.1379 194.837 51.8364L195.758 50.9415C196.329 50.3673 196.928 49.8346 197.538 49.3221C199.374 47.8119 201.367 46.608 203.465 45.7424Z" fill="#25203F"/>
<path d="M187.955 25.532L205.833 17.0782C205.833 17.3264 205.833 17.5746 205.822 17.8239C205.795 18.6812 205.721 19.5353 205.602 20.3809C205.366 22.0984 204.955 23.7734 204.379 25.3669C203.783 26.9859 203.024 28.508 202.119 29.898L201.775 30.4232L201.407 30.9261C201.169 31.2702 200.903 31.5834 200.642 31.9041C200.112 32.5433 199.542 33.1825 198.994 33.8218L199.481 34.493C200.092 33.9251 200.704 33.386 201.311 32.7958C201.617 32.4975 201.928 32.2024 202.214 31.8753L202.651 31.3948L203.072 30.8962C205.328 28.1414 206.971 24.7315 207.846 20.9881C208.072 20.0481 208.247 19.0911 208.371 18.1233C208.442 17.6396 208.47 17.1495 208.521 16.6595C208.545 16.4155 208.548 16.1694 208.562 15.9233L208.568 15.7869L230.48 5.42495L229.392 2.32681L198.79 18.4365L198.89 18.2725L191.45 12.188L190.664 13.4665L197.061 19.3357L187.536 24.3494L187.955 25.532Z" fill="#25203F"/>
<path d="M311.664 0L309.103 4.47463L308.331 5.81808C308.087 6.2332 307.821 6.62891 307.535 7.00279C306.959 7.74641 306.304 8.39343 305.588 8.92688C304.872 9.45773 304.102 9.87044 303.297 10.1542C303.099 10.233 302.893 10.2831 302.691 10.347L302.022 10.5292L300.684 10.8947L296.284 12.0943L296.564 11.7608C296.87 11.4114 297.142 11.0214 297.429 10.6496C298.535 9.13401 299.481 7.45623 300.247 5.65508C301.01 3.87895 301.584 1.99053 301.952 0.0362232L301.959 0H300.927C300.492 1.72494 299.886 3.3786 299.122 4.92422C298.326 6.54618 297.367 8.04134 296.269 9.37541C295.987 9.69502 295.72 10.0402 295.421 10.3406L294.985 10.8041C294.836 10.9543 294.68 11.0949 294.529 11.2409C294.233 11.5296 293.906 11.8237 293.58 12.1177L292.606 12.9977L292.662 13.0798L279.283 16.7266L279.972 19.9845L301.136 13.0297L302.459 12.595L303.121 12.3819C303.357 12.2946 303.599 12.22 303.831 12.1166C304.765 11.731 305.653 11.1961 306.472 10.526C307.282 9.86197 308.015 9.06945 308.653 8.16939C308.966 7.72135 309.256 7.24911 309.52 6.75562L310.249 5.36103L313.036 0H311.664Z" fill="#25203F"/>
<path d="M296.412 23.3107L297.519 22.8653C297.886 22.713 298.264 22.6001 298.586 22.2687L298.214 20.7751C297.792 20.7069 297.428 20.8582 297.046 20.969L295.915 21.3077L293.655 21.9971L289.134 23.3821L284.618 24.7894L280.111 26.2288L280.911 29.4494L285.348 27.7288L289.778 25.9763L290.302 25.7632L297.554 28.6397L297.925 27.552L292.963 24.6914L294.203 24.1939L296.412 23.3107Z" fill="#25203F"/>
<path d="M255.289 24.1917C256.979 25.1506 258.622 26.1968 260.219 27.3442C264.989 30.7604 269.305 35.0411 273.019 40.0394C273.638 40.8629 274.222 41.711 274.812 42.5718L276.593 45.2108L278.69 43.1237L276.825 40.5667C276.188 39.708 275.542 38.8398 274.87 38.0098C273.53 36.3412 272.123 34.7557 270.653 33.2593C267.711 30.2614 264.527 27.6359 261.149 25.4233C259.465 24.3143 257.728 23.3107 255.968 22.4083L250.745 19.7384L240.296 14.3998L239.89 15.4726L250.156 21.2854L255.289 24.1917Z" fill="#25203F"/>
<path d="M122.635 186.938L106.072 185.889L127.201 184.827L143.988 185.506L122.635 186.938Z" fill="#2F294F"/>
<path d="M63.5412 190.165L51.9336 189.429L66.7411 188.685L78.5051 189.162L63.5412 190.165Z" fill="#2F294F"/>
<path d="M73.2318 179.796L61.6241 179.06L76.4316 178.316L88.1956 178.792L73.2318 179.796Z" fill="#2F294F"/>
<path d="M70.9127 196.584L59.3051 195.848L74.1125 195.104L85.8765 195.581L70.9127 196.584Z" fill="#2F294F"/>
<path d="M117.045 182.363L105.438 181.627L120.245 180.884L132.009 181.36L117.045 182.363Z" fill="#2F294F"/>
<path d="M101.888 180.191L90.2805 179.455L105.088 178.711L116.853 179.186L101.888 180.191Z" fill="#2F294F"/>
<path d="M171.128 195.716L159.521 194.98L174.328 194.236L186.092 194.712L171.128 195.716Z" fill="#2F294F"/>
<path d="M95.9951 184.655L75.5472 184.13L101.633 183.599L122.356 183.939L95.9951 184.655Z" fill="#2F294F"/>
<path d="M133.845 178.236L113.397 177.711L139.483 177.18L160.207 177.52L133.845 178.236Z" fill="#2F294F"/>
<path d="M129.952 175.669L109.505 175.143L135.59 174.613L156.314 174.953L129.952 175.669Z" fill="#2F294F"/>
<path d="M104.277 173.792L83.8292 173.267L109.915 172.737L130.639 173.076L104.277 173.792Z" fill="#2F294F"/>
<path d="M189.087 208.554L168.641 208.029L194.725 207.498L215.449 207.838L189.087 208.554Z" fill="#2F294F"/>
<path d="M171.198 171.028L150.75 170.502L176.836 169.972L197.56 170.311L171.198 171.028Z" fill="#2F294F"/>
<path opacity="0.44" d="M38.1686 58.8808L36.9234 60.2189L36.2891 56.5316L38.1564 52.3105L38.9113 54.111C39.2397 54.8937 39.345 55.7874 39.2105 56.6511C39.076 57.5148 38.7094 58.2993 38.1686 58.8808Z" fill="#FF7E2E"/>
<path opacity="0.44" d="M67.1954 72.8864L62.075 78.9761L63.1943 79.8519L64.9122 78.4423C65.6532 77.8346 66.2528 77.0038 66.6528 76.0303C67.0529 75.0568 67.2398 73.9738 67.1954 72.8864Z" fill="#FF7E2E"/>
<path opacity="0.33" d="M105.603 105.864H107.208C108.552 105.864 109.841 105.213 110.791 104.054C111.742 102.896 112.276 101.324 112.276 99.6851V95.4587L104.406 102.982L105.603 105.864Z" fill="#FF7E2E"/>
<path d="M219.458 163.706L217.383 176.225L222.08 175.559L219.458 163.706Z" fill="#293147"/>
<path d="M212.686 162.241L210.611 174.76L215.308 174.094L212.686 162.241Z" fill="#293147"/>
<path d="M0 56.6914V46.4935L18.7483 56.6914C13.44 62.4658 5.30835 62.4658 0 56.6914Z" fill="#47445D"/>
<path d="M238.959 254.742L243.036 260.601L244.289 259.813L239.625 254.052L238.959 254.742Z" fill="#25203F"/>
<path d="M238.574 255.938L239.594 261.265L240.721 260.878L239.426 255.696L238.574 255.938Z" fill="#25203F"/>
<path d="M250.365 256.092L251.498 255.906L252.539 245.776L251.675 245.615L250.365 256.092Z" fill="#25203F"/>
<path d="M252.299 255.64L253.554 255.217L254.865 247.581L254.01 247.363L252.299 255.64Z" fill="#25203F"/>
<path d="M256.327 245.442L255.462 245.596L256.335 252.876L257.25 251.644L256.327 245.442Z" fill="#25203F"/>
<path d="M219.462 242.195C220.816 238.221 223.906 235.432 228.767 235.729L225.152 254.829C219.564 252.372 217.556 256.268 214.71 260.03L199.877 302H198.552C216.564 251.054 212.868 261.565 219.462 242.195Z" fill="#2F294F"/>
<path d="M271.466 240.007C272.035 235.464 274.662 231.461 279.652 230.252L276.761 245.304C273.003 245.304 272.245 248.256 270.943 251.257L263.976 302H263.091C271.191 243.02 269.763 253.628 271.466 240.007Z" fill="#2F294F"/>
<path d="M280.095 273.497C280.392 271.151 281.273 268.974 282.618 267.258C283.963 265.542 285.707 264.371 287.615 263.903L288.281 263.742L285.389 278.795H285.04C281.65 278.795 280.666 282.216 279.568 284.746L277.198 302.005H276.316C279.288 280.392 278.831 283.593 280.095 273.497Z" fill="#2F294F"/>
<path d="M255.629 268.254C256.228 262.581 259.25 258.017 263.149 256.896L263.814 256.705L260.923 274.527H260.573C257.184 274.527 256.199 278.575 255.102 281.572L252.732 302H251.849C254.822 276.417 254.364 280.207 255.629 268.254Z" fill="#2F294F"/>
<path d="M197.318 276.123C197.588 273.994 198.388 272.017 199.609 270.459C200.83 268.902 202.413 267.838 204.146 267.413L204.75 267.266L202.128 280.933H201.814C198.738 280.933 197.843 284.039 196.847 286.336L194.695 301.997H193.894C196.586 282.382 196.169 285.289 197.318 276.123Z" fill="#2F294F"/>
</g>
<defs>
<linearGradient id="paint0_linear_326_33" x1="94.6879" y1="324.588" x2="237.744" y2="72.6769" gradientUnits="userSpaceOnUse">
<stop stop-color="#787A9E"/>
<stop offset="0.477083" stop-color="#787A9E"/>
<stop offset="1" stop-color="#25203F"/>
</linearGradient>
<linearGradient id="paint1_linear_326_33" x1="177.061" y1="22.0162" x2="15.3885" y2="22.0162" gradientUnits="userSpaceOnUse">
<stop stop-color="#C3E8FF"/>
<stop offset="0.02" stop-color="#C4E9FF"/>
<stop offset="0.33" stop-color="#D7F2FF"/>
<stop offset="0.65" stop-color="#E2F8FF"/>
<stop offset="1" stop-color="#E6FAFF"/>
</linearGradient>
<linearGradient id="paint2_linear_326_33" x1="57.8519" y1="70.4892" x2="322" y2="70.4892" gradientUnits="userSpaceOnUse">
<stop offset="0.29" stop-color="#BCB9D3"/>
<stop offset="0.46" stop-color="#BFC4E1"/>
<stop offset="0.79" stop-color="#C3D3F7"/>
<stop offset="1" stop-color="#C4D9FF"/>
</linearGradient>
<linearGradient id="paint3_linear_326_33" x1="20.412" y1="53.2385" x2="166.96" y2="53.2385" gradientUnits="userSpaceOnUse">
<stop offset="0.29" stop-color="#BCB9D3"/>
<stop offset="0.46" stop-color="#BFC4E1"/>
<stop offset="0.79" stop-color="#C3D3F7"/>
<stop offset="1" stop-color="#C4D9FF"/>
</linearGradient>
<clipPath id="clip0_326_33">
<rect width="322" height="302" rx="9" fill="white"/>
</clipPath>
</defs>
</svg>
